<svg width="418" height="585" viewBox="0 0 418 585" fill="none" xmlns="http://www.w3.org/2000/svg">
<g filter="url(#filter0_d_439_97)">
<mask id="mask0_439_97" style="mask-type:luminance" maskUnits="userSpaceOnUse" x="-4" y="-4" width="426" height="593">
<path d="M407.797 -2H10.2034C8.11815 -2 6.29894 -1.00523 4.82677 0.447971C3.36318 1.8927 2.13689 3.88407 1.15016 6.18689C-0.82634 10.7997 -2 17.0327 -2 23.8128V561.187C-2 567.967 -0.826339 574.2 1.15016 578.813C2.13689 581.116 3.36318 583.107 4.82677 584.552C6.29894 586.005 8.11814 587 10.2034 587H407.797C409.882 587 411.701 586.005 413.173 584.552C414.637 583.107 415.863 581.116 416.85 578.813C418.826 574.2 420 567.967 420 561.187V23.8128C420 17.0327 418.826 10.7997 416.85 6.18689C415.863 3.88407 414.637 1.8927 413.173 0.44797C411.701 -1.00523 409.882 -2 407.797 -2Z" fill="white" stroke="white" stroke-width="4"/>
</mask>
<g mask="url(#mask0_439_97)">
<path d="M420.111 0V-2H418.111H0H-2V0V585.461V587.461H0H418.111H420.111V585.461V0Z" fill="#212121" stroke="#0E397A" stroke-width="4"/>
<path fill-rule="evenodd" clip-rule="evenodd" d="M351.112 193.574L357.982 184.31L351.112 175.044V193.574ZM330.861 184.311L336.885 192.378V176.191L330.861 184.311ZM296.716 188.683L299.973 184.311L296.716 179.886V188.683ZM308.381 227.044L304.478 221.735L308.381 216.478V227.044ZM271.447 221.735L269.284 224.649V218.872L271.447 221.735ZM296.114 266.081L301.199 259.21L296.114 252.34V266.081ZM280.725 265.04L276.398 259.21L280.725 253.38V265.04ZM267.79 305.587L274.413 296.687L267.79 287.734V305.587ZM283 349.205L271.826 334.111L283 319.068V349.205ZM245.977 334.111L240.335 341.71V326.512L245.977 334.111ZM265.715 388.92L278.584 371.588L265.715 354.254V388.92ZM245.063 371.587L254.675 384.547V358.626L245.063 371.587ZM238.818 422.804L249.011 409.062L238.818 395.322V422.804ZM255.991 464.705L242.476 446.487L255.991 428.27V464.705ZM238.06 500.724L250.505 483.964L238.06 467.204V500.724ZM216.939 483.964L227.042 497.549V470.327L216.939 483.964ZM226.173 419.108L218.701 409.062L226.173 398.965V419.108ZM211.542 458.094L220.151 446.487L211.542 434.88V458.094ZM220.82 521.44L211.207 534.4V508.427L220.82 521.44ZM242.387 521.439L256.014 539.813V503.065L242.387 521.439ZM281.171 446.487L264.422 469.077V423.949L281.171 446.487ZM217.185 371.588L213.014 377.209V365.966L217.185 371.588ZM190.957 446.488L198.339 456.482V436.546L190.957 446.488ZM227.087 572.605L216.872 558.864L227.087 545.122V572.605ZM238.306 574.688L250.037 558.864L238.306 543.041V574.688ZM280.993 521.44L264.511 543.665V499.214L280.993 521.44ZM266.897 483.963L285.453 508.947V458.927L266.897 483.963ZM284.94 431.913L267.968 409.062L284.94 386.161V431.913ZM221.645 334.11L224.7 338.222V330.05L221.645 334.11ZM196.889 375.699L193.855 371.588L196.889 367.476V375.699ZM184.912 415.934L190.019 409.063L184.912 402.14V415.934ZM191.514 483.964L184.154 493.853V474.074L191.514 483.964ZM190.288 521.44L198.673 532.682V510.144L190.288 521.44ZM198.116 605.398L191.403 596.34L198.116 587.284V605.398ZM211.675 607.375L219.861 596.34L211.675 585.305V607.375ZM255.032 610.706L244.372 596.34L255.032 581.975V610.706ZM265.693 613.777L278.651 596.34L265.693 578.903V613.777ZM284.807 581.246L268.213 558.864L284.807 536.535V581.246ZM290.828 512.175L311.77 483.964L290.828 455.7V512.175ZM314.246 475.531L292.724 446.487L314.246 417.495V475.531ZM291.319 435.297L310.79 409.063L291.319 382.83V435.297ZM252.958 302.673L248.497 296.687L252.958 290.65V302.673ZM214.218 297.468L214.798 296.687L214.218 295.907V297.468ZM187.143 334.11L186.34 335.203V333.07L187.143 334.11ZM165.041 409.062L169.59 415.152V402.92L165.041 409.062ZM162.498 446.488L156.967 453.931V439.045L162.498 446.488ZM164.193 483.963L170.014 491.823V476.104L164.193 483.963ZM191.179 558.864L184.332 568.129V549.651L191.179 558.864ZM185.359 638.813L189.106 633.816L185.359 628.768V638.813ZM225.816 642.405L219.393 633.817L225.816 625.124V642.405ZM239.755 643.706L247.115 633.817L239.755 623.876V643.706ZM283.179 649.535L271.492 633.816L283.179 618.045V649.535ZM291.408 584.732L310.611 558.864L291.408 532.994V584.732ZM314.246 550.381L292.746 521.44L314.246 492.501V550.381ZM318.149 476.625L340.517 446.487L318.149 416.35V476.625ZM312.819 394.801L295.579 371.587L312.819 348.372V394.801ZM293.483 351.6L306.463 334.111L293.483 316.622V351.6ZM241.584 261.762L243.48 259.21L241.584 256.66V261.762ZM223.876 260.042L223.274 259.21L223.876 258.377V260.042ZM167.717 334.111L168.252 334.84V333.382L167.717 334.111ZM160.313 371.588L158.06 374.658V368.516L160.313 371.588ZM137.184 446.487L141.823 452.733V440.241L137.184 446.487ZM161.695 521.44L157.369 527.27V515.559L161.695 521.44ZM165.286 558.864L169.479 564.537V553.242L165.286 558.864ZM196.621 674.259L194.369 671.24L196.621 668.221V674.259ZM213.371 675.456L216.515 671.24L213.371 667.024V675.456ZM253.137 677.954L248.163 671.24L253.137 664.526V677.954ZM267.656 680.765L274.726 671.24L267.656 661.715V680.765ZM307.912 633.817L292.746 654.22V613.361L307.912 633.817ZM294.374 596.339L313.421 622.001V570.679L294.374 596.339ZM340.674 521.44L318.083 551.89V490.939L340.674 521.44ZM319.621 483.964L342.504 514.778V453.15L319.621 483.964ZM342.146 438.471L320.313 409.063L342.146 379.602V438.471ZM319.487 396.362L337.864 371.586L319.487 346.81V396.362ZM310.187 309.231L300.864 296.687L310.187 284.091V309.231ZM250.55 221.735L251.955 223.66V219.861L250.55 221.735ZM140.931 374.241L138.969 371.586L140.931 368.932V374.241ZM129.869 413.696L133.304 409.062L129.869 404.43V413.696ZM133.304 483.964L129.869 488.596V479.331L133.304 483.964ZM138.389 521.44L141.221 525.239V517.587L138.389 521.44ZM159.911 596.339L158.26 598.578V594.101L159.911 596.339ZM167.07 633.815L168.587 635.846V631.786L167.07 633.815ZM224.031 710.121L222.961 708.716L224.031 707.258V710.121ZM241.606 711.163L243.413 708.717L241.606 706.27V711.163ZM281.238 716.68L275.328 708.717L281.238 700.753V716.68ZM294.731 721.209L303.987 708.717L294.731 696.224V721.209ZM311.793 690.291L297.653 671.241L311.793 652.191V690.291ZM318.372 625.592L340.072 596.339L318.372 567.088V625.592ZM342.436 589.469L319.733 558.864L342.436 528.259V589.469ZM345.762 514.934L368.733 483.964L345.762 452.994V514.934ZM370.403 477.769L347.211 446.487L370.403 415.205V477.769ZM345.963 439.149L368.308 409.064L345.963 378.927V439.149ZM340.072 355.138L324.484 334.11L340.072 313.134V355.138ZM322.052 311L332.712 296.686L322.052 282.321V311ZM279.9 186.86L278.004 184.31L279.9 181.759V186.86ZM242.052 184.934L242.521 184.311L242.052 183.686V184.934ZM131.631 558.864L130.717 560.113V557.667L131.631 558.864ZM251.063 746.141L251.687 747.026V745.36L251.063 746.141ZM271.648 746.141L269.194 749.471V742.861L271.648 746.141ZM301.868 746.141L309.674 756.707V735.627L301.868 746.141ZM337.62 671.241L319.599 695.548V646.985L337.62 671.241ZM320.201 633.817L342.214 663.433V604.148L320.201 633.817ZM368.91 558.864L345.65 590.199V527.582L368.91 558.864ZM347.119 521.439L370.451 552.826V490L347.119 521.439ZM396.922 446.487L373.349 478.289V414.736L396.922 446.487ZM349.037 371.588L369.492 399.122V344.053L349.037 371.588ZM364.716 334.111L347.769 356.961V311.313L364.716 334.111ZM329.947 259.21L337.351 269.204V249.269L329.947 259.21ZM328.923 221.735L323.947 228.449V215.02L328.923 221.735ZM278.049 783.62L279.9 786.113V781.12L278.049 783.62ZM300.352 783.62L296.538 788.772V778.461L300.352 783.62ZM322.074 760.455L332.668 746.141L322.074 731.88V760.455ZM340.34 730.785L323.947 708.716L340.34 686.595V730.785ZM345.493 665.776L369.243 633.817L345.493 601.806V665.776ZM370.696 628.768L346.629 596.34L370.696 563.914V628.768ZM373.461 552.722L396.677 521.44L373.461 490.157V552.722ZM398.262 515.454L374.889 483.963L398.262 452.473V515.454ZM374.665 409.063L398.371 440.97V377.104L374.665 409.063ZM395.517 371.588L374.063 400.476V342.699L395.517 371.588ZM353.166 296.687L367.437 315.893V277.428L353.166 296.687ZM359.567 259.21L350.333 271.65V246.77L359.567 259.21ZM307.89 824.372L305.459 821.094L307.89 817.815V824.372ZM324.416 825.88L327.984 821.094L324.416 816.252V825.88ZM337.395 793.82L329.834 783.62L337.395 773.413V793.82ZM347.275 733.492L365.676 708.717L347.275 683.889V733.492ZM370.182 701.533L347.677 671.24L370.182 640.946V701.533ZM373.28 628.351L397.058 596.339L373.28 564.329V628.351ZM398.126 589.834L375.178 558.864L398.126 527.946V589.834ZM401.115 515.871L424.801 483.964L401.115 452.057V515.871ZM426.43 479.487L401.962 446.487L426.43 413.539V479.487ZM400.915 441.803L425.202 409.063L400.915 376.324V441.803ZM396.99 360.396L377.474 334.11L396.99 307.825V360.396ZM376.001 317.715L391.636 296.687L376.001 275.606V317.715ZM365.23 232.092L357.557 221.735L365.23 211.428V232.092ZM335.3 860.29L334.008 858.567L335.3 856.797V860.29ZM350.646 794.757L358.917 783.612L350.646 772.476V794.757ZM367.281 764.723L353.476 746.141L367.281 727.611V764.723ZM373.774 701.325L396.075 671.24L373.774 641.207V701.325ZM398.282 665.358L374.865 633.816L398.282 602.221V665.358ZM401.561 588.95L423.91 558.864L401.561 528.779V588.95ZM426.005 552.618L402.833 521.44L426.005 490.209V552.618ZM428.658 479.383L453.081 446.487L428.658 413.592V479.383ZM425.804 402.036L403.19 371.587L425.804 341.086V402.036ZM402.343 361.125L422.369 334.111L402.343 307.149V361.125ZM394.402 275.086L382.603 259.21L394.402 243.335V275.086ZM378.457 232.873L386.708 221.734L378.457 210.647V232.873ZM354.17 858.567L353.03 860.075V857.011L354.17 858.567ZM359.945 821.094L364.05 826.61V815.522L359.945 821.094ZM390.521 746.141L376.539 764.983V727.298L390.521 746.141ZM378.056 708.717L396.677 733.805V683.628L378.056 708.717ZM423.573 633.817L401.717 663.225V604.356L423.573 633.817ZM403.904 596.34L425.471 625.384V567.243L403.904 596.34ZM452.19 521.44L429.127 552.514V490.366L452.19 521.44ZM430.287 483.964L453.973 515.871V452.057L430.287 483.964ZM453.973 440.918L430.311 409.063L453.973 377.156V440.918ZM429.372 401.673L451.677 371.588L429.372 341.502V401.673ZM423.753 318.86L407.316 296.687L423.753 274.513V318.86ZM405.04 275.242L416.927 259.21L405.04 243.179V275.242ZM392.419 192.169L386.596 184.31L392.419 176.45V192.169ZM379.906 826.348L383.831 821.094L379.906 815.784V826.348ZM393.198 794.654L385.035 783.62L393.198 772.635V794.654ZM403.435 731.255L420.162 708.717L403.435 686.179V731.255ZM424.512 696.486L405.799 671.241L424.512 646.049V696.486ZM430.066 623.563L450.272 596.341L430.066 569.118V623.563ZM453.17 587.596L431.872 558.864L453.17 530.133V587.596ZM457.095 514.361L479.644 483.963L457.095 453.566V514.361ZM480.916 474.907L459.816 446.487L480.916 418.068V474.907ZM457.476 437.9L478.886 409.063L457.476 380.228V437.9ZM452.612 360.553L432.988 334.111L452.612 307.669V360.553ZM431.379 318.6L447.66 296.687L431.379 274.722V318.6ZM420.743 231.727L413.36 221.734L420.743 211.792V231.727ZM407.493 190.399L412.023 184.31L407.493 178.22V190.399ZM390.657 859.25L390.143 858.567L390.657 857.845V859.25ZM406.625 793.249L413.761 783.62L406.625 774.04V793.249ZM421.968 761.131L410.863 746.141L421.968 731.202V761.131ZM431.559 692.425L447.306 671.24L431.559 650.055V692.425ZM451.854 657.187L434.504 633.816L451.854 610.394V657.187ZM457.833 586.243L478.127 558.864L457.833 531.539V586.243ZM481.073 550.536L459.459 521.44L481.073 492.292V550.536ZM486.202 471.627L504.847 446.487L486.202 421.399V471.627ZM480.001 396.362L461.622 371.586L480.001 346.81V396.362ZM458.499 358.783L476.791 334.111L458.499 309.491V358.783ZM449.915 274.721L438.405 259.21L449.915 243.7V274.721ZM434.569 230.791L441.283 221.735L434.569 212.73V230.791ZM419.203 824.785L416.438 821.094L419.203 817.347V824.785ZM434.035 757.383L442.354 746.141L434.035 734.95V757.383ZM449.602 722.978L439.031 708.717L449.602 694.454V722.978ZM459.659 653.803L474.515 633.816L459.659 613.776V653.803ZM479.556 619.346L462.492 596.339L479.556 573.333V619.346ZM485.464 549.443L506.272 521.44L485.464 493.385V549.443ZM508.258 510.562L488.521 483.964L508.258 457.367V510.562ZM491.756 409.063L506.629 429.102V389.024L491.756 409.063ZM502.126 371.588L487.562 391.211V351.965L502.126 371.588ZM464.033 296.686L478.797 316.57V276.803L464.033 296.686ZM472.084 259.21L460.867 274.304V244.115L472.084 259.21ZM444.337 184.31L446.949 187.797V180.823L444.337 184.31ZM437.848 821.094L436.287 823.173V819.014L437.848 821.094ZM443.847 783.62L447.194 788.145V779.144L443.847 783.62ZM469.407 708.717L462.203 718.398V698.983L469.407 708.717ZM467.444 671.24L477.1 684.253V658.28L467.444 671.24ZM502.792 596.34L487.205 617.368V575.312L502.792 596.34ZM489.3 558.864L507.857 583.848V533.88L489.3 558.864ZM533.015 483.964L513.812 509.832V458.094L533.015 483.964ZM518.516 446.487L534.954 468.661V424.366L518.516 446.487ZM528.576 409.064L516.019 425.981V392.147L528.576 409.064ZM493.919 334.11L505.561 349.777V318.443L493.919 334.11ZM500.364 296.686L488.429 312.718V280.603L500.364 296.686ZM469.631 221.734L475.985 230.322V213.198L469.631 221.734ZM466.128 184.311L463.853 187.382V181.187L466.128 184.311ZM464.234 785.176L465.37 783.62L464.234 782.104V785.176ZM474.736 749.68L472.128 746.141L474.736 742.653V749.68ZM489.991 680.974L497.218 671.241L489.991 661.507V680.974ZM505.18 647.974L494.654 633.817L505.18 619.607V647.974ZM514.282 582.807L532.056 558.864L514.282 534.921V582.807ZM536.113 548.246L516.196 521.44L536.113 494.634V548.246ZM542.47 468.869L559.085 446.487L542.47 424.106V468.869ZM532.1 382.257L524.206 371.588L532.1 360.917V382.257ZM517.737 344.157L525.165 334.111L517.737 324.118V344.157ZM504.289 269.777L496.439 259.21L504.289 248.645V269.777ZM490.504 229.438L496.215 221.735L490.504 214.031V229.438ZM493.024 746.141L492.109 747.391V744.944L493.024 746.141ZM499.782 708.717L502.616 712.568V704.864L499.782 708.717ZM525.968 633.817L517.312 645.424V622.157L525.968 633.817ZM520.972 596.34L533.729 613.517V579.164L520.972 596.34ZM561.115 521.44L541.446 547.934V494.894L561.115 521.44ZM545.817 380.436L552.395 371.587L545.817 362.738V380.436ZM530.784 301.996L526.859 296.687L530.784 291.377V301.996ZM518.696 265.3L523.223 259.21L518.696 253.12V265.3ZM502.282 186.808L500.429 184.31L502.282 181.811V186.808ZM519.655 710.903L521.305 708.717L519.655 706.478V710.903ZM530.76 676.446L526.903 671.24L530.76 666.035V676.446ZM544.212 611.695L555.605 596.34L544.212 580.986V611.695ZM548.738 296.686L547.647 298.143V295.177L548.738 296.686ZM528.243 221.734L530.093 224.232V219.287L528.243 221.734ZM520.927 184.31L519.856 185.715V182.852L520.927 184.31ZM547.065 675.092L549.898 671.24L547.065 667.44V675.092Z" fill="#007EC9"/>
</g>
</g>
<path d="M73.4554 129.446L73.7605 129.385L73.8401 129.084C82.9227 94.7339 111.129 69.751 144.466 69.751C151.968 69.751 159.218 71.0173 166.053 73.3761C174.142 76.168 181.979 80.4138 188.241 86.001C191.39 88.8095 193.765 91.2048 195.353 92.8962C196.146 93.7418 196.743 94.4114 197.14 94.8685C197.338 95.097 197.487 95.2724 197.586 95.3902C197.635 95.449 197.672 95.4935 197.696 95.523L197.723 95.5558L197.73 95.5637L197.731 95.5655L197.731 95.5658L197.928 95.8091L198.233 95.7383L198.313 95.7198C201.069 95.2491 203.888 95.0057 206.754 95.0057C210.402 95.0057 213.968 95.3993 217.421 96.1498L207.627 108.161C207.337 108.155 207.046 108.152 206.754 108.152C203.448 108.152 200.232 108.557 197.142 109.323C196.028 109.598 194.887 109.935 193.798 110.306C190.851 106.081 188.62 103.388 184.557 99.3752L184.549 99.3678L184.541 99.3606L184.205 99.731C184.541 99.3606 184.541 99.3606 184.541 99.3605L184.541 99.3603L184.54 99.3595L184.537 99.3566L184.524 99.3453L184.476 99.3016C184.433 99.2633 184.371 99.207 184.289 99.1346C184.127 98.9897 183.89 98.7803 183.593 98.521C182.999 98.0025 182.162 97.2845 181.191 96.4856C179.254 94.8919 176.764 92.9609 174.596 91.6556C170.301 89.0695 166.877 87.3968 162.705 85.9566L162.542 86.4292L162.705 85.9566C156.945 83.9691 150.823 82.8969 144.466 82.8969C114.996 82.8969 90.3606 105.985 83.9515 136.894L82.9705 141.625L78.7105 141.944C63.4333 143.092 51.4087 157.281 51.1812 174.597H39.6303C39.8419 151.964 54.4032 133.281 73.4554 129.446Z" fill="#007EC9" stroke="black"/>
<path d="M221.215 164.164L221.224 164.144L221.231 164.122C221.886 162.095 221.971 159.706 221.439 157.619C227.788 154.408 233.711 150.211 238.865 145.054C239.605 146.729 240.478 149.408 240.27 152.558C240.034 156.129 238.408 160.362 233.5 164.474L233.498 164.476C227.332 169.698 223.049 172.023 220.235 172.794C218.831 173.18 217.829 173.167 217.151 172.971C216.491 172.779 216.13 172.412 215.961 172.024C215.722 171.401 215.781 170.923 216.011 170.47C216.261 169.978 216.721 169.498 217.34 168.923C217.475 168.797 217.617 168.668 217.763 168.535C218.918 167.484 220.36 166.172 221.215 164.164ZM196.323 127.608L196.324 127.607C199.32 121.483 202.884 119.14 205.985 118.45C208.783 117.827 211.295 118.529 212.819 119.184C208.867 125.786 206.047 132.912 204.086 140.483C202.034 140.188 200.02 140.497 198.221 141.407L198.175 141.431L198.135 141.463C196.576 142.71 195.635 144.445 194.875 145.845C194.757 146.062 194.644 146.271 194.533 146.469C194.105 147.236 193.736 147.805 193.337 148.139C193.147 148.299 192.962 148.393 192.773 148.433C192.586 148.473 192.364 148.467 192.083 148.379C191.756 148.257 191.37 147.916 191.096 147.161C190.818 146.397 190.67 145.247 190.817 143.607C191.113 140.327 192.579 135.208 196.323 127.608ZM204.318 160.325L204.318 160.324C204.196 160.205 204.086 159.955 204.098 159.473C204.109 159.001 204.238 158.387 204.493 157.65C204.959 156.305 205.817 154.634 206.997 152.835L210.463 156.239C209.06 157.886 207.685 159.098 206.545 159.797C205.933 160.172 205.418 160.381 205.022 160.448C204.628 160.514 204.426 160.431 204.318 160.325ZM215.202 120.025L215.211 120.011L215.219 119.997L215.219 119.997L215.219 119.997L215.22 119.994L215.227 119.982L215.254 119.933C215.278 119.888 215.315 119.822 215.364 119.735C215.462 119.561 215.61 119.304 215.806 118.979C216.199 118.329 216.786 117.405 217.558 116.313C219.103 114.127 221.386 111.278 224.34 108.614C230.227 103.306 238.718 98.7829 249.34 101.612L249.373 101.644C253.301 113.148 250.462 123.316 246.611 130.641C244.679 134.316 242.496 137.267 240.796 139.299C239.947 140.315 239.219 141.1 238.704 141.629C238.447 141.894 238.244 142.095 238.105 142.229C238.036 142.296 237.983 142.347 237.948 142.38L237.908 142.417L237.899 142.425L237.897 142.427L237.897 142.427L237.897 142.427L237.885 142.438L237.874 142.45C231.37 149.214 223.704 154.218 215.242 157.226L205.294 147.457C206.876 137.631 210.134 128.239 215.202 120.025ZM228.272 128.897L228.272 128.897C229.761 130.358 232.086 130.168 233.368 128.508C234.623 126.884 234.476 124.37 233.023 122.943L233.023 122.943C231.535 121.481 229.209 121.673 227.928 123.331C226.672 124.956 226.819 127.47 228.272 128.897ZM236.083 118.551L236.083 118.551C238.522 120.945 242.231 120.648 244.342 117.917C246.426 115.22 246.183 111.146 243.779 108.786C241.34 106.39 237.631 106.689 235.521 109.42C233.436 112.116 233.679 116.19 236.083 118.551Z" fill="#1D3756" stroke="black"/>
<path opacity="0.5" d="M160.993 98.3639C146.82 100.038 138.176 101.565 130.287 105.16C122.299 108.799 115.114 114.544 103.734 124.609C103.819 124.2 103.931 123.708 104.079 123.148C104.546 121.371 105.362 118.899 106.757 116.127C109.545 110.588 114.646 103.852 123.906 99.082C133.15 94.3207 142.852 94.3135 150.269 95.5105C153.975 96.1086 157.101 97.0059 159.299 97.7532C159.948 97.9738 160.515 98.1812 160.993 98.3639Z" fill="#007EC9" stroke="black"/>
<path opacity="0.5" d="M98.0521 161.393C91.7775 157.481 86.6403 155.346 81.4191 155.051C76.1571 154.754 70.8795 156.33 64.3424 159.695C64.4172 159.541 64.5005 159.375 64.5926 159.2C65.1524 158.136 66.0384 156.716 67.341 155.297C69.9381 152.467 74.1997 149.628 80.8911 149.628C87.5565 149.628 91.9843 152.912 94.7626 156.217C96.1535 157.872 97.1267 159.529 97.752 160.773C97.8629 160.994 97.9629 161.201 98.0521 161.393Z" fill="#007EC9" stroke="black"/>
<path d="M102.277 143.688C105.983 149.097 108.488 155.478 109.424 161.495C106.844 156.547 103.673 151.981 99.5349 148.493C94.8276 144.524 88.8901 141.97 81.2085 141.814L85.6724 131.033C92.3463 132.707 98.0685 137.546 102.277 143.688Z" fill="#007EC9" stroke="black"/>
<path d="M251.247 157.98C251.247 152.984 250.598 148.167 249.395 143.626L258.386 133.356C258.796 134.447 259.178 135.554 259.534 136.676C261.648 143.341 262.797 150.516 262.797 157.98C262.797 192.772 237.922 220.908 207.255 221.211V208.064C231.65 207.762 251.247 185.398 251.247 157.98Z" fill="#007EC9" stroke="black"/>
<path d="M191.824 198.334C194.497 205.023 200.983 207.646 206.255 208.057V221.207C198.576 221.023 188.514 216.641 184.664 207.642C181.002 199.08 182.867 186.087 198.282 168.129C190.238 182.464 189.328 192.085 191.824 198.334Z" fill="#007EC9" stroke="black"/>
<mask id="path-11-inside-1_439_97" fill="white">
<path d="M27.6581 200.339H16.8994V212.865H11.2959V182.211H29.0032V187.328H16.8994V195.244H27.6581V200.339ZM40.7892 213.287C37.8256 213.287 35.4095 212.262 33.5421 210.213C31.687 208.164 30.7586 205.434 30.7586 202.023V201.434C30.7586 199.146 31.1511 197.104 31.9359 195.307C32.72 193.496 33.8284 192.107 35.2603 191.139C36.7051 190.156 38.3486 189.664 40.1916 189.664C42.9557 189.664 45.1287 190.647 46.7105 192.612C48.3038 194.577 49.1008 197.363 49.1008 200.971V203.455H36.2316C36.4059 204.942 36.9289 206.135 37.8005 207.034C38.6851 207.932 39.7992 208.382 41.1443 208.382C43.2233 208.382 44.8489 207.532 46.019 205.834L48.6711 209.181C47.8619 210.473 46.7665 211.483 45.3841 212.213C44.0016 212.929 42.47 213.287 40.7892 213.287ZM40.1729 194.591C39.1019 194.591 38.2302 194.998 37.5581 195.812C36.8981 196.627 36.4748 197.791 36.2876 199.307H43.7965V198.823C43.7714 197.476 43.4478 196.437 42.8251 195.707C42.2024 194.963 41.3186 194.591 40.1729 194.591ZM63.539 195.791C62.8044 195.679 62.1573 195.623 61.597 195.623C59.5546 195.623 58.216 196.402 57.5811 197.96V212.865H52.1827V190.086H57.2819L57.4312 192.802C58.5151 190.71 60.0152 189.664 61.9328 189.664C62.5304 189.664 63.0906 189.756 63.6136 189.939L63.539 195.791ZM64.9401 201.307C64.9401 197.756 65.6438 194.928 67.0506 192.823C68.4703 190.717 70.4066 189.664 72.86 189.664C74.8271 189.664 76.452 190.492 77.7347 192.149V180.527H83.1517V212.865H78.2763L78.0152 210.444C76.6701 212.34 74.939 213.287 72.822 213.287C70.4439 213.287 68.5328 212.234 67.0879 210.129C65.656 208.01 64.9401 205.069 64.9401 201.307ZM70.3384 201.749C70.3384 203.883 70.6684 205.518 71.3284 206.655C71.9877 207.792 72.9468 208.361 74.2044 208.361C75.8731 208.361 77.0496 207.567 77.7347 205.982V196.991C77.0625 195.406 75.8982 194.612 74.2417 194.612C71.639 194.612 70.3384 196.991 70.3384 201.749ZM86.4947 201.265C86.4947 199.006 86.8807 196.991 87.6526 195.223C88.4252 193.454 89.5329 192.086 90.9777 191.118C92.4347 190.149 94.122 189.664 96.0396 189.664C98.7664 189.664 100.989 190.605 102.708 192.486C104.438 194.367 105.404 196.921 105.602 200.149L105.64 201.707C105.64 205.202 104.775 208.01 103.043 210.129C101.313 212.234 98.9902 213.287 96.0769 213.287C93.1629 213.287 90.8342 212.234 89.091 210.129C87.3599 208.023 86.4947 205.16 86.4947 201.539V201.265ZM91.8931 201.707C91.8931 203.869 92.2539 205.525 92.9763 206.676C93.698 207.813 94.7318 208.382 96.0769 208.382C97.384 208.382 98.4055 207.82 99.1401 206.697C99.8747 205.56 100.242 203.75 100.242 201.265C100.242 199.146 99.8747 197.504 99.1401 196.339C98.4055 195.174 97.3718 194.591 96.0396 194.591C94.7196 194.591 93.698 195.174 92.9763 196.339C92.2539 197.489 91.8931 199.279 91.8931 201.707ZM126.541 204.592L129.193 190.086H134.405L129.25 212.865H124.729L120.9 198.529L117.071 212.865H112.57L107.415 190.086H112.626L115.259 204.571L118.957 190.086H122.861L126.541 204.592ZM148.04 206.571C148.04 205.827 147.71 205.244 147.05 204.824C146.402 204.388 145.356 204.002 143.912 203.666C139.105 202.529 136.702 200.227 136.702 196.76C136.702 194.739 137.443 193.054 138.924 191.707C140.419 190.345 142.368 189.664 144.771 189.664C147.336 189.664 149.385 190.345 150.916 191.707C152.46 193.069 153.232 194.837 153.232 197.012H147.834C147.834 196.142 147.585 195.427 147.087 194.865C146.589 194.29 145.811 194.002 144.752 194.002C143.844 194.002 143.14 194.233 142.642 194.697C142.143 195.16 141.894 195.749 141.894 196.465C141.894 197.139 142.175 197.686 142.735 198.107C143.308 198.514 144.267 198.872 145.611 199.181C146.956 199.475 148.09 199.813 149.011 200.192C151.862 201.371 153.288 203.413 153.288 206.318C153.288 208.395 152.497 210.08 150.916 211.371C149.334 212.648 147.293 213.287 144.79 213.287C143.096 213.287 141.589 212.95 140.269 212.276C138.962 211.589 137.934 210.655 137.188 209.476C136.441 208.283 136.067 206.999 136.067 205.623H141.185C141.234 206.704 141.589 207.532 142.249 208.107C142.909 208.683 143.793 208.971 144.902 208.971C145.935 208.971 146.714 208.753 147.237 208.318C147.772 207.869 148.04 207.287 148.04 206.571ZM162.478 212.865H157.061V190.086H162.478V212.865ZM156.744 184.191C156.744 183.279 157.011 182.528 157.547 181.938C158.094 181.349 158.835 181.054 159.77 181.054C160.691 181.054 161.426 181.349 161.973 181.938C162.521 182.528 162.795 183.279 162.795 184.191C162.795 185.117 162.515 185.875 161.955 186.465C161.407 187.054 160.678 187.349 159.77 187.349C158.861 187.349 158.126 187.054 157.566 186.465C157.018 185.875 156.744 185.117 156.744 184.191Z"/>
</mask>
<path d="M27.6581 200.339H16.8994V212.865H11.2959V182.211H29.0032V187.328H16.8994V195.244H27.6581V200.339ZM40.7892 213.287C37.8256 213.287 35.4095 212.262 33.5421 210.213C31.687 208.164 30.7586 205.434 30.7586 202.023V201.434C30.7586 199.146 31.1511 197.104 31.9359 195.307C32.72 193.496 33.8284 192.107 35.2603 191.139C36.7051 190.156 38.3486 189.664 40.1916 189.664C42.9557 189.664 45.1287 190.647 46.7105 192.612C48.3038 194.577 49.1008 197.363 49.1008 200.971V203.455H36.2316C36.4059 204.942 36.9289 206.135 37.8005 207.034C38.6851 207.932 39.7992 208.382 41.1443 208.382C43.2233 208.382 44.8489 207.532 46.019 205.834L48.6711 209.181C47.8619 210.473 46.7665 211.483 45.3841 212.213C44.0016 212.929 42.47 213.287 40.7892 213.287ZM40.1729 194.591C39.1019 194.591 38.2302 194.998 37.5581 195.812C36.8981 196.627 36.4748 197.791 36.2876 199.307H43.7965V198.823C43.7714 197.476 43.4478 196.437 42.8251 195.707C42.2024 194.963 41.3186 194.591 40.1729 194.591ZM63.539 195.791C62.8044 195.679 62.1573 195.623 61.597 195.623C59.5546 195.623 58.216 196.402 57.5811 197.96V212.865H52.1827V190.086H57.2819L57.4312 192.802C58.5151 190.71 60.0152 189.664 61.9328 189.664C62.5304 189.664 63.0906 189.756 63.6136 189.939L63.539 195.791ZM64.9401 201.307C64.9401 197.756 65.6438 194.928 67.0506 192.823C68.4703 190.717 70.4066 189.664 72.86 189.664C74.8271 189.664 76.452 190.492 77.7347 192.149V180.527H83.1517V212.865H78.2763L78.0152 210.444C76.6701 212.34 74.939 213.287 72.822 213.287C70.4439 213.287 68.5328 212.234 67.0879 210.129C65.656 208.01 64.9401 205.069 64.9401 201.307ZM70.3384 201.749C70.3384 203.883 70.6684 205.518 71.3284 206.655C71.9877 207.792 72.9468 208.361 74.2044 208.361C75.8731 208.361 77.0496 207.567 77.7347 205.982V196.991C77.0625 195.406 75.8982 194.612 74.2417 194.612C71.639 194.612 70.3384 196.991 70.3384 201.749ZM86.4947 201.265C86.4947 199.006 86.8807 196.991 87.6526 195.223C88.4252 193.454 89.5329 192.086 90.9777 191.118C92.4347 190.149 94.122 189.664 96.0396 189.664C98.7664 189.664 100.989 190.605 102.708 192.486C104.438 194.367 105.404 196.921 105.602 200.149L105.64 201.707C105.64 205.202 104.775 208.01 103.043 210.129C101.313 212.234 98.9902 213.287 96.0769 213.287C93.1629 213.287 90.8342 212.234 89.091 210.129C87.3599 208.023 86.4947 205.16 86.4947 201.539V201.265ZM91.8931 201.707C91.8931 203.869 92.2539 205.525 92.9763 206.676C93.698 207.813 94.7318 208.382 96.0769 208.382C97.384 208.382 98.4055 207.82 99.1401 206.697C99.8747 205.56 100.242 203.75 100.242 201.265C100.242 199.146 99.8747 197.504 99.1401 196.339C98.4055 195.174 97.3718 194.591 96.0396 194.591C94.7196 194.591 93.698 195.174 92.9763 196.339C92.2539 197.489 91.8931 199.279 91.8931 201.707ZM126.541 204.592L129.193 190.086H134.405L129.25 212.865H124.729L120.9 198.529L117.071 212.865H112.57L107.415 190.086H112.626L115.259 204.571L118.957 190.086H122.861L126.541 204.592ZM148.04 206.571C148.04 205.827 147.71 205.244 147.05 204.824C146.402 204.388 145.356 204.002 143.912 203.666C139.105 202.529 136.702 200.227 136.702 196.76C136.702 194.739 137.443 193.054 138.924 191.707C140.419 190.345 142.368 189.664 144.771 189.664C147.336 189.664 149.385 190.345 150.916 191.707C152.46 193.069 153.232 194.837 153.232 197.012H147.834C147.834 196.142 147.585 195.427 147.087 194.865C146.589 194.29 145.811 194.002 144.752 194.002C143.844 194.002 143.14 194.233 142.642 194.697C142.143 195.16 141.894 195.749 141.894 196.465C141.894 197.139 142.175 197.686 142.735 198.107C143.308 198.514 144.267 198.872 145.611 199.181C146.956 199.475 148.09 199.813 149.011 200.192C151.862 201.371 153.288 203.413 153.288 206.318C153.288 208.395 152.497 210.08 150.916 211.371C149.334 212.648 147.293 213.287 144.79 213.287C143.096 213.287 141.589 212.95 140.269 212.276C138.962 211.589 137.934 210.655 137.188 209.476C136.441 208.283 136.067 206.999 136.067 205.623H141.185C141.234 206.704 141.589 207.532 142.249 208.107C142.909 208.683 143.793 208.971 144.902 208.971C145.935 208.971 146.714 208.753 147.237 208.318C147.772 207.869 148.04 207.287 148.04 206.571ZM162.478 212.865H157.061V190.086H162.478V212.865ZM156.744 184.191C156.744 183.279 157.011 182.528 157.547 181.938C158.094 181.349 158.835 181.054 159.77 181.054C160.691 181.054 161.426 181.349 161.973 181.938C162.521 182.528 162.795 183.279 162.795 184.191C162.795 185.117 162.515 185.875 161.955 186.465C161.407 187.054 160.678 187.349 159.77 187.349C158.861 187.349 158.126 187.054 157.566 186.465C157.018 185.875 156.744 185.117 156.744 184.191Z" fill="#212121" stroke="white" stroke-width="2" mask="url(#path-11-inside-1_439_97)"/>
<mask id="path-12-inside-2_439_97" fill="white">
<path d="M46.6786 231.646C45.2367 231.646 44.0967 231.098 43.2588 230.002C42.4209 228.907 42.002 227.414 42.002 225.524C42.002 223.63 42.418 222.134 43.2516 221.039C44.0896 219.942 45.2295 219.395 46.6714 219.395C47.8114 219.395 48.7806 219.772 49.5805 220.529C50.3854 221.279 50.8524 222.25 50.9815 223.444H49.3796C49.2261 222.726 48.9054 222.153 48.4168 221.727C47.9333 221.3 47.3515 221.087 46.6714 221.087C45.7417 221.087 45.0042 221.487 44.4583 222.286C43.9174 223.079 43.6469 224.158 43.6469 225.524C43.6469 226.885 43.9174 227.965 44.4583 228.763C45.0042 229.557 45.7446 229.954 46.6786 229.954C47.363 229.954 47.9477 229.76 48.4312 229.371C48.9197 228.982 49.2361 228.459 49.3796 227.8H50.9815C50.838 228.955 50.3732 229.887 49.5876 230.593C48.8021 231.295 47.8329 231.646 46.6786 231.646ZM52.9931 231.362V219.103H54.5376V231.362H52.9931ZM60.1627 229.986C60.8284 229.986 61.3435 229.722 61.7072 229.193C62.0759 228.658 62.2603 227.91 62.2603 226.95C62.2603 225.994 62.0759 225.252 61.7072 224.723C61.3435 224.188 60.8284 223.921 60.1627 223.921C59.4919 223.921 58.9746 224.186 58.6109 224.715C58.2472 225.244 58.065 225.988 58.065 226.95C58.065 227.916 58.2472 228.663 58.6109 229.193C58.9746 229.722 59.4919 229.986 60.1627 229.986ZM60.1627 231.533C59.0134 231.533 58.1102 231.125 57.4545 230.31C56.7981 229.495 56.4703 228.375 56.4703 226.95C56.4703 225.53 56.7981 224.412 57.4545 223.597C58.1152 222.782 59.0177 222.375 60.1627 222.375C61.3026 222.375 62.2007 222.782 62.8564 223.597C63.5172 224.412 63.8479 225.53 63.8479 226.95C63.8479 228.375 63.52 229.495 62.8636 230.31C62.2079 231.125 61.3076 231.533 60.1627 231.533ZM72.3037 222.544V231.362H70.8166V229.962H70.6939C70.2965 231.009 69.5088 231.533 68.3308 231.533C67.4685 231.533 66.8028 231.249 66.3336 230.682C65.8688 230.115 65.637 229.312 65.637 228.269V222.544H67.1816V227.816C67.1816 228.534 67.3129 229.066 67.5761 229.411C67.8444 229.752 68.2613 229.921 68.8266 229.921C69.4442 229.921 69.9206 229.727 70.2563 229.338C70.5913 228.945 70.7592 228.399 70.7592 227.703V222.544H72.3037ZM77.4044 231.509C76.4079 231.509 75.6174 231.098 75.0334 230.278C74.4487 229.457 74.1568 228.348 74.1568 226.95C74.1568 225.556 74.4487 224.45 75.0334 223.63C75.6224 222.809 76.4129 222.399 77.4044 222.399C77.9403 222.399 78.4216 222.536 78.8478 222.812C79.2746 223.081 79.5931 223.46 79.8033 223.946H79.9181V219.103H81.4626V231.362H79.9834V229.97H79.8607C79.6261 230.45 79.2911 230.829 78.8549 231.104C78.4245 231.374 77.9403 231.509 77.4044 231.509ZM77.842 223.962C77.1906 223.962 76.6784 224.229 76.3046 224.763C75.9359 225.292 75.7515 226.021 75.7515 226.95C75.7515 227.884 75.9359 228.618 76.3046 229.152C76.6784 229.681 77.1906 229.946 77.842 229.946C78.4934 229.946 79.0063 229.679 79.3793 229.144C79.7581 228.61 79.9475 227.88 79.9475 226.958C79.9475 226.04 79.7581 225.311 79.3793 224.771C79.0013 224.231 78.4891 223.962 77.842 223.962ZM92.2392 231.646C90.7973 231.646 89.6574 231.098 88.8195 230.002C87.9815 228.907 87.5619 227.414 87.5619 225.524C87.5619 223.63 87.9787 222.134 88.8123 221.039C89.6502 219.942 90.7901 219.395 92.2314 219.395C93.3713 219.395 94.3412 219.772 95.1411 220.529C95.946 221.279 96.413 222.25 96.5422 223.444H94.9402C94.7867 222.726 94.466 222.153 93.9775 221.727C93.494 221.3 92.9115 221.087 92.2314 221.087C91.3023 221.087 90.5649 221.487 90.0189 222.286C89.478 223.079 89.2076 224.158 89.2076 225.524C89.2076 226.885 89.478 227.965 90.0189 228.763C90.5649 229.557 91.3052 229.954 92.2392 229.954C92.9236 229.954 93.5083 229.76 93.9918 229.371C94.4804 228.982 94.796 228.459 94.9402 227.8H96.5422C96.3987 228.955 95.9338 229.887 95.1483 230.593C94.3627 231.295 93.3928 231.646 92.2392 231.646ZM101.786 229.986C102.452 229.986 102.967 229.722 103.331 229.193C103.7 228.658 103.884 227.91 103.884 226.95C103.884 225.994 103.7 225.252 103.331 224.723C102.967 224.188 102.452 223.921 101.786 223.921C101.116 223.921 100.598 224.186 100.235 224.715C99.8708 225.244 99.6886 225.988 99.6886 226.95C99.6886 227.916 99.8708 228.663 100.235 229.193C100.598 229.722 101.116 229.986 101.786 229.986ZM101.786 231.533C100.637 231.533 99.7338 231.125 99.0781 230.31C98.4217 229.495 98.0939 228.375 98.0939 226.95C98.0939 225.53 98.4217 224.412 99.0781 223.597C99.7388 222.782 100.642 222.375 101.786 222.375C102.926 222.375 103.824 222.782 104.48 223.597C105.141 224.412 105.471 225.53 105.471 226.95C105.471 228.375 105.144 229.495 104.487 230.31C103.832 231.125 102.931 231.533 101.786 231.533ZM107.332 231.362V222.544H108.82V223.962H108.934C109.106 223.46 109.382 223.071 109.761 222.796C110.144 222.514 110.594 222.375 111.111 222.375C111.633 222.375 112.079 222.514 112.447 222.796C112.816 223.076 113.089 223.465 113.267 223.962H113.389C113.589 223.476 113.901 223.089 114.323 222.804C114.749 222.518 115.23 222.375 115.766 222.375C116.557 222.375 117.169 222.631 117.605 223.144C118.046 223.656 118.266 224.372 118.266 225.29V231.362H116.722V225.743C116.722 224.561 116.217 223.97 115.206 223.97C114.713 223.97 114.313 224.145 114.006 224.496C113.704 224.847 113.554 225.287 113.554 225.816V231.362H112.038V225.573C112.038 225.076 111.901 224.685 111.628 224.399C111.356 224.113 110.989 223.97 110.529 223.97C110.06 223.97 109.667 224.162 109.351 224.545C109.035 224.928 108.877 225.403 108.877 225.97V231.362H107.332ZM124.494 222.399C125.491 222.399 126.281 222.809 126.865 223.63C127.45 224.445 127.742 225.552 127.742 226.95C127.742 228.348 127.45 229.457 126.865 230.278C126.286 231.098 125.5 231.509 124.509 231.509C123.954 231.509 123.465 231.379 123.044 231.12C122.622 230.855 122.309 230.491 122.103 230.027H121.981V234.294H120.436V222.544H121.923V224.002H122.038C122.273 223.5 122.608 223.109 123.044 222.828C123.479 222.542 123.963 222.399 124.494 222.399ZM124.057 229.946C124.713 229.946 125.225 229.681 125.594 229.152C125.967 228.618 126.155 227.884 126.155 226.95C126.155 226.016 125.967 225.284 125.594 224.755C125.225 224.226 124.715 223.962 124.064 223.962C123.413 223.962 122.898 224.231 122.52 224.771C122.141 225.306 121.951 226.034 121.951 226.958C121.951 227.876 122.141 228.604 122.52 229.144C122.898 229.679 123.41 229.946 124.057 229.946ZM136.197 222.544V231.362H134.71V229.962H134.588C134.191 231.009 133.403 231.533 132.225 231.533C131.363 231.533 130.697 231.249 130.228 230.682C129.763 230.115 129.531 229.312 129.531 228.269V222.544H131.075V227.816C131.075 228.534 131.207 229.066 131.47 229.411C131.739 229.752 132.155 229.921 132.72 229.921C133.338 229.921 133.815 229.727 134.15 229.338C134.486 228.945 134.653 228.399 134.653 227.703V222.544H136.197ZM138.985 220.35H140.53V222.585H142.225V224.051H140.53V228.586C140.53 229.044 140.618 229.381 140.795 229.597C140.972 229.808 141.253 229.913 141.636 229.913C141.789 229.913 141.985 229.9 142.225 229.873V231.322C141.918 231.382 141.638 231.412 141.384 231.412C140.527 231.412 139.912 231.228 139.538 230.861C139.169 230.494 138.985 229.883 138.985 229.03V224.051H137.742V222.585H138.985V220.35ZM144.071 231.362V222.544H145.609V231.362H144.071ZM145.551 220.698C145.364 220.898 145.127 220.998 144.84 220.998C144.553 220.998 144.313 220.898 144.122 220.698C143.934 220.493 143.841 220.24 143.841 219.937C143.841 219.635 143.934 219.381 144.122 219.176C144.313 218.971 144.553 218.868 144.84 218.868C145.127 218.868 145.364 218.971 145.551 219.176C145.743 219.381 145.838 219.635 145.838 219.937C145.838 220.24 145.743 220.493 145.551 220.698ZM147.878 231.362V222.544H149.366V223.946H149.48C149.888 222.898 150.666 222.375 151.816 222.375C152.687 222.375 153.355 222.658 153.82 223.224C154.289 223.791 154.524 224.602 154.524 225.654V231.362H152.979V226.091C152.979 224.677 152.417 223.97 151.291 223.97C150.721 223.97 150.266 224.172 149.926 224.577C149.591 224.977 149.423 225.519 149.423 226.205V231.362H147.878ZM162.096 226.845C162.096 225.964 161.906 225.265 161.528 224.747C161.149 224.223 160.632 223.962 159.977 223.962C159.32 223.962 158.81 224.221 158.446 224.739C158.082 225.252 157.9 225.954 157.9 226.845C157.9 227.735 158.082 228.439 158.446 228.958C158.81 229.471 159.32 229.727 159.977 229.727C160.632 229.727 161.149 229.468 161.528 228.949C161.906 228.431 162.096 227.729 162.096 226.845ZM159.998 234.731C159.03 234.731 158.245 234.505 157.641 234.051C157.038 233.603 156.696 233.001 156.614 232.245H158.195C158.262 232.57 158.454 232.826 158.769 233.014C159.091 233.204 159.507 233.298 160.02 233.298C160.661 233.298 161.162 233.133 161.521 232.804C161.885 232.48 162.067 232.027 162.067 231.444V229.752H161.952C161.717 230.226 161.391 230.593 160.975 230.853C160.558 231.106 160.079 231.233 159.538 231.233C158.547 231.233 157.759 230.837 157.174 230.043C156.595 229.244 156.305 228.18 156.305 226.853C156.305 225.503 156.598 224.423 157.182 223.613C157.766 222.804 158.556 222.399 159.553 222.399C160.089 222.399 160.577 222.54 161.018 222.82C161.459 223.095 161.789 223.473 162.01 223.954H162.132V222.544H163.612V231.436C163.612 232.445 163.286 233.246 162.634 233.841C161.983 234.434 161.104 234.731 159.998 234.731Z"/>
</mask>
<path d="M46.6786 231.646C45.2367 231.646 44.0967 231.098 43.2588 230.002C42.4209 228.907 42.002 227.414 42.002 225.524C42.002 223.63 42.418 222.134 43.2516 221.039C44.0896 219.942 45.2295 219.395 46.6714 219.395C47.8114 219.395 48.7806 219.772 49.5805 220.529C50.3854 221.279 50.8524 222.25 50.9815 223.444H49.3796C49.2261 222.726 48.9054 222.153 48.4168 221.727C47.9333 221.3 47.3515 221.087 46.6714 221.087C45.7417 221.087 45.0042 221.487 44.4583 222.286C43.9174 223.079 43.6469 224.158 43.6469 225.524C43.6469 226.885 43.9174 227.965 44.4583 228.763C45.0042 229.557 45.7446 229.954 46.6786 229.954C47.363 229.954 47.9477 229.76 48.4312 229.371C48.9197 228.982 49.2361 228.459 49.3796 227.8H50.9815C50.838 228.955 50.3732 229.887 49.5876 230.593C48.8021 231.295 47.8329 231.646 46.6786 231.646ZM52.9931 231.362V219.103H54.5376V231.362H52.9931ZM60.1627 229.986C60.8284 229.986 61.3435 229.722 61.7072 229.193C62.0759 228.658 62.2603 227.91 62.2603 226.95C62.2603 225.994 62.0759 225.252 61.7072 224.723C61.3435 224.188 60.8284 223.921 60.1627 223.921C59.4919 223.921 58.9746 224.186 58.6109 224.715C58.2472 225.244 58.065 225.988 58.065 226.95C58.065 227.916 58.2472 228.663 58.6109 229.193C58.9746 229.722 59.4919 229.986 60.1627 229.986ZM60.1627 231.533C59.0134 231.533 58.1102 231.125 57.4545 230.31C56.7981 229.495 56.4703 228.375 56.4703 226.95C56.4703 225.53 56.7981 224.412 57.4545 223.597C58.1152 222.782 59.0177 222.375 60.1627 222.375C61.3026 222.375 62.2007 222.782 62.8564 223.597C63.5172 224.412 63.8479 225.53 63.8479 226.95C63.8479 228.375 63.52 229.495 62.8636 230.31C62.2079 231.125 61.3076 231.533 60.1627 231.533ZM72.3037 222.544V231.362H70.8166V229.962H70.6939C70.2965 231.009 69.5088 231.533 68.3308 231.533C67.4685 231.533 66.8028 231.249 66.3336 230.682C65.8688 230.115 65.637 229.312 65.637 228.269V222.544H67.1816V227.816C67.1816 228.534 67.3129 229.066 67.5761 229.411C67.8444 229.752 68.2613 229.921 68.8266 229.921C69.4442 229.921 69.9206 229.727 70.2563 229.338C70.5913 228.945 70.7592 228.399 70.7592 227.703V222.544H72.3037ZM77.4044 231.509C76.4079 231.509 75.6174 231.098 75.0334 230.278C74.4487 229.457 74.1568 228.348 74.1568 226.95C74.1568 225.556 74.4487 224.45 75.0334 223.63C75.6224 222.809 76.4129 222.399 77.4044 222.399C77.9403 222.399 78.4216 222.536 78.8478 222.812C79.2746 223.081 79.5931 223.46 79.8033 223.946H79.9181V219.103H81.4626V231.362H79.9834V229.97H79.8607C79.6261 230.45 79.2911 230.829 78.8549 231.104C78.4245 231.374 77.9403 231.509 77.4044 231.509ZM77.842 223.962C77.1906 223.962 76.6784 224.229 76.3046 224.763C75.9359 225.292 75.7515 226.021 75.7515 226.95C75.7515 227.884 75.9359 228.618 76.3046 229.152C76.6784 229.681 77.1906 229.946 77.842 229.946C78.4934 229.946 79.0063 229.679 79.3793 229.144C79.7581 228.61 79.9475 227.88 79.9475 226.958C79.9475 226.04 79.7581 225.311 79.3793 224.771C79.0013 224.231 78.4891 223.962 77.842 223.962ZM92.2392 231.646C90.7973 231.646 89.6574 231.098 88.8195 230.002C87.9815 228.907 87.5619 227.414 87.5619 225.524C87.5619 223.63 87.9787 222.134 88.8123 221.039C89.6502 219.942 90.7901 219.395 92.2314 219.395C93.3713 219.395 94.3412 219.772 95.1411 220.529C95.946 221.279 96.413 222.25 96.5422 223.444H94.9402C94.7867 222.726 94.466 222.153 93.9775 221.727C93.494 221.3 92.9115 221.087 92.2314 221.087C91.3023 221.087 90.5649 221.487 90.0189 222.286C89.478 223.079 89.2076 224.158 89.2076 225.524C89.2076 226.885 89.478 227.965 90.0189 228.763C90.5649 229.557 91.3052 229.954 92.2392 229.954C92.9236 229.954 93.5083 229.76 93.9918 229.371C94.4804 228.982 94.796 228.459 94.9402 227.8H96.5422C96.3987 228.955 95.9338 229.887 95.1483 230.593C94.3627 231.295 93.3928 231.646 92.2392 231.646ZM101.786 229.986C102.452 229.986 102.967 229.722 103.331 229.193C103.7 228.658 103.884 227.91 103.884 226.95C103.884 225.994 103.7 225.252 103.331 224.723C102.967 224.188 102.452 223.921 101.786 223.921C101.116 223.921 100.598 224.186 100.235 224.715C99.8708 225.244 99.6886 225.988 99.6886 226.95C99.6886 227.916 99.8708 228.663 100.235 229.193C100.598 229.722 101.116 229.986 101.786 229.986ZM101.786 231.533C100.637 231.533 99.7338 231.125 99.0781 230.31C98.4217 229.495 98.0939 228.375 98.0939 226.95C98.0939 225.53 98.4217 224.412 99.0781 223.597C99.7388 222.782 100.642 222.375 101.786 222.375C102.926 222.375 103.824 222.782 104.48 223.597C105.141 224.412 105.471 225.53 105.471 226.95C105.471 228.375 105.144 229.495 104.487 230.31C103.832 231.125 102.931 231.533 101.786 231.533ZM107.332 231.362V222.544H108.82V223.962H108.934C109.106 223.46 109.382 223.071 109.761 222.796C110.144 222.514 110.594 222.375 111.111 222.375C111.633 222.375 112.079 222.514 112.447 222.796C112.816 223.076 113.089 223.465 113.267 223.962H113.389C113.589 223.476 113.901 223.089 114.323 222.804C114.749 222.518 115.23 222.375 115.766 222.375C116.557 222.375 117.169 222.631 117.605 223.144C118.046 223.656 118.266 224.372 118.266 225.29V231.362H116.722V225.743C116.722 224.561 116.217 223.97 115.206 223.97C114.713 223.97 114.313 224.145 114.006 224.496C113.704 224.847 113.554 225.287 113.554 225.816V231.362H112.038V225.573C112.038 225.076 111.901 224.685 111.628 224.399C111.356 224.113 110.989 223.97 110.529 223.97C110.06 223.97 109.667 224.162 109.351 224.545C109.035 224.928 108.877 225.403 108.877 225.97V231.362H107.332ZM124.494 222.399C125.491 222.399 126.281 222.809 126.865 223.63C127.45 224.445 127.742 225.552 127.742 226.95C127.742 228.348 127.45 229.457 126.865 230.278C126.286 231.098 125.5 231.509 124.509 231.509C123.954 231.509 123.465 231.379 123.044 231.12C122.622 230.855 122.309 230.491 122.103 230.027H121.981V234.294H120.436V222.544H121.923V224.002H122.038C122.273 223.5 122.608 223.109 123.044 222.828C123.479 222.542 123.963 222.399 124.494 222.399ZM124.057 229.946C124.713 229.946 125.225 229.681 125.594 229.152C125.967 228.618 126.155 227.884 126.155 226.95C126.155 226.016 125.967 225.284 125.594 224.755C125.225 224.226 124.715 223.962 124.064 223.962C123.413 223.962 122.898 224.231 122.52 224.771C122.141 225.306 121.951 226.034 121.951 226.958C121.951 227.876 122.141 228.604 122.52 229.144C122.898 229.679 123.41 229.946 124.057 229.946ZM136.197 222.544V231.362H134.71V229.962H134.588C134.191 231.009 133.403 231.533 132.225 231.533C131.363 231.533 130.697 231.249 130.228 230.682C129.763 230.115 129.531 229.312 129.531 228.269V222.544H131.075V227.816C131.075 228.534 131.207 229.066 131.47 229.411C131.739 229.752 132.155 229.921 132.72 229.921C133.338 229.921 133.815 229.727 134.15 229.338C134.486 228.945 134.653 228.399 134.653 227.703V222.544H136.197ZM138.985 220.35H140.53V222.585H142.225V224.051H140.53V228.586C140.53 229.044 140.618 229.381 140.795 229.597C140.972 229.808 141.253 229.913 141.636 229.913C141.789 229.913 141.985 229.9 142.225 229.873V231.322C141.918 231.382 141.638 231.412 141.384 231.412C140.527 231.412 139.912 231.228 139.538 230.861C139.169 230.494 138.985 229.883 138.985 229.03V224.051H137.742V222.585H138.985V220.35ZM144.071 231.362V222.544H145.609V231.362H144.071ZM145.551 220.698C145.364 220.898 145.127 220.998 144.84 220.998C144.553 220.998 144.313 220.898 144.122 220.698C143.934 220.493 143.841 220.24 143.841 219.937C143.841 219.635 143.934 219.381 144.122 219.176C144.313 218.971 144.553 218.868 144.84 218.868C145.127 218.868 145.364 218.971 145.551 219.176C145.743 219.381 145.838 219.635 145.838 219.937C145.838 220.24 145.743 220.493 145.551 220.698ZM147.878 231.362V222.544H149.366V223.946H149.48C149.888 222.898 150.666 222.375 151.816 222.375C152.687 222.375 153.355 222.658 153.82 223.224C154.289 223.791 154.524 224.602 154.524 225.654V231.362H152.979V226.091C152.979 224.677 152.417 223.97 151.291 223.97C150.721 223.97 150.266 224.172 149.926 224.577C149.591 224.977 149.423 225.519 149.423 226.205V231.362H147.878ZM162.096 226.845C162.096 225.964 161.906 225.265 161.528 224.747C161.149 224.223 160.632 223.962 159.977 223.962C159.32 223.962 158.81 224.221 158.446 224.739C158.082 225.252 157.9 225.954 157.9 226.845C157.9 227.735 158.082 228.439 158.446 228.958C158.81 229.471 159.32 229.727 159.977 229.727C160.632 229.727 161.149 229.468 161.528 228.949C161.906 228.431 162.096 227.729 162.096 226.845ZM159.998 234.731C159.03 234.731 158.245 234.505 157.641 234.051C157.038 233.603 156.696 233.001 156.614 232.245H158.195C158.262 232.57 158.454 232.826 158.769 233.014C159.091 233.204 159.507 233.298 160.02 233.298C160.661 233.298 161.162 233.133 161.521 232.804C161.885 232.48 162.067 232.027 162.067 231.444V229.752H161.952C161.717 230.226 161.391 230.593 160.975 230.853C160.558 231.106 160.079 231.233 159.538 231.233C158.547 231.233 157.759 230.837 157.174 230.043C156.595 229.244 156.305 228.18 156.305 226.853C156.305 225.503 156.598 224.423 157.182 223.613C157.766 222.804 158.556 222.399 159.553 222.399C160.089 222.399 160.577 222.54 161.018 222.82C161.459 223.095 161.789 223.473 162.01 223.954H162.132V222.544H163.612V231.436C163.612 232.445 163.286 233.246 162.634 233.841C161.983 234.434 161.104 234.731 159.998 234.731Z" fill="#1D3756" stroke="#FEFEFE" stroke-width="4" mask="url(#path-12-inside-2_439_97)"/>
<defs>
<filter id="filter0_d_439_97" x="-54" y="-39" width="526" height="693" filterUnits="userSpaceOnUse" color-interpolation-filters="sRGB">
<feFlood flood-opacity="0" result="BackgroundImageFix"/>
<feColorMatrix in="SourceAlpha" type="matrix" values="0 0 0 0 0 0 0 0 0 0 0 0 0 0 0 0 0 0 127 0" result="hardAlpha"/>
<feOffset dy="15"/>
<feGaussianBlur stdDeviation="25"/>
<feColorMatrix type="matrix" values="0 0 0 0 0 0 0 0 0 0 0 0 0 0 0 0 0 0 0.15 0"/>
<feBlend mode="normal" in2="BackgroundImageFix" result="effect1_dropShadow_439_97"/>
<feBlend mode="normal" in="SourceGraphic" in2="effect1_dropShadow_439_97" result="shape"/>
</filter>
</defs>
</svg>
