<svg width="122" height="147" viewBox="0 0 122 147" fill="none" xmlns="http://www.w3.org/2000/svg">
<g opacity="0.5">
<path d="M95.4329 51.2017C95.4748 49.9014 95.5366 48.6007 95.5112 47.3007C95.5652 43.907 94.9467 40.4593 93.4103 37.414C93.1773 36.9442 92.9281 36.4851 92.6659 36.035C90.1718 36.502 87.6777 36.9144 85.185 37.2711C86.3251 38.68 87.0509 40.404 87.3942 42.1816C86.0561 40.3531 84.2761 38.9576 82.4517 37.6398L80.0146 37.9318C81.5902 38.9665 83.1754 39.9899 84.5252 41.3184C86.5815 43.2675 88.131 45.8884 88.3447 48.7567C88.3636 48.943 88.3756 49.1285 88.3811 49.3134C90.647 50.0622 92.9979 50.6924 95.4329 51.2017Z" fill="#212121"/>
<path d="M95.8364 51.2852C98.9518 51.9185 102.205 52.358 105.595 52.603C105.446 52.1546 105.326 51.6958 105.241 51.2281C104.713 48.999 105.197 46.7131 105.653 44.5169C106.224 41.8696 106.983 39.2119 106.87 36.4772C106.892 35.2759 106.675 34.0649 106.227 32.9495C103.347 33.7199 100.466 34.4178 97.5862 35.0412C97.6835 35.3233 97.757 35.6127 97.7928 35.9113C97.8659 36.1879 97.5718 36.3058 97.4096 36.457C97.2759 36.0281 97.1639 35.59 97.0247 35.1622C95.7595 35.4316 94.4938 35.6869 93.2292 35.9285C93.7863 36.8831 94.2743 37.8769 94.6653 38.914C95.643 41.4417 96.0261 44.1685 95.9966 46.8681C96.0131 48.3423 95.9155 49.8137 95.8364 51.2852Z" fill="#212121"/>
<path d="M88.3775 49.3216C87.5981 49.0643 86.8284 48.7925 86.0689 48.5065C75.7101 45.8918 67.3522 48.1035 60.9956 55.1408V39.006C67.3329 39.0074 73.6716 38.6518 80.011 37.9398C81.5866 38.9748 83.1718 39.9981 84.5216 41.3266C86.5779 43.2757 88.1274 45.8966 88.3411 48.7649C88.36 48.9512 88.372 49.1368 88.3775 49.3216Z" fill="#FEFEFE"/>
<path d="M66.2839 46.9007C66.4784 46.8554 66.5152 46.6433 66.5911 46.4887C66.8695 45.8313 66.9856 45.0904 67.4571 44.53C67.5846 45.1427 67.6152 45.7729 67.7801 46.3787C67.9616 45.9502 68.0255 45.4867 68.111 45.0327C68.2107 44.4722 68.4664 43.9599 68.7255 43.4599C68.6155 44.3781 68.3021 45.3478 68.6705 46.2478C69.3024 45.01 69.5973 43.5874 70.499 42.4946C70.6639 42.3201 70.9416 41.8661 70.4876 41.9002C69.7502 42.0101 69.2622 42.6919 68.8694 43.2695C68.8739 42.6637 68.8134 42.0579 68.8327 41.4531C67.8069 42.0073 67.8 43.3139 67.2372 44.2121C67.1351 43.4152 67.1953 42.6104 67.1176 41.8135C66.4812 42.4245 66.2606 43.3891 66.4228 44.24C66.3705 45.118 65.864 46.0389 66.2839 46.9007Z" fill="#212121"/>
<path d="M70.3484 42.8025C69.6965 43.6596 69.556 44.9059 70.0848 45.8585C70.3824 45.3688 70.5886 44.8276 70.9219 44.3582C70.9106 44.6551 70.8931 44.9516 70.88 45.2502C70.99 45.2502 71.2109 45.2502 71.3199 45.2502C71.7762 44.6977 72.0748 44.0083 72.67 43.5795C72.6026 44.1582 72.4735 44.7272 72.3645 45.2997C72.7363 44.8266 72.9772 44.2245 73.5088 43.8998C74.414 43.3273 75.4352 42.9606 76.4737 42.7118C77.3091 42.5214 78.229 42.4902 79.0214 42.861C78.3685 42.8373 77.7104 42.6829 77.0627 42.8304C76.2613 43.0032 75.517 43.3644 74.7871 43.7259C74.1988 44.0314 73.5669 44.3595 73.2397 44.9678C73.5373 45.1135 73.8246 45.3011 74.1596 45.3554C74.8937 45.2403 75.4043 44.4695 76.1864 44.5437C76.7923 44.6152 77.4005 44.5846 78.009 44.5681C77.6695 44.7217 77.3273 44.8736 76.9974 45.0448C77.707 45.374 78.5074 45.132 79.2555 45.1355L79.218 45.4496C79.2441 45.4128 79.2956 45.3396 79.3218 45.3028C79.3279 45.2592 79.341 45.1685 79.3461 45.1231C79.5207 45.1259 79.8682 45.13 80.0427 45.1334C79.9242 45.1753 79.6884 45.2592 79.5695 45.3018C79.5798 45.3262 79.6001 45.375 79.6104 45.3987C80.2798 45.4678 80.9441 45.308 81.6145 45.3148C82.5039 45.4038 83.4038 45.6118 84.1275 46.165C83.9155 45.0722 82.7877 44.5616 81.9069 44.0781C81.4887 43.7795 80.9781 43.7273 80.4939 43.6207C80.0286 43.2427 79.7877 42.6396 79.2589 42.3307C78.6881 41.9991 78.0029 41.9135 77.3534 41.9527C75.8521 42.0977 74.3621 42.5019 73.0776 43.3108C73.493 42.8108 74.0133 42.4022 74.3528 41.8393C73.3875 41.9108 72.5583 42.4696 71.8721 43.1135C72.0363 42.7819 72.1339 42.4238 72.1996 42.0616C71.5501 42.1785 70.8134 42.2843 70.3484 42.8025Z" fill="#212121"/>
<path d="M78.6953 44.1531C77.8094 43.9321 76.8895 43.8799 75.9844 44.0232C76.8414 43.4245 78.0015 43.0263 78.973 43.6122C78.8806 43.7919 78.7888 43.9737 78.6953 44.1531Z" fill="#212121"/>
<path d="M82.4524 37.6398C84.2768 38.9576 86.0568 40.3531 87.3949 42.1816C87.0516 40.404 86.3258 38.68 85.1856 37.2711L82.4524 37.6398Z" fill="#FEFEFE"/>
</g>
<g opacity="0.5">
<path d="M26.5667 51.2017C26.5248 49.9014 26.4629 48.6007 26.4884 47.3007C26.4344 43.907 27.0529 40.4593 28.5893 37.414C28.8223 36.9442 29.0715 36.4851 29.3337 36.035C31.8278 36.502 34.3219 36.9144 36.8146 37.2711C35.6744 38.68 34.9487 40.404 34.6054 42.1816C35.9435 40.3531 37.7235 38.9576 39.5479 37.6398L41.985 37.9318C40.4094 38.9665 38.8242 39.9899 37.4744 41.3184C35.4181 43.2675 33.8686 45.8884 33.6549 48.7567C33.636 48.943 33.624 49.1285 33.6185 49.3134C31.3525 50.0622 29.0017 50.6924 26.5667 51.2017Z" fill="#212121"/>
<path d="M26.1626 51.2852C23.0472 51.9185 19.7937 52.358 16.4041 52.603C16.5529 52.1546 16.6728 51.6958 16.7584 51.2281C17.2865 48.999 16.802 46.7131 16.3463 44.5169C15.7756 41.8696 15.0161 39.2119 15.1295 36.4772C15.1068 35.2759 15.324 34.0649 15.7718 32.9495C18.6525 33.7199 21.5332 34.4178 24.4128 35.0412C24.3156 35.3233 24.242 35.6127 24.2063 35.9113C24.1331 36.1879 24.4273 36.3058 24.5895 36.457C24.7231 36.0281 24.8352 35.59 24.9743 35.1622C26.2396 35.4316 27.5052 35.6869 28.7698 35.9285C28.2128 36.8831 27.7248 37.8769 27.3338 38.914C26.3561 41.4417 25.9729 44.1685 26.0025 46.8681C25.986 48.3423 26.0836 49.8137 26.1626 51.2852Z" fill="#212121"/>
<path d="M33.6208 49.3216C34.4002 49.0642 35.1699 48.7924 35.9294 48.5065C46.2883 45.8918 54.6462 48.1034 61.0028 55.1407V39.006C54.6654 39.0074 48.3267 38.6518 41.9873 37.9397C40.4118 38.9748 38.8266 39.9981 37.4768 41.3266C35.4205 43.2757 33.871 45.8966 33.6573 48.7649C33.6384 48.9512 33.6263 49.1368 33.6208 49.3216Z" fill="#FEFEFE"/>
<path d="M55.7138 46.9007C55.5193 46.8554 55.4825 46.6433 55.4065 46.4887C55.1282 45.8313 55.0121 45.0904 54.5406 44.53C54.4131 45.1427 54.3825 45.7729 54.2176 46.3787C54.0361 45.9502 53.9722 45.4866 53.8867 45.0327C53.787 44.4722 53.5314 43.9599 53.2723 43.4599C53.3822 44.3781 53.6956 45.3478 53.3272 46.2478C52.6953 45.01 52.4004 43.5874 51.4987 42.4946C51.3338 42.3201 51.0561 41.8661 51.5101 41.9001C52.2475 42.0101 52.7355 42.6919 53.1283 43.2695C53.1238 42.6637 53.1843 42.0578 53.165 41.453C54.1908 42.0073 54.1976 43.3138 54.7605 44.2121C54.8626 43.4152 54.8025 42.6104 54.8801 41.8135C55.5165 42.4245 55.7371 43.3891 55.5749 44.24C55.6272 45.1179 56.1337 46.0389 55.7138 46.9007Z" fill="#212121"/>
<path d="M51.6502 42.8025C52.3021 43.6596 52.4426 44.9059 51.9138 45.8585C51.6162 45.3688 51.41 44.8276 51.0767 44.3582C51.088 44.6551 51.1056 44.9516 51.1186 45.2502C51.0086 45.2502 50.7877 45.2502 50.6787 45.2502C50.2224 44.6977 49.9238 44.0083 49.3286 43.5795C49.3959 44.1581 49.5252 44.7272 49.6341 45.2997C49.2623 44.8265 49.0214 44.2245 48.4898 43.8997C47.5847 43.3272 46.5634 42.9606 45.5249 42.7118C44.6895 42.5214 43.7696 42.4902 42.9772 42.861C43.6301 42.8372 44.2881 42.6829 44.9359 42.8303C45.7372 43.0032 46.4816 43.3644 47.2115 43.7259C47.7998 44.0314 48.4317 44.3595 48.7588 44.9678C48.4612 45.1135 48.174 45.3011 47.8389 45.3554C47.1049 45.2403 46.5943 44.4695 45.8122 44.5437C45.2063 44.6152 44.5981 44.5846 43.9895 44.5681C44.329 44.7217 44.6713 44.8736 45.0012 45.0448C44.2916 45.374 43.4913 45.132 42.7432 45.1355L42.7806 45.4496C42.7545 45.4128 42.703 45.3396 42.6769 45.3028C42.6707 45.2592 42.6576 45.1685 42.6525 45.1231C42.4779 45.1259 42.1305 45.13 41.9559 45.1334C42.0744 45.1753 42.3102 45.2592 42.4291 45.3018C42.4188 45.3262 42.3985 45.375 42.3882 45.3987C41.7188 45.4678 41.0545 45.308 40.3841 45.3148C39.4948 45.4038 38.5948 45.6117 37.8711 46.165C38.0831 45.0722 39.2109 44.5616 40.0917 44.0781C40.5099 43.7795 41.0205 43.7272 41.5047 43.6207C41.97 43.2427 42.2109 42.6396 42.7397 42.3307C43.3105 41.9991 43.9957 41.9135 44.6452 41.9527C46.1465 42.0977 47.6365 42.5018 48.9211 43.3108C48.5056 42.8108 47.9853 42.4022 47.6458 41.8393C48.6111 41.9108 49.4403 42.4695 50.1265 43.1135C49.9623 42.7819 49.8647 42.4238 49.799 42.0616C50.4485 42.1785 51.1853 42.2843 51.6502 42.8025Z" fill="#212121"/>
<path d="M43.3031 44.153C44.1889 43.9321 45.1089 43.8798 46.014 44.0231C45.157 43.4245 43.9968 43.0262 43.0254 43.6121C43.1178 43.7918 43.2096 43.9736 43.3031 44.153Z" fill="#212121"/>
<path d="M39.547 37.6398C37.7226 38.9576 35.9426 40.3531 34.6045 42.1816C34.9478 40.404 35.6735 38.68 36.8137 37.2711L39.547 37.6398Z" fill="#FEFEFE"/>
</g>
<g opacity="0.5">
<path d="M88.3819 49.3134C88.4496 51.5423 87.6118 53.6718 87.0902 55.8109C86.3647 58.5768 85.7339 61.3665 85.0215 64.1368C84.4366 66.4529 83.8332 68.7831 82.9586 71.0088H61V55.1326C67.3566 48.0952 75.7145 45.8836 86.0733 48.4983C86.8328 48.7842 87.6025 49.0561 88.3819 49.3134Z" fill="#FEFEFE"/>
<path d="M75.7747 67.0358C75.4562 67.3107 75.772 67.7804 75.9441 68.0639C76.1108 68.3302 76.3606 68.0474 76.4878 67.9075C76.3558 67.5742 76.2242 66.9877 75.7737 67.0358H75.7747ZM81.9344 63.4152C81.8461 63.8063 82.0279 64.2382 82.3612 64.4592C82.9784 64.3272 82.4729 63.2231 81.9344 63.4152ZM76.0672 62.5049C76.7706 62.451 76.364 61.3579 75.7644 61.4792C75.5348 61.8256 75.7819 62.2733 76.0672 62.5049Z" fill="#212121" stroke="#212121" stroke-width="0.26185" stroke-miterlimit="22.9256"/>
<path d="M64.5313 68.3869C65.1396 68.291 65.8598 68.0082 65.9987 67.3326C66.1444 66.822 65.8478 66.3437 65.5317 65.9729C65.4585 66.0182 65.3135 66.109 65.241 66.1536C65.2279 66.543 65.2059 66.9323 65.1736 67.3206C64.319 67.7684 63.3582 67.935 62.4575 68.258C62.4575 68.4536 62.4592 68.6526 62.4627 68.8515C63.1558 68.7127 63.8303 68.4859 64.532 68.3862L64.5313 68.3869Z" fill="#212121" stroke="#212121" stroke-width="0.26185" stroke-miterlimit="22.9256"/>
<path d="M82.2757 50.4945C82.3499 50.1533 81.9379 50.0406 81.7486 49.8461C81.285 50.2852 80.8259 50.8141 80.1575 50.911C79.0325 51.0804 77.9126 50.766 76.7944 50.6684C74.5285 50.4048 72.0821 51.034 70.4131 52.6384C69.5901 53.3742 69.0148 54.3292 68.4691 55.2762C68.5512 54.7893 68.6148 54.2855 68.8409 53.8395C69.8997 51.8048 71.8993 50.3244 74.1113 49.7684C74.7432 49.6018 75.4041 49.5904 76.0377 49.4289C76.2429 49.4 76.3466 49.2055 76.4793 49.0719C75.4119 49.0956 74.3075 48.9671 73.2769 49.3207C71.257 49.9413 69.5969 51.4251 68.4372 53.1577C67.965 53.9398 67.485 54.8309 67.6176 55.7762C67.6936 56.2109 68.0358 56.7827 68.554 56.6439C68.9571 56.2216 69.1475 55.6525 69.4365 55.1522C69.7839 54.4896 70.2684 53.9103 70.8058 53.3907C70.8416 54.6982 71.3505 56.1191 72.5192 56.8236C74.1254 57.8318 76.5064 57.158 77.3476 55.4583C77.9325 54.2828 77.8958 52.799 77.1147 51.7182C78.0277 51.9756 78.4545 52.8807 78.671 53.7267C78.8727 54.5628 79.1686 55.4848 78.7878 56.3157C78.3462 57.2078 77.5239 57.9906 76.5026 58.1208C75.291 58.305 74.0639 58.1768 72.8453 58.2377C72.0484 58.2892 71.2498 58.2421 70.4536 58.3181C70.5017 58.5713 70.5959 58.8322 70.8464 58.9517C71.3536 59.3514 71.9636 58.9404 72.5172 58.8916C73.8824 58.7493 75.257 58.8225 76.6274 58.8088C76.7896 59.1875 76.9817 59.5638 77.3064 59.8308C77.425 59.7768 77.6607 59.6665 77.7786 59.6125C77.6982 59.239 77.5456 58.8706 77.5707 58.483C77.7827 58.2404 78.062 58.0693 78.3222 57.8799C78.549 58.139 78.7596 58.4105 79.0029 58.6576C79.0703 58.6304 79.2046 58.5772 79.2717 58.5511C79.4967 57.9322 78.9101 57.3438 79.118 56.7078C79.5946 56.8892 80.0747 57.0892 80.5895 57.1391C81.1919 57.0937 81.7214 56.7689 82.2496 56.5043C82.2286 56.26 82.206 56.0164 82.1805 55.7748C81.3087 56.0202 80.4104 56.3404 79.4929 56.1648C79.5706 55.5913 79.684 55.0199 79.9084 54.4845C80.564 55.2484 81.6977 55.6322 82.664 55.3381C82.7661 54.8755 82.3375 54.5429 82.108 54.1955C82.6492 54.0611 83.6117 54.192 83.7715 53.4945C83.0856 52.8556 82.0293 53.1158 81.1939 52.8251C81.7262 52.146 82.2369 51.3838 82.2736 50.4921H82.2726L82.2757 50.4945Z" fill="#212121" stroke="#212121" stroke-width="0.26185" stroke-miterlimit="22.9256"/>
<path d="M82.9585 71.0088H92.4428C92.594 69.5003 92.5817 67.9787 92.3491 66.4639C92.548 66.5897 92.6573 66.799 92.6755 67.0285C92.8704 68.3512 92.8535 69.6858 92.7051 71.0088H98.7255C98.2781 68.9759 97.6479 66.9831 96.9431 65.0265C96.038 62.6052 94.9758 60.2496 94.0253 57.8473C93.3367 56.0954 92.5466 54.3532 92.2552 52.4776C92.1992 52.0299 92.1129 51.5488 92.3226 51.1264C92.5669 53.0449 93.4057 54.8064 94.125 56.5789C95.8088 60.7554 97.7472 64.8509 98.8888 69.2219C99.0472 69.8126 99.195 70.4088 99.3273 71.0088H113.343C112.932 68.3656 111.866 65.865 110.564 63.5444C109.966 62.4489 109.253 61.419 108.683 60.3087C108.423 59.819 108.355 59.2596 108.374 58.7122C108.982 59.1661 109.474 59.7562 110.089 60.2074C111.522 61.2922 112.841 62.5334 113.995 63.9124C115.639 65.9017 116.551 68.4432 116.698 71.0088H117.617C117.536 68.9955 117.029 67.0034 116.053 65.232C114.98 63.2691 113.339 61.7039 111.64 60.2847C110.289 59.2101 108.928 58.1071 107.889 56.7129C106.913 55.4796 106.092 54.0975 105.596 52.6031C102.206 52.358 98.9527 51.9185 95.8373 51.2849C95.7624 52.6828 95.704 54.0803 95.7765 55.4803C95.8332 56.1236 95.9771 56.7573 96.0558 57.3995C95.6438 56.6349 95.5644 55.748 95.4579 54.9006C95.3713 53.6683 95.3937 52.435 95.4335 51.2017C92.9985 50.6924 90.6477 50.0622 88.3818 49.3134C88.4495 51.5422 87.6117 53.6717 87.09 55.8109C86.3646 58.5768 85.7337 61.3664 85.0214 64.1368C84.4365 66.4529 83.833 68.7831 82.9585 71.0088ZM100.82 60.7139C102.593 63.4729 103.416 66.8612 102.957 70.1195C102.945 70.3683 102.632 70.4618 102.478 70.2714C102.458 69.7346 102.582 69.2082 102.604 68.6742C102.77 66.1787 102.032 63.7069 100.922 61.495C100.554 60.7259 100.007 60.0627 99.6128 59.3077C100.176 59.6149 100.452 60.2173 100.82 60.7139ZM86.0671 64.9863C86.542 62.5327 87.1842 60.1149 87.6715 57.6648C87.8783 56.7971 87.9832 55.9068 88.232 55.0515C88.7948 54.8446 89.3677 54.6428 89.9481 54.4886C90.5687 54.348 91.2164 54.7068 91.4807 55.2741C91.9068 56.0535 92.2497 56.9473 92.1099 57.85C91.9779 58.55 91.6378 59.1871 91.3409 59.8262C90.7666 61.0273 90.0979 62.2073 89.1282 63.1369C88.299 64.0221 87.1976 64.5832 86.0671 64.9863ZM90.1652 59.2816C89.9742 58.6864 89.8388 58.05 89.4862 57.5263C89.2288 57.2191 88.8299 57.6923 88.9433 57.9627C89.0367 58.4541 89.5298 58.9352 89.2154 59.4414C88.6656 60.4802 87.9034 61.4359 87.6749 62.6187C88.2598 62.0627 88.6735 61.3633 89.1921 60.7489C89.569 60.2967 89.8972 59.807 90.1652 59.2816Z" fill="#212121" stroke="#212121" stroke-width="0.26185" stroke-miterlimit="22.9256"/>
<path d="M95.8377 51.2849C95.7628 52.6828 95.7044 54.0803 95.7769 55.4803C95.8336 56.1236 95.9775 56.7573 96.0562 57.3995C95.6442 56.635 95.5648 55.748 95.4583 54.9006C95.3717 53.6683 95.3941 52.435 95.4339 51.2017L95.8377 51.2849Z" fill="#FEFEFE"/>
<path d="M99.3271 71.0088H98.7253C98.2779 68.9759 97.6477 66.9832 96.9429 65.0265C96.0378 62.6052 94.9756 60.2496 94.0251 57.8473C93.3365 56.0954 92.5464 54.3532 92.255 52.4776C92.199 52.0299 92.1127 51.5488 92.3224 51.1264C92.5667 53.045 93.4055 54.8064 94.1248 56.5789C95.8086 60.7554 97.747 64.8509 98.8885 69.2219C99.047 69.8126 99.1948 70.4088 99.3271 71.0088Z" fill="#FEFEFE"/>
<path d="M92.7051 71.0088H92.4429C92.5941 69.5003 92.5818 67.9787 92.3491 66.4639C92.5481 66.5897 92.6574 66.799 92.6756 67.0285C92.8704 68.3512 92.8536 69.6858 92.7051 71.0088Z" fill="#FEFEFE"/>
<path d="M86.0679 64.9842C86.5428 62.5307 87.1851 60.1128 87.6724 57.6627C87.8792 56.795 87.984 55.9047 88.2328 55.0494C88.7956 54.8425 89.3685 54.6408 89.9489 54.4865C90.5695 54.346 91.2173 54.7047 91.4815 55.2721C91.9076 56.0514 92.2505 56.9452 92.1107 57.848C91.9787 58.548 91.6386 59.185 91.3417 59.8242C90.7675 61.0252 90.0987 62.2053 89.129 63.1348C88.2998 64.02 87.1984 64.5812 86.0679 64.9842ZM90.1661 59.2796C89.975 58.6844 89.8396 58.048 89.487 57.5243C89.2297 57.2171 88.8307 57.6902 88.9441 57.9607C89.0376 58.4521 89.5307 58.9332 89.2163 59.4393C88.6665 60.4781 87.9043 61.4338 87.6758 62.6166C88.2606 62.0606 88.6744 61.3613 89.1929 60.7469C89.5699 60.2946 89.898 59.805 90.1661 59.2796Z" fill="#FEFEFE" stroke="#212121" stroke-width="0.26185" stroke-miterlimit="22.9256"/>
</g>
<g opacity="0.5">
<path d="M33.6176 49.3134C33.5499 51.5423 34.3877 53.6718 34.9094 55.8109C35.6348 58.5768 36.2657 61.3665 36.978 64.1368C37.5629 66.4529 38.1663 68.7831 39.0409 71.0088H60.9995V55.1326C54.643 48.0952 46.2851 45.8836 35.9262 48.4983C35.1667 48.7842 34.397 49.0561 33.6176 49.3134Z" fill="#FEFEFE"/>
<path d="M46.2261 67.0358C46.5446 67.3107 46.2288 67.7804 46.0567 68.0639C45.89 68.3302 45.6402 68.0474 45.513 67.9075C45.645 67.5742 45.7766 66.9877 46.2271 67.0358H46.2261ZM40.0664 63.4152C40.1547 63.8063 39.9729 64.2382 39.6396 64.4592C39.0224 64.3272 39.5279 63.2231 40.0664 63.4152ZM45.9336 62.5049C45.2302 62.451 45.6368 61.3579 46.2364 61.4792C46.466 61.8256 46.2189 62.2733 45.9336 62.5049Z" fill="#212121" stroke="#212121" stroke-width="0.26185" stroke-miterlimit="22.9256"/>
<path d="M57.4683 68.3869C56.8601 68.291 56.1399 68.0082 56.001 67.3326C55.8553 66.822 56.1519 66.3437 56.468 65.9729C56.5412 66.0182 56.6862 66.109 56.7588 66.1536C56.7718 66.543 56.7938 66.9323 56.8261 67.3206C57.6807 67.7684 58.6415 67.935 59.5422 68.258C59.5422 68.4536 59.5405 68.6526 59.537 68.8515C58.8439 68.7127 58.1694 68.4859 57.4677 68.3862L57.4683 68.3869Z" fill="#212121" stroke="#212121" stroke-width="0.26185" stroke-miterlimit="22.9256"/>
<path d="M39.7238 50.4945C39.6496 50.1533 40.0617 50.0406 40.251 49.8461C40.7146 50.2852 41.1737 50.8141 41.842 50.911C42.9671 51.0804 44.087 50.766 45.2052 50.6684C47.4711 50.4048 49.9174 51.034 51.5865 52.6384C52.4095 53.3742 52.9848 54.3292 53.5304 55.2762C53.4483 54.7893 53.3847 54.2855 53.1586 53.8395C52.0999 51.8048 50.1003 50.3244 47.8883 49.7684C47.2564 49.6018 46.5955 49.5904 45.9619 49.4289C45.7567 49.4 45.653 49.2055 45.5203 49.0719C46.5876 49.0956 47.6921 48.9671 48.7226 49.3207C50.7425 49.9413 52.4026 51.4251 53.5624 53.1577C54.0345 53.9398 54.5146 54.8309 54.382 55.7762C54.306 56.2109 53.9638 56.7827 53.4456 56.6439C53.0425 56.2216 52.8521 55.6525 52.5631 55.1522C52.2157 54.4896 51.7312 53.9103 51.1937 53.3907C51.158 54.6982 50.649 56.1191 49.4803 56.8236C47.8742 57.8318 45.4932 57.158 44.6519 55.4583C44.0671 54.2828 44.1038 52.799 44.8849 51.7182C43.9719 51.9756 43.5451 52.8807 43.3286 53.7267C43.1269 54.5628 42.831 55.4848 43.2117 56.3157C43.6533 57.2078 44.4756 57.9906 45.4969 58.1208C46.7086 58.305 47.9357 58.1768 49.1543 58.2377C49.9512 58.2892 50.7497 58.2421 51.5459 58.3181C51.4978 58.5713 51.4037 58.8322 51.1532 58.9517C50.646 59.3514 50.036 58.9404 49.4824 58.8916C48.1172 58.7493 46.7426 58.8225 45.3722 58.8088C45.21 59.1875 45.0179 59.5638 44.6932 59.8308C44.5746 59.7768 44.3389 59.6665 44.221 59.6125C44.3014 59.239 44.454 58.8706 44.4289 58.483C44.2169 58.2404 43.9375 58.0693 43.6774 57.8799C43.4506 58.139 43.2399 58.4105 42.9966 58.6576C42.9293 58.6304 42.7949 58.5772 42.7279 58.5511C42.5028 57.9322 43.0894 57.3438 42.8815 56.7078C42.4049 56.8892 41.9248 57.0892 41.4101 57.1391C40.8077 57.0937 40.2782 56.7689 39.75 56.5043C39.771 56.26 39.7936 56.0164 39.8191 55.7748C40.6909 56.0202 41.5891 56.3404 42.5066 56.1648C42.429 55.5913 42.3156 55.0199 42.0912 54.4845C41.4355 55.2484 40.3019 55.6322 39.3355 55.3381C39.2335 54.8755 39.662 54.5429 39.8915 54.1955C39.3503 54.0611 38.3878 54.192 38.228 53.4945C38.9139 52.8556 39.9703 53.1158 40.8056 52.8251C40.2733 52.146 39.7627 51.3838 39.7259 50.4921H39.727L39.7238 50.4945Z" fill="#212121" stroke="#212121" stroke-width="0.26185" stroke-miterlimit="22.9256"/>
<path d="M39.041 71.0088H29.5567C29.4055 69.5003 29.4179 67.9787 29.6505 66.4639C29.4516 66.5897 29.3423 66.799 29.3241 67.0285C29.1292 68.3512 29.1461 69.6858 29.2945 71.0088H23.2741C23.7215 68.9759 24.3517 66.9831 25.0565 65.0265C25.9616 62.6052 27.0238 60.2496 27.9743 57.8473C28.6629 56.0954 29.453 54.3532 29.7444 52.4776C29.8004 52.0299 29.8866 51.5488 29.677 51.1264C29.4327 53.0449 28.5939 54.8064 27.8746 56.5789C26.1908 60.7554 24.2524 64.8509 23.1108 69.2219C22.9524 69.8126 22.8046 70.4088 22.6723 71.0088H8.65646C9.0671 68.3656 10.1338 65.865 11.4354 63.5444C12.0341 62.4489 12.7464 61.419 13.3165 60.3087C13.5766 59.819 13.6447 59.2596 13.6254 58.7122C13.0172 59.1661 12.5258 59.7562 11.911 60.2074C10.4777 61.2922 9.15818 62.5334 8.00426 63.9124C6.3603 65.9017 5.44897 68.4432 5.30155 71.0088H4.38232C4.46342 68.9955 4.97065 67.0034 5.94623 65.232C7.01975 63.2691 8.66061 61.7039 10.3592 60.2847C11.7104 59.2101 13.0712 58.1071 14.1107 56.7129C15.0862 55.4796 15.9079 54.0975 16.4037 52.6031C19.7933 52.358 23.0469 51.9185 26.1623 51.2849C26.2372 52.6828 26.2956 54.0803 26.2231 55.4803C26.1664 56.1236 26.0224 56.7573 25.9437 57.3995C26.3558 56.6349 26.4352 55.748 26.5417 54.9006C26.6283 53.6683 26.6059 52.435 26.5661 51.2017C29.0011 50.6924 31.3519 50.0622 33.6178 49.3134C33.5501 51.5422 34.3879 53.6717 34.9095 55.8109C35.635 58.5768 36.2659 61.3664 36.9782 64.1368C37.5631 66.4529 38.1665 68.7831 39.041 71.0088ZM21.1796 60.7139C19.4068 63.4729 18.5837 66.8612 19.0428 70.1195C19.0542 70.3683 19.3676 70.4618 19.5212 70.2714C19.5411 69.7346 19.4174 69.2082 19.3954 68.6742C19.2295 66.1787 19.9672 63.7069 21.0775 61.495C21.4459 60.7259 21.993 60.0627 22.3868 59.3077C21.8239 59.6149 21.5473 60.2173 21.1796 60.7139ZM35.9325 64.9863C35.4576 62.5327 34.8154 60.1149 34.3281 57.6648C34.1212 56.7971 34.0164 55.9068 33.7676 55.0515C33.2047 54.8446 32.6319 54.6428 32.0515 54.4886C31.4309 54.348 30.7831 54.7068 30.5189 55.2741C30.0928 56.0535 29.7498 56.9473 29.8897 57.85C30.0217 58.55 30.3619 59.1871 30.6588 59.8262C31.233 61.0273 31.9017 62.2073 32.8715 63.1369C33.7006 64.0221 34.802 64.5832 35.9325 64.9863ZM31.8343 59.2816C32.0254 58.6864 32.1608 58.05 32.5134 57.5263C32.7707 57.2191 33.1697 57.6923 33.0563 57.9627C32.9629 58.4541 32.4697 58.9352 32.7842 59.4414C33.334 60.4802 34.0961 61.4359 34.3247 62.6187C33.7398 62.0627 33.3261 61.3633 32.8075 60.7489C32.4306 60.2967 32.1024 59.807 31.8343 59.2816Z" fill="#212121" stroke="#212121" stroke-width="0.26185" stroke-miterlimit="22.9256"/>
<path d="M26.1627 51.2849C26.2376 52.6828 26.296 54.0803 26.2235 55.4803C26.1668 56.1236 26.0228 56.7573 25.9441 57.3995C26.3561 56.635 26.4355 55.748 26.542 54.9006C26.6286 53.6683 26.6063 52.435 26.5664 51.2017L26.1627 51.2849Z" fill="#FEFEFE"/>
<path d="M22.6724 71.0088H23.2741C23.7215 68.9759 24.3517 66.9832 25.0565 65.0265C25.9616 62.6052 27.0238 60.2496 27.9743 57.8473C28.663 56.0954 29.453 54.3532 29.7444 52.4776C29.8004 52.0299 29.8866 51.5488 29.677 51.1264C29.4327 53.045 28.5939 54.8064 27.8747 56.5789C26.1909 60.7554 24.2524 64.8509 23.1109 69.2219C22.9525 69.8126 22.8047 70.4088 22.6724 71.0088Z" fill="#FEFEFE"/>
<path d="M29.2947 71.0088H29.5569C29.4057 69.5003 29.418 67.9787 29.6507 66.4639C29.4517 66.5897 29.3424 66.799 29.3242 67.0285C29.1294 68.3512 29.1462 69.6858 29.2947 71.0088Z" fill="#FEFEFE"/>
<path d="M35.9325 64.9842C35.4575 62.5307 34.8153 60.1128 34.328 57.6627C34.1211 56.795 34.0163 55.9047 33.7675 55.0494C33.2047 54.8425 32.6318 54.6408 32.0514 54.4865C31.4308 54.346 30.7831 54.7047 30.5188 55.2721C30.0927 56.0514 29.7498 56.9452 29.8896 57.848C30.0216 58.548 30.3618 59.185 30.6587 59.8242C31.2329 61.0252 31.9016 62.2053 32.8713 63.1348C33.7005 64.02 34.8019 64.5812 35.9325 64.9842ZM31.8343 59.2796C32.0253 58.6844 32.1607 58.048 32.5133 57.5243C32.7707 57.2171 33.1696 57.6902 33.0562 57.9607C32.9627 58.4521 32.4696 58.9332 32.7841 59.4393C33.3339 60.4781 34.0961 61.4338 34.3246 62.6166C33.7397 62.0606 33.326 61.3613 32.8074 60.7469C32.4304 60.2946 32.1023 59.805 31.8343 59.2796Z" fill="#FEFEFE" stroke="#212121" stroke-width="0.26185" stroke-miterlimit="22.9256"/>
</g>
<g opacity="0.5">
<path d="M60.9997 146.87C61.0969 146.867 61.1945 146.863 61.2917 146.858C67.6703 146.558 73.9784 145.26 80.056 143.329C86.1222 141.383 91.9877 138.801 97.4889 135.588C99.5776 134.401 101.515 132.977 103.55 131.702C104.206 131.256 104.486 130.421 104.473 129.656C104.393 128.317 104.01 127.01 103.471 125.786C102.516 123.412 101.24 121.183 99.871 119.027C100.449 118.51 101.055 118.019 101.563 117.432C101.772 117.159 102.152 117.184 102.455 117.107C105.076 116.64 107.761 115.763 109.684 113.839C111.549 111.985 112.385 109.373 112.749 106.827C113.932 107.679 115.414 108.262 116.889 107.972C118.681 107.671 120.451 106.427 120.871 104.581C121.291 102.816 120.616 101.027 119.81 99.4773C118.554 97.1636 117.151 94.9083 115.402 92.9286C114.778 92.1431 113.857 91.4919 113.694 90.4349C113.285 88.4658 113.356 86.4051 113.812 84.4508C114.495 81.388 116.255 78.7042 117.047 75.6743C117.484 74.1685 117.68 72.582 117.617 71.0085H116.698C116.7 71.05 116.702 71.092 116.704 71.1339C116.816 72.8569 116.473 74.5754 115.955 76.2111C115.216 78.5337 114.002 80.667 113.232 82.9773C112.6 84.8233 112.269 86.7951 112.425 88.7469C111.434 86.6521 111.04 84.2501 111.452 81.9581C111.731 80.1399 112.597 78.4956 113.112 76.7448C113.632 75.0087 113.622 73.16 113.395 71.3751C113.379 71.2525 113.362 71.1301 113.343 71.0085H99.3271C99.835 73.3139 100.111 75.6805 99.8439 78.0341C99.6239 80.1069 98.7765 82.0725 97.6102 83.7848C96.3725 85.679 94.6653 87.2264 93.5244 89.1885C92.456 91.0589 92.3451 93.3163 92.6698 95.4039C93.1045 98.8306 94.6914 101.961 95.401 105.325C95.7563 107.069 95.9989 108.893 95.6017 110.654C95.2667 112.44 94.221 113.959 93.4423 115.57C92.7763 116.95 92.4822 118.463 92.3409 119.98C91.7344 119.738 91.9753 119.003 92.0276 118.513C92.2808 116.742 93.0942 115.132 93.9014 113.557C94.7385 111.998 95.2106 110.228 95.1495 108.454C95.0474 105.379 93.8505 102.508 92.9742 99.6024C92.4017 97.7224 91.9808 95.7863 91.9014 93.819C91.8526 92.2479 92.0636 90.6246 92.8031 89.2174C93.6996 87.4638 95.1474 86.0917 96.3354 84.5443C97.6343 82.891 98.7288 81.0041 99.0989 78.9111C99.5257 76.9376 99.3755 74.9005 99.0875 72.9218C98.9868 72.2799 98.8645 71.6421 98.7253 71.0085H92.7048C92.5739 72.1772 92.3399 73.3373 92.0581 74.4733C91.3763 77.0963 90.3963 79.6378 89.1761 82.0574C88.9386 82.5199 88.751 83.0299 88.3452 83.3773C89.0331 81.7564 89.8867 80.2062 90.4921 78.5489C91.4406 76.1393 92.1832 73.5926 92.4426 71.0085H82.9583C82.7136 71.6318 82.447 72.2473 82.1539 72.8517C81.4051 74.4063 80.4377 75.862 79.2395 77.107C77.3062 79.1389 75.1145 80.9021 72.9045 82.6216C71.1929 83.9048 69.4699 85.179 67.6274 86.2683C65.7638 87.3803 63.7841 88.4669 61.5848 88.6772C61.3893 88.6906 61.1938 88.6954 60.9997 88.692V89.4363C61.0931 89.4363 61.1876 89.4338 61.2821 89.4301C62.8244 89.4387 64.2985 88.9064 65.6796 88.2675C67.6339 87.337 69.4651 86.1745 71.2317 84.9298C70.7335 87.5676 70.3335 90.2428 70.3998 92.9355C70.3675 94.3049 70.4479 95.6736 70.6572 97.0282C70.974 99.735 71.6506 102.388 72.5252 104.965C72.7173 105.631 73.3344 106.019 73.8867 106.365C75.3461 107.25 76.8928 107.981 78.4378 108.702C81.6865 110.159 84.9971 111.471 88.3183 112.751C87.2472 114.852 86.1084 116.932 84.6442 118.789C82.9971 120.936 81.0061 122.837 78.6986 124.26C76.0643 125.869 73.0671 126.793 70.0349 127.285C67.0597 127.754 64.0048 128.035 60.9997 127.745V146.87ZM104.086 79.3354C104.553 77.1987 105.322 75.1414 106.133 73.1156C106.436 72.5012 106.625 71.8167 107.074 71.2872C106.544 73.3174 105.749 75.2733 105.18 77.2949C103.834 81.6234 103.746 86.3243 104.902 90.707C105.465 92.7974 106.218 94.8671 107.423 96.6808C107.634 97.0117 107.847 97.3371 108.049 97.6759C107.947 97.7127 107.742 97.7842 107.639 97.821C106.962 97.2956 106.574 96.4918 106.143 95.7688C104.494 92.5953 103.703 89.0304 103.504 85.4745C103.453 83.4165 103.589 81.3409 104.086 79.3354ZM103.713 101.108C103.398 100.372 103.319 99.5667 103.052 98.8144C102.776 97.9031 102.308 97.0677 101.971 96.1794C102.297 96.3626 102.546 96.6492 102.717 96.9797C103.301 98.0419 103.836 99.1766 103.93 100.403C103.981 100.661 103.828 100.888 103.713 101.108ZM86.697 88.0679C86.8716 87.5958 86.9692 87.058 87.364 86.7088C87.2472 87.4343 86.9225 88.1026 86.685 88.795C86.4153 89.4524 86.2764 90.1706 85.8751 90.7685C86.0139 89.8311 86.384 88.9566 86.697 88.0679ZM85.0823 78.2836C83.7645 80.5347 82.4133 82.7684 81.2357 85.0979C81.1144 85.3353 80.9501 85.5456 80.768 85.7384C80.9907 84.7766 81.5319 83.9395 81.9848 83.078C82.9642 81.2529 84.0559 79.4932 85.1105 77.7118C85.4369 77.1681 85.7634 76.6077 86.2617 76.2008C85.9483 76.9382 85.484 77.5929 85.0823 78.2836ZM79.0127 89.4043C78.7464 90.4149 78.469 91.438 78.0498 92.3974C78.0525 91.6957 78.2732 91.0253 78.4759 90.361C78.5903 90.0136 78.689 89.6242 79.0127 89.4043ZM102.329 102.27C102.021 101.469 101.849 100.621 101.459 99.8532C101.047 98.9055 100.396 97.9959 100.411 96.9213C100.825 97.3368 101.03 97.8945 101.314 98.3955C101.87 99.4361 102.515 100.506 102.536 101.724C102.566 101.932 102.436 102.104 102.329 102.27ZM111.91 100.121C112.074 102.017 111.984 103.934 111.61 105.802C111.172 108.277 110.559 110.895 108.789 112.784C107.24 114.515 104.987 115.357 102.807 115.972C104.754 113.793 106.575 111.472 107.944 108.88C109.332 106.248 110.437 103.449 111.001 100.522C111.356 98.8014 111.358 97.0347 111.116 95.3011C111.415 95.631 111.7 95.9784 111.992 96.3179C111.858 97.5784 111.779 98.856 111.91 100.121ZM114.803 105.795C114.218 106.157 113.505 105.891 112.921 105.671C113.252 102.972 112.587 100.27 112.888 97.5698C114.207 99.3574 115.466 101.333 115.666 103.604C115.79 104.413 115.544 105.353 114.803 105.795ZM60.9351 74.007C61.2244 73.7912 61.8636 73.5947 61.833 73.0703C61.5533 72.9531 61.2722 73.1322 60.9997 73.2837L60.9351 74.007ZM60.9997 77.6156C61.1412 77.6197 61.2842 77.6097 61.4271 77.5778C62.8219 77.3159 64.2456 77.1946 65.6088 76.7853C64.6498 75.7335 63.4529 74.9201 62.3017 74.0971C61.6934 74.3668 61.3405 74.9603 60.9405 75.3493L60.9997 77.6156ZM60.9997 80.6004C61.535 80.6018 62.0714 80.5096 62.5694 80.332C62.9044 80.2474 62.9831 79.8928 63.0652 79.6076C62.378 79.6231 61.6876 79.6433 60.9997 79.6251V80.6004Z" fill="#212121" stroke="#212121" stroke-width="0.26185" stroke-miterlimit="22.9256"/>
<path d="M114.803 105.795C114.218 106.157 113.505 105.891 112.92 105.671C113.251 102.972 112.587 100.27 112.888 97.5698C114.207 99.3574 115.466 101.333 115.665 103.604C115.79 104.413 115.544 105.353 114.803 105.795Z" fill="#FEFEFE"/>
<path d="M111.91 100.121C112.074 102.017 111.984 103.934 111.61 105.802C111.172 108.277 110.56 110.895 108.789 112.784C107.24 114.516 104.987 115.357 102.807 115.973C104.755 113.793 106.575 111.472 107.944 108.88C109.332 106.248 110.437 103.449 111.001 100.522C111.356 98.8014 111.358 97.0348 111.116 95.3011C111.416 95.631 111.7 95.9784 111.992 96.318C111.858 97.5784 111.779 98.856 111.91 100.121Z" fill="#FEFEFE"/>
<path d="M102.328 102.27C102.021 101.469 101.848 100.621 101.458 99.8533C101.046 98.9055 100.396 97.9959 100.411 96.9214C100.825 97.3368 101.03 97.8946 101.313 98.3956C101.869 99.4361 102.514 100.506 102.535 101.724C102.566 101.932 102.436 102.104 102.328 102.27Z" fill="#FEFEFE"/>
<path d="M79.0022 89.403C78.7358 90.4136 78.4585 91.4366 78.0393 92.3961C78.0421 91.6944 78.2627 91.0239 78.4654 90.3597C78.5799 90.0123 78.6785 89.6229 79.0022 89.403Z" fill="#FEFEFE"/>
<path d="M85.0821 78.2836C83.7643 80.5348 82.4131 82.7684 81.2355 85.0979C81.1142 85.3354 80.9499 85.5457 80.7678 85.7384C80.9905 84.7766 81.5317 83.9395 81.9846 83.078C82.964 81.253 84.0557 79.4932 85.1103 77.7118C85.4368 77.1682 85.7632 76.6077 86.2615 76.2009C85.9481 76.9383 85.4838 77.5929 85.0821 78.2836Z" fill="#FEFEFE"/>
<path d="M86.697 88.068C86.8715 87.5958 86.9691 87.058 87.364 86.7089C87.2471 87.4343 86.9224 88.1027 86.685 88.7951C86.4152 89.4525 86.2764 90.1707 85.875 90.7686C86.0138 89.8312 86.3839 88.9566 86.697 88.068Z" fill="#FEFEFE"/>
<path d="M103.713 101.108C103.398 100.373 103.319 99.5667 103.052 98.8145C102.775 97.9032 102.307 97.0678 101.971 96.1795C102.297 96.3627 102.546 96.6493 102.717 96.9798C103.301 98.042 103.836 99.1767 103.929 100.403C103.981 100.662 103.828 100.888 103.713 101.108Z" fill="#FEFEFE"/>
<path d="M104.077 79.3386C104.545 77.2019 105.313 75.1445 106.125 73.1188C106.427 72.5044 106.616 71.8198 107.066 71.2903C106.535 73.3205 105.74 75.2765 105.172 77.2981C103.826 81.6265 103.737 86.3274 104.893 90.7102C105.456 92.8005 106.209 94.8702 107.415 96.684C107.625 97.0149 107.839 97.3403 108.04 97.6791C107.938 97.7159 107.733 97.7874 107.63 97.8241C106.953 97.2987 106.565 96.495 106.134 95.7719C104.485 92.5985 103.695 89.0336 103.496 85.4776C103.444 83.4196 103.58 81.344 104.077 79.3386Z" fill="#FEFEFE"/>
<path d="M61.0002 88.692C61.1944 88.6954 61.3899 88.6906 61.5854 88.6772C63.7847 88.4669 65.7644 87.3803 67.6279 86.2683C69.4705 85.179 71.1935 83.9048 72.9051 82.6217C75.1151 80.9021 77.3068 79.1389 79.2401 77.107C80.4383 75.862 81.4057 74.4064 82.1545 72.8518C82.4476 72.2473 82.7142 71.6319 82.9589 71.0085H61.0002V73.2837C61.2727 73.1322 61.5538 72.9531 61.8336 73.0703C61.8621 73.5586 61.3099 73.7624 61.0002 73.9624V75.2902C61.3769 74.9026 61.7243 74.3535 62.3023 74.0971C63.4534 74.9201 64.6503 75.7335 65.6094 76.7854C64.2462 77.1946 62.8225 77.316 61.4277 77.5778C61.2848 77.6098 61.1418 77.6197 61.0002 77.6156V79.6252C61.6882 79.6434 62.3785 79.6231 63.0658 79.6076C62.9837 79.8929 62.905 80.2475 62.57 80.332C62.072 80.5097 61.5356 80.6018 61.0002 80.6004V88.692Z" fill="#FEFEFE"/>
<path d="M92.4429 71.0082H92.7051C92.5742 72.1769 92.3402 73.337 92.0584 74.473C91.3766 77.096 90.3966 79.6375 89.1764 82.0571C88.9389 82.5196 88.7513 83.0296 88.3455 83.377C89.0334 81.7561 89.887 80.2059 90.4924 78.5486C91.4409 76.139 92.1835 73.5923 92.4429 71.0082Z" fill="#FEFEFE"/>
<path d="M98.7256 71.0085H99.3274C99.8353 73.3139 100.111 75.6806 99.8442 78.0341C99.6242 80.1069 98.7768 82.0726 97.6105 83.7849C96.3728 85.679 94.6656 87.2264 93.5247 89.1886C92.4563 91.059 92.3454 93.3163 92.6701 95.4039C93.1048 98.8306 94.6917 101.961 95.4013 105.325C95.7567 107.069 95.9993 108.893 95.602 110.654C95.267 112.44 94.2213 113.96 93.4426 115.57C92.7766 116.951 92.4825 118.463 92.3412 119.98C91.7347 119.738 91.9756 119.003 92.0279 118.513C92.2811 116.742 93.0945 115.132 93.9017 113.557C94.7388 111.998 95.2109 110.228 95.1498 108.454C95.0477 105.379 93.8508 102.508 92.9745 99.6024C92.402 97.7224 91.9811 95.7864 91.9017 93.819C91.8529 92.2479 92.0639 90.6246 92.8034 89.2174C93.6999 87.4639 95.1477 86.0917 96.3357 84.5443C97.6346 82.8911 98.7291 81.0042 99.0992 78.9111C99.526 76.9376 99.3758 74.9005 99.0878 72.9219C98.9871 72.28 98.8648 71.6422 98.7256 71.0085Z" fill="#FEFEFE"/>
<path d="M113.343 71.0085H116.698C116.7 71.0501 116.702 71.092 116.704 71.1339C116.816 72.8569 116.473 74.5754 115.955 76.2112C115.216 78.5338 114.002 80.6671 113.232 82.9774C112.6 84.8234 112.269 86.7951 112.425 88.747C111.434 86.6522 111.04 84.2502 111.452 81.9581C111.731 80.1399 112.597 78.4957 113.112 76.7448C113.632 75.0088 113.622 73.16 113.395 71.3752C113.379 71.2525 113.362 71.1301 113.343 71.0085Z" fill="#FEFEFE"/>
<path d="M61.0002 127.745V89.4363C61.0937 89.4363 61.1882 89.4339 61.2827 89.4301C62.8249 89.4387 64.2991 88.9064 65.6802 88.2676C67.6345 87.337 69.4657 86.1745 71.2323 84.9299C70.7341 87.5676 70.3341 90.2428 70.4004 92.9356C70.3681 94.305 70.4485 95.6736 70.6578 97.0283C70.9746 99.7351 71.6512 102.388 72.5258 104.965C72.7179 105.631 73.335 106.019 73.8872 106.365C75.3467 107.25 76.8934 107.981 78.4384 108.702C81.6871 110.159 84.9977 111.471 88.3189 112.751C87.2478 114.852 86.109 116.932 84.6447 118.789C82.9977 120.936 81.0067 122.837 78.6992 124.26C76.0649 125.869 73.0677 126.793 70.0354 127.285C67.0602 127.754 64.0053 128.035 61.0002 127.745Z" fill="#FEFEFE"/>
</g>
<g opacity="0.5">
<path d="M61.0002 146.87C60.903 146.867 60.8054 146.863 60.7082 146.858C54.3296 146.558 48.0215 145.26 41.9439 143.329C35.8777 141.383 30.0122 138.801 24.511 135.588C22.4223 134.401 20.4846 132.977 18.4499 131.702C17.7943 131.256 17.5142 130.421 17.5273 129.656C17.6066 128.317 17.9898 127.01 18.5293 125.786C19.4842 123.412 20.7602 121.183 22.1289 119.027C21.5512 118.51 20.9454 118.019 20.4365 117.432C20.2279 117.159 19.8482 117.184 19.5444 117.107C16.9242 116.64 14.2394 115.763 12.3157 113.839C10.4504 111.985 9.61503 109.373 9.25112 106.827C8.06764 107.679 6.58555 108.262 5.11135 107.972C3.3186 107.671 1.54856 106.427 1.12864 104.581C0.708713 102.816 1.38361 101.027 2.18978 99.4773C3.44611 97.1636 4.84846 94.9083 6.59791 92.9286C7.22195 92.1431 8.14289 91.4919 8.30612 90.4349C8.7147 88.4658 8.64393 86.4051 8.18826 84.4508C7.50477 81.388 5.74535 78.7042 4.95259 75.6743C4.51617 74.1685 4.31961 72.582 4.38284 71.0085H5.30206C5.29966 71.05 5.29761 71.092 5.29555 71.1339C5.18387 72.8569 5.5268 74.5754 6.04534 76.2111C6.78381 78.5337 7.9979 80.667 8.76765 82.9773C9.39959 84.8233 9.7312 86.7951 9.57519 88.7469C10.5659 86.6521 10.9604 84.2501 10.5483 81.9581C10.269 80.1399 9.40336 78.4956 8.88825 76.7448C8.36799 75.0087 8.37762 73.16 8.60442 71.3751C8.62057 71.2525 8.63807 71.1301 8.65697 71.0085H22.6728C22.1649 73.3139 21.889 75.6805 22.156 78.0341C22.3759 80.1069 23.2233 82.0725 24.3896 83.7848C25.6274 85.679 27.3346 87.2264 28.4755 89.1885C29.5438 91.0589 29.6548 93.3163 29.3301 95.4039C28.8954 98.8306 27.3085 101.961 26.5989 105.325C26.2436 107.069 26.001 108.893 26.3982 110.654C26.7332 112.44 27.7789 113.959 28.5576 115.57C29.2236 116.95 29.5177 118.463 29.659 119.98C30.2655 119.738 30.0246 119.003 29.9723 118.513C29.7191 116.742 28.9057 115.132 28.0985 113.557C27.2614 111.998 26.7893 110.228 26.8504 108.454C26.9525 105.379 28.1494 102.508 29.0256 99.6024C29.5981 97.7224 30.0191 95.7863 30.0985 93.819C30.1472 92.2479 29.9363 90.6246 29.1968 89.2174C28.3002 87.4638 26.8525 86.0917 25.6645 84.5443C24.3656 82.891 23.2711 81.0041 22.901 78.9111C22.4742 76.9376 22.6244 74.9005 22.9124 72.9218C23.0131 72.2799 23.1354 71.6421 23.2746 71.0085H29.295C29.426 72.1772 29.66 73.3373 29.9418 74.4733C30.6235 77.0963 31.6036 79.6378 32.8238 82.0574C33.0613 82.5199 33.2489 83.0299 33.6547 83.3773C32.9668 81.7564 32.1132 80.2062 31.5077 78.5489C30.5593 76.1393 29.8167 73.5926 29.5572 71.0085H39.0416C39.2862 71.6318 39.5529 72.2473 39.846 72.8517C40.5948 74.4063 41.5622 75.862 42.7604 77.107C44.6937 79.1389 46.8854 80.9021 49.0953 82.6216C50.807 83.9048 52.53 85.179 54.3725 86.2683C56.2361 87.3803 58.2158 88.4669 60.415 88.6772C60.6105 88.6906 60.8061 88.6954 61.0002 88.692V89.4363C60.9068 89.4363 60.8122 89.4338 60.7178 89.4301C59.1755 89.4387 57.7013 88.9064 56.3203 88.2675C54.366 87.337 52.5348 86.1745 50.7681 84.9298C51.2664 87.5676 51.6664 90.2428 51.6001 92.9355C51.6324 94.3049 51.552 95.6736 51.3427 97.0282C51.0259 99.735 50.3492 102.388 49.4747 104.965C49.2826 105.631 48.6654 106.019 48.1132 106.365C46.6538 107.25 45.1071 107.981 43.5621 108.702C40.3134 110.159 37.0028 111.471 33.6816 112.751C34.7527 114.852 35.8915 116.932 37.3557 118.789C39.0028 120.936 40.9938 122.837 43.3013 124.26C45.9356 125.869 48.9328 126.793 51.965 127.285C54.9402 127.754 57.9951 128.035 61.0002 127.745V146.87ZM17.9142 79.3354C17.4465 77.1987 16.6781 75.1414 15.8665 73.1156C15.5637 72.5012 15.3751 71.8167 14.9256 71.2872C15.4562 73.3174 16.2513 75.2733 16.8197 77.2949C18.1657 81.6234 18.2537 86.3243 17.0981 90.707C16.5352 92.7974 15.7819 94.8671 14.5765 96.6808C14.3662 97.0117 14.1524 97.3371 13.9507 97.6759C14.0528 97.7127 14.2579 97.7842 14.361 97.821C15.0383 97.2956 15.4259 96.4918 15.8572 95.7688C17.5059 92.5953 18.2967 89.0304 18.4956 85.4745C18.5472 83.4165 18.4111 81.3409 17.9142 79.3354ZM18.2867 101.108C18.6018 100.372 18.6805 99.5667 18.9475 98.8144C19.2241 97.9031 19.6922 97.0677 20.0289 96.1794C19.7025 96.3626 19.4537 96.6492 19.2825 96.9797C18.6987 98.0419 18.1637 99.1766 18.0702 100.403C18.0187 100.661 18.1716 100.888 18.2867 101.108ZM35.3028 88.0679C35.1283 87.5958 35.0307 87.058 34.6358 86.7088C34.7527 87.4343 35.0774 88.1026 35.3149 88.795C35.5846 89.4524 35.7234 90.1706 36.1248 90.7685C35.986 89.8311 35.6159 88.9566 35.3028 88.0679ZM36.9176 78.2836C38.2354 80.5347 39.5866 82.7684 40.7642 85.0979C40.8855 85.3353 41.0498 85.5456 41.2319 85.7384C41.0092 84.7766 40.468 83.9395 40.0151 83.078C39.0357 81.2529 37.944 79.4932 36.8894 77.7118C36.5629 77.1681 36.2365 76.6077 35.7382 76.2008C36.0516 76.9382 36.5159 77.5929 36.9176 78.2836ZM42.9872 89.4043C43.2535 90.4149 43.5308 91.438 43.9501 92.3974C43.9473 91.6957 43.7267 91.0253 43.524 90.361C43.4095 90.0136 43.3109 89.6242 42.9872 89.4043ZM19.6712 102.27C19.9784 101.469 20.1513 100.621 20.5413 99.8532C20.9533 98.9055 21.6035 97.9959 21.5887 96.9213C21.1749 97.3368 20.9698 97.8945 20.6863 98.3955C20.1303 99.4361 19.4853 100.506 19.4643 101.724C19.4337 101.932 19.564 102.104 19.6712 102.27ZM10.0899 100.121C9.92568 102.017 10.0157 103.934 10.3903 105.802C10.8277 108.277 11.4404 110.895 13.2105 112.784C14.76 114.515 17.0125 115.357 19.1929 115.972C17.2455 113.793 15.4249 111.472 14.0555 108.88C12.6676 106.248 11.5628 103.449 10.9989 100.522C10.6435 98.8014 10.6418 97.0347 10.8838 95.3011C10.5844 95.631 10.2999 95.9784 10.0075 96.3179C10.1418 97.5784 10.2212 98.856 10.0899 100.121ZM7.19652 105.795C7.78139 106.157 8.49443 105.891 9.0793 105.671C8.74838 102.972 9.41264 100.27 9.11162 97.5698C7.79274 99.3574 6.534 101.333 6.33434 103.604C6.2096 104.413 6.45564 105.353 7.19652 105.795ZM61.0648 74.007C60.7755 73.7912 60.1363 73.5947 60.1669 73.0703C60.4466 72.9531 60.7277 73.1322 61.0002 73.2837L61.0648 74.007ZM61.0002 77.6156C60.8587 77.6197 60.7157 77.6097 60.5727 77.5778C59.1779 77.3159 57.7543 77.1946 56.3911 76.7853C57.3502 75.7335 58.547 74.9201 59.6982 74.0971C60.3064 74.3668 60.6593 74.9603 61.0593 75.3493L61.0002 77.6156ZM61.0002 80.6004C60.4649 80.6018 59.9284 80.5096 59.4305 80.332C59.0954 80.2474 59.0168 79.8928 58.9346 79.6076C59.6219 79.6231 60.3123 79.6433 61.0002 79.6251V80.6004Z" fill="#212121" stroke="#212121" stroke-width="0.26185" stroke-miterlimit="22.9256"/>
<path d="M7.19631 105.795C7.78117 106.157 8.49422 105.891 9.07909 105.671C8.74817 102.972 9.41243 100.27 9.1114 97.5698C7.79253 99.3574 6.53378 101.333 6.33413 103.604C6.20939 104.413 6.45543 105.353 7.19631 105.795Z" fill="#FEFEFE"/>
<path d="M10.0898 100.121C9.92552 102.017 10.0156 103.934 10.3901 105.802C10.8276 108.277 11.4403 110.895 13.2103 112.784C14.7598 114.516 17.0123 115.357 19.1927 115.973C17.2453 113.793 15.4247 111.472 14.0553 108.88C12.6674 106.248 11.5626 103.449 10.9987 100.522C10.6434 98.8014 10.6417 97.0348 10.8836 95.3011C10.5843 95.631 10.2998 95.9784 10.0073 96.318C10.1417 97.5784 10.221 98.856 10.0898 100.121Z" fill="#FEFEFE"/>
<path d="M19.6709 102.27C19.9781 101.469 20.151 100.621 20.541 99.8533C20.953 98.9055 21.6031 97.9959 21.5884 96.9214C21.1746 97.3368 20.9695 97.8946 20.686 98.3956C20.13 99.4361 19.485 100.506 19.464 101.724C19.4334 101.932 19.5637 102.104 19.6709 102.27Z" fill="#FEFEFE"/>
<path d="M42.9971 89.403C43.2634 90.4136 43.5407 91.4366 43.96 92.3961C43.9572 91.6944 43.7366 91.0239 43.5338 90.3597C43.4194 90.0123 43.3208 89.6229 42.9971 89.403Z" fill="#FEFEFE"/>
<path d="M36.9172 78.2836C38.235 80.5348 39.5862 82.7684 40.7638 85.0979C40.8851 85.3354 41.0494 85.5457 41.2315 85.7384C41.0088 84.7766 40.4676 83.9395 40.0147 83.078C39.0353 81.253 37.9436 79.4932 36.889 77.7118C36.5625 77.1682 36.2361 76.6077 35.7378 76.2009C36.0512 76.9383 36.5155 77.5929 36.9172 78.2836Z" fill="#FEFEFE"/>
<path d="M35.3027 88.068C35.1282 87.5958 35.0306 87.058 34.6357 86.7089C34.7526 87.4343 35.0773 88.1027 35.3148 88.7951C35.5845 89.4525 35.7234 90.1707 36.1247 90.7686C35.9859 89.8312 35.6158 88.9566 35.3027 88.068Z" fill="#FEFEFE"/>
<path d="M18.2868 101.108C18.602 100.373 18.6806 99.5667 18.9476 98.8145C19.2243 97.9032 19.6923 97.0678 20.0291 96.1795C19.7026 96.3626 19.4538 96.6492 19.2827 96.9798C18.6988 98.042 18.1638 99.1767 18.0704 100.403C18.0188 100.662 18.1717 100.888 18.2868 101.108Z" fill="#FEFEFE"/>
<path d="M17.9234 79.3386C17.4558 77.2019 16.6874 75.1445 15.8757 73.1188C15.573 72.5044 15.3843 71.8198 14.9349 71.2903C15.4654 73.3205 16.2606 75.2765 16.8289 77.2981C18.175 81.6265 18.263 86.3274 17.1073 90.7102C16.5444 92.8005 15.7912 94.8702 14.5857 96.684C14.3754 97.0149 14.1617 97.3403 13.96 97.6791C14.062 97.7159 14.2672 97.7874 14.3702 97.8241C15.0475 97.2987 15.4352 96.495 15.8664 95.7719C17.5152 92.5985 18.3059 89.0336 18.5049 85.4776C18.5564 83.4196 18.4203 81.344 17.9234 79.3386Z" fill="#FEFEFE"/>
<path d="M61.0002 88.692C60.806 88.6954 60.6105 88.6906 60.415 88.6772C58.2157 88.4669 56.236 87.3803 54.3725 86.2683C52.5299 85.179 50.8069 83.9048 49.0953 82.6217C46.8853 80.9021 44.6936 79.1389 42.7604 77.107C41.5621 75.862 40.5947 74.4064 39.846 72.8518C39.5528 72.2473 39.2862 71.6319 39.0415 71.0085H61.0002V73.2837C60.7277 73.1322 60.4466 72.9531 60.1669 73.0703C60.1383 73.5586 60.6906 73.7624 61.0002 73.9624V75.2902C60.6236 74.9026 60.2761 74.3535 59.6981 74.0971C58.5469 74.9201 57.3501 75.7335 56.391 76.7854C57.7542 77.1946 59.1779 77.316 60.5727 77.5778C60.7156 77.6098 60.8586 77.6197 61.0002 77.6156V79.6252C60.3122 79.6434 59.6218 79.6231 58.9346 79.6076C59.0167 79.8929 59.0954 80.2475 59.4304 80.332C59.9284 80.5097 60.4648 80.6018 61.0002 80.6004V88.692Z" fill="#FEFEFE"/>
<path d="M29.5578 71.0082H29.2957C29.4266 72.1769 29.6606 73.337 29.9424 74.473C30.6242 77.096 31.6042 79.6375 32.8245 82.0571C33.0619 82.5196 33.2495 83.0296 33.6554 83.377C32.9674 81.7561 32.1138 80.2059 31.5083 78.5486C30.5599 76.139 29.8173 73.5923 29.5578 71.0082Z" fill="#FEFEFE"/>
<path d="M23.2745 71.0085H22.6727C22.1649 73.3139 21.8889 75.6806 22.1559 78.0341C22.3758 80.1069 23.2233 82.0726 24.3896 83.7849C25.6273 85.679 27.3345 87.2264 28.4754 89.1886C29.5438 91.059 29.6548 93.3163 29.33 95.4039C28.8953 98.8306 27.3084 101.961 26.5988 105.325C26.2435 107.069 26.0009 108.893 26.3981 110.654C26.7332 112.44 27.7788 113.96 28.5575 115.57C29.2235 116.951 29.5177 118.463 29.6589 119.98C30.2654 119.738 30.0245 119.003 29.9723 118.513C29.719 116.742 28.9056 115.132 28.0984 113.557C27.2613 111.998 26.7892 110.228 26.8503 108.454C26.9524 105.379 28.1493 102.508 29.0255 99.6024C29.598 97.7224 30.019 95.7864 30.0984 93.819C30.1472 92.2479 29.9362 90.6246 29.1967 89.2174C28.3001 87.4639 26.8524 86.0917 25.6645 84.5443C24.3655 82.8911 23.271 81.0042 22.9009 78.9111C22.4741 76.9376 22.6243 74.9005 22.9123 72.9219C23.013 72.28 23.1353 71.6422 23.2745 71.0085Z" fill="#FEFEFE"/>
<path d="M8.65696 71.0085H5.30205C5.29964 71.0501 5.2976 71.092 5.29554 71.1339C5.18386 72.8569 5.52678 74.5754 6.04533 76.2112C6.7838 78.5338 7.99789 80.6671 8.76763 82.9774C9.39958 84.8234 9.73119 86.7951 9.57518 88.747C10.5659 86.6522 10.9603 84.2502 10.5483 81.9581C10.269 80.1399 9.40335 78.4957 8.88824 76.7448C8.36798 75.0088 8.37761 73.16 8.60441 71.3752C8.62056 71.2525 8.63806 71.1301 8.65696 71.0085Z" fill="#FEFEFE"/>
<path d="M61.0001 127.745V89.4363C60.9066 89.4363 60.8121 89.4339 60.7176 89.4301C59.1754 89.4387 57.7012 88.9064 56.3201 88.2676C54.3658 87.337 52.5346 86.1745 50.768 84.9299C51.2662 87.5676 51.6663 90.2429 51.5999 92.9356C51.6322 94.305 51.5518 95.6737 51.3425 97.0283C51.0257 99.7351 50.3491 102.388 49.4745 104.965C49.2824 105.631 48.6653 106.019 48.113 106.365C46.6536 107.25 45.1069 107.981 43.562 108.702C40.3132 110.159 37.0026 111.471 33.6814 112.751C34.7525 114.852 35.8913 116.932 37.3555 118.789C39.0026 120.936 40.9936 122.837 43.3011 124.26C45.9355 125.869 48.9326 126.793 51.9649 127.285C54.94 127.754 57.995 128.035 61.0001 127.745Z" fill="#FEFEFE"/>
</g>
<g opacity="0.5">
<path d="M80.5156 38.3567C79.8125 37.8955 78.6095 37.0108 77.9312 36.5167C76.0329 35.2294 74.2714 33.7428 72.6742 32.0975C68.9351 28.078 62.4188 22.9939 60.9996 17.7263C60.9803 12.3938 60.9678 37.8848 60.9678 39.2659L80.5156 38.3567Z" fill="#FEFEFE"/>
<path d="M85.186 37.2712C84.9519 36.9815 84.6997 36.7048 84.43 36.444C82.7743 34.8657 80.8269 33.6289 78.8307 32.5327C76.6775 31.3214 74.4143 30.2782 72.4504 28.7631C74.6298 31.8957 77.6751 34.2716 80.7719 36.4406C81.3283 36.8399 81.8922 37.2365 82.4513 37.6402L85.186 37.2712Z" fill="#FEFEFE" stroke="#212121" stroke-width="0.26185" stroke-miterlimit="22.9256"/>
<path d="M82.4526 37.6405C81.8935 37.2367 81.3295 36.8402 80.7732 36.4409C77.6763 34.2718 74.6311 31.896 72.4517 28.7634C74.4156 30.2785 76.6788 31.3217 78.832 32.5331C80.8282 33.6293 82.7756 34.866 84.4312 36.4443C84.701 36.7051 84.9532 36.9818 85.1872 37.2714C87.68 36.9151 90.1737 36.5027 92.6671 36.0354C90.6081 32.5049 87.7095 29.5379 85.0532 26.4528C84.3498 25.6383 83.6504 24.8171 83.0298 23.9363C82.7838 23.582 82.5175 23.1961 82.5536 22.7446C83.5556 23.7274 84.3525 24.8933 85.2968 25.9287C87.0504 28.0156 88.9067 30.017 90.5888 32.1626C91.5534 33.3526 92.4586 34.6041 93.231 35.9288C94.496 35.6876 95.7612 35.432 97.0261 35.1625C96.9292 34.8653 96.8186 34.5725 96.6777 34.2914C95.7124 32.3032 94.1778 30.6482 92.475 29.2641C91.6221 28.5397 90.6981 27.905 89.7325 27.3387C89.3947 27.1256 88.994 26.9641 88.7951 26.594C89.784 26.8943 90.6263 27.5218 91.4984 28.0575C93.6822 29.5266 95.6585 31.3908 96.966 33.6959C97.1986 34.1289 97.4265 34.5753 97.5876 35.0419C100.467 34.4186 103.348 33.7207 106.229 32.9499C105.947 32.2485 105.574 31.5839 105.112 30.9826C103.617 29.0431 101.6 27.596 99.5653 26.2727C97.8667 25.1651 95.9492 24.4658 94.1939 23.4621C92.7668 22.646 91.5878 21.4233 90.7995 19.9821C89.6246 17.8409 88.8871 15.5018 87.9934 13.2376C87.0174 10.6191 85.8934 8.02223 84.2577 5.74083C82.8639 3.81888 80.8667 2.32371 78.5877 1.62888C75.5572 0.686978 72.2586 0.8643 69.238 1.75466C66.6728 2.54365 64.3144 3.86868 62.0774 5.3281C61.7416 4.95594 61.3812 4.60716 61.0004 4.28243C60.9856 9.86204 60.9829 13.0589 61.0004 17.722C62.4196 22.9896 68.936 28.0737 72.6751 32.0932C74.2723 33.7385 76.0338 35.2251 77.932 36.5124C78.6104 37.0065 79.3128 37.4707 80.0158 37.9319L82.4526 37.6405ZM87.8074 35.4041C87.9769 35.6615 87.8267 35.8711 87.6102 36.0361C87.0621 35.0488 86.5157 34.0478 85.7552 33.2011C84.5759 31.8963 83.0958 30.8881 81.5192 30.1218C81.1083 29.9149 80.6368 29.7795 80.3444 29.4008C81.109 29.5063 81.7845 29.9029 82.4783 30.2169C84.7223 31.3403 86.7831 33.0667 87.8074 35.4041ZM73.6998 6.0147C75.4352 6.22329 77.1623 6.82808 78.4891 7.99782C80.3719 9.64143 81.3869 12.0871 81.744 14.5214C81.7831 14.8506 81.8426 15.4884 81.345 15.4475C81.1223 14.7204 81.0814 13.9513 80.8711 13.22C80.302 10.9053 78.9701 8.65177 76.8413 7.46898C75.6901 6.78033 74.3459 6.5944 73.0943 6.17722C73.2785 6.04802 73.4819 5.99477 73.6998 6.0147ZM73.5723 9.24591C75.6138 8.71603 77.8509 10.1675 78.3797 12.1716C77.8107 11.8424 77.4145 11.3101 76.9317 10.8799C76.3235 10.3177 75.5743 9.87612 74.7513 9.73489C73.7861 9.63111 72.8215 9.82115 71.8648 9.92939C72.2871 9.43181 72.9768 9.38577 73.5723 9.24591Z" fill="#212121"/>
<path d="M82.4526 37.6405C81.8935 37.2367 81.3295 36.8402 80.7732 36.4409C77.6763 34.2718 74.6311 31.896 72.4517 28.7634C74.4156 30.2785 76.6788 31.3217 78.832 32.5331C80.8282 33.6293 82.7756 34.866 84.4312 36.4443C84.701 36.7051 84.9532 36.9818 85.1872 37.2714C87.68 36.9151 90.1737 36.5027 92.6671 36.0354C90.6081 32.5049 87.7095 29.5379 85.0532 26.4528C84.3498 25.6383 83.6504 24.8171 83.0298 23.9363C82.7838 23.582 82.5175 23.1961 82.5536 22.7446C83.5556 23.7274 84.3525 24.8933 85.2968 25.9287C87.0504 28.0156 88.9067 30.017 90.5888 32.1626C91.5534 33.3526 92.4586 34.6041 93.231 35.9288C94.496 35.6876 95.7612 35.432 97.0261 35.1625C96.9292 34.8653 96.8186 34.5725 96.6777 34.2914C95.7124 32.3032 94.1778 30.6482 92.475 29.2641C91.6221 28.5397 90.6981 27.905 89.7325 27.3387C89.3947 27.1256 88.994 26.9641 88.7951 26.594C89.784 26.8943 90.6263 27.5218 91.4984 28.0575C93.6822 29.5266 95.6585 31.3908 96.966 33.6959C97.1986 34.1289 97.4265 34.5753 97.5876 35.0419C100.467 34.4186 103.348 33.7207 106.229 32.9499C105.947 32.2485 105.574 31.5839 105.112 30.9826C103.617 29.0431 101.6 27.596 99.5653 26.2727C97.8667 25.1651 95.9492 24.4658 94.1939 23.4621C92.7668 22.646 91.5878 21.4233 90.7995 19.9821C89.6246 17.8409 88.8871 15.5018 87.9934 13.2376C87.0174 10.6191 85.8934 8.02223 84.2577 5.74083C82.8639 3.81888 80.8667 2.32371 78.5877 1.62888C75.5572 0.686978 72.2586 0.8643 69.238 1.75466C66.6728 2.54365 64.3144 3.86868 62.0774 5.3281C61.7416 4.95594 61.3812 4.60716 61.0004 4.28243C60.9856 9.86204 60.9829 13.0589 61.0004 17.722C62.4196 22.9896 68.936 28.0737 72.6751 32.0932C74.2723 33.7385 76.0338 35.2251 77.932 36.5124C78.6104 37.0065 79.3128 37.4707 80.0158 37.9319M87.8074 35.4041C87.9769 35.6615 87.8267 35.8711 87.6102 36.0361C87.0621 35.0488 86.5157 34.0478 85.7552 33.2011C84.5759 31.8963 83.0958 30.8881 81.5192 30.1218C81.1083 29.9149 80.6368 29.7795 80.3444 29.4008C81.109 29.5063 81.7845 29.9029 82.4783 30.2169C84.7223 31.3403 86.7831 33.0667 87.8074 35.4041ZM73.6998 6.0147C75.4352 6.22329 77.1623 6.82808 78.4891 7.99782C80.3719 9.64143 81.3869 12.0871 81.744 14.5214C81.7831 14.8506 81.8426 15.4884 81.345 15.4475C81.1223 14.7204 81.0814 13.9513 80.8711 13.22C80.302 10.9053 78.9701 8.65177 76.8413 7.46898C75.6901 6.78033 74.3459 6.5944 73.0943 6.17722C73.2785 6.04801 73.4819 5.99477 73.6998 6.0147ZM73.5723 9.24591C75.6138 8.71603 77.8509 10.1675 78.3797 12.1716C77.8107 11.8424 77.4145 11.3101 76.9317 10.8799C76.3235 10.3177 75.5743 9.87612 74.7513 9.73489C73.7861 9.63111 72.8215 9.82115 71.8648 9.92939C72.2871 9.43181 72.9768 9.38577 73.5723 9.24591Z" stroke="#212121" stroke-width="0.26185" stroke-miterlimit="22.9256"/>
<path d="M73.5713 9.24574C75.6128 8.71586 77.8499 10.1674 78.3787 12.1715C77.8097 11.8423 77.4135 11.31 76.9307 10.8798C76.3224 10.3176 75.5733 9.87599 74.7503 9.73475C73.785 9.63097 72.8205 9.82101 71.8638 9.92925C72.2861 9.43167 72.9758 9.3856 73.5713 9.24574Z" fill="#FEFEFE" stroke="#212121" stroke-width="0.26185" stroke-miterlimit="22.9256"/>
<path d="M73.6992 6.01487C75.4346 6.22345 77.1617 6.82825 78.4885 7.99799C80.3713 9.6416 81.3863 12.0872 81.7434 14.5216C81.7825 14.8508 81.842 15.4886 81.3444 15.4477C81.1217 14.7205 81.0808 13.9515 80.8705 13.2202C80.3015 10.9055 78.9695 8.65194 76.8407 7.46914C75.6895 6.7805 74.3453 6.59456 73.0938 6.17739C73.2779 6.04818 73.4813 5.99494 73.6992 6.01487Z" fill="#FEFEFE" stroke="#212121" stroke-width="0.26185" stroke-miterlimit="22.9256"/>
<path d="M87.8059 35.4039C87.9753 35.6613 87.8251 35.8709 87.6087 36.0358C87.0606 35.0486 86.5142 34.0476 85.7537 33.2008C84.5743 31.8961 83.0943 30.8878 81.5177 30.1215C81.1067 29.9147 80.6352 29.7793 80.3428 29.4006C81.1074 29.5061 81.783 29.9026 82.4768 30.2167C84.7207 31.3401 86.7815 33.0665 87.8059 35.4039Z" fill="#FEFEFE" stroke="#212121" stroke-width="0.26185" stroke-miterlimit="22.9256"/>
<path d="M85.5158 37.4476C85.2818 37.1579 84.6997 36.7048 84.43 36.444C82.7743 34.8657 80.8269 33.6289 78.8307 32.5327C76.6775 31.3214 74.4143 30.2782 72.4504 28.7631C74.6298 31.8957 77.6751 34.2716 80.7719 36.4406C81.3283 36.8399 82.2291 37.4984 82.7882 37.9022L85.5158 37.4476Z" fill="#FEFEFE"/>
<path d="M93.2303 35.9288C92.4578 34.6041 91.5527 33.3525 90.5881 32.1625C88.906 30.0169 87.0497 28.0155 85.2961 25.9286C84.3518 24.8933 83.5549 23.7273 82.5529 22.7445C82.5168 23.196 82.7831 23.5819 83.0291 23.9362C83.6497 24.817 84.3491 25.6383 85.0525 26.4527C87.7088 29.5378 90.6074 32.5048 92.6664 36.0353L93.2303 35.9288Z" fill="#FEFEFE" stroke="#212121" stroke-width="0.26185" stroke-miterlimit="22.9256"/>
<path d="M97.5866 35.0419C97.4254 34.5753 97.1976 34.1289 96.965 33.6959C95.6574 31.3908 93.6811 29.5266 91.4973 28.0575C90.6252 27.5218 89.7829 26.8943 88.7939 26.5939C88.9929 26.964 89.3936 27.1256 89.7314 27.3386C90.697 27.9049 91.6211 28.5396 92.474 29.264C94.1767 30.6482 95.7113 32.3031 96.6766 34.2914C96.8175 34.5725 96.9282 34.8653 97.0251 35.1625L97.5866 35.0419Z" fill="#FEFEFE" stroke="#212121" stroke-width="0.26185" stroke-miterlimit="22.9256"/>
<path d="M41.4194 38.3567C42.1225 37.8955 43.3665 37.0099 44.0449 36.5158C45.9431 35.2285 47.7046 33.7419 49.3018 32.0966C53.0409 28.0771 59.5573 22.993 60.9765 17.7254C60.9957 12.3929 60.9673 37.8848 60.9673 39.2659C57.8302 39.2377 54.58 38.989 51.4207 38.8113C49.7929 38.7123 48.043 38.8772 46.42 38.7401L41.4194 38.3567Z" fill="#FEFEFE"/>
</g>
<g opacity="0.5">
<path d="M36.8127 37.2715C37.0468 36.9818 37.299 36.7052 37.5687 36.4443C39.2244 34.866 41.1718 33.6293 43.168 32.5331C45.3212 31.3218 47.5844 30.2785 49.5482 28.7634C47.3689 31.896 44.3236 34.2719 41.2267 36.4409C40.6704 36.8402 40.1065 37.2368 39.5474 37.6406L36.8127 37.2715Z" fill="#FEFEFE"/>
<path d="M39.5476 37.6405C40.1067 37.2368 40.6706 36.8402 41.227 36.4409C44.3238 34.2719 47.3691 31.896 49.5484 28.7634C47.5846 30.2785 45.3214 31.3217 43.1682 32.5331C41.172 33.6293 39.2246 34.866 37.5689 36.4443C37.2992 36.7051 37.047 36.9818 36.813 37.2715C34.3202 36.9151 31.8265 36.5027 29.333 36.0354C31.3921 32.5049 34.2907 29.5379 36.947 26.4528C37.6504 25.6384 38.3497 24.8171 38.9703 23.9363C39.2163 23.582 39.4827 23.1962 39.4466 22.7446C38.4446 23.7274 37.6477 24.8934 36.7033 25.9287C34.9498 28.0156 33.0935 30.017 31.4114 32.1626C30.4468 33.3527 29.5416 34.6042 28.7691 35.9289C27.5042 35.6876 26.239 35.432 24.974 35.1626C25.0709 34.8653 25.1816 34.5725 25.3225 34.2914C26.2877 32.3032 27.8224 30.6482 29.5251 29.2641C30.378 28.5397 31.3021 27.905 32.2677 27.3387C32.6055 27.1256 33.0062 26.9641 33.2051 26.594C32.2162 26.8943 31.3739 27.5218 30.5017 28.0576C28.3179 29.5266 26.3417 31.3908 25.0342 33.6959C24.8015 34.1289 24.5737 34.5753 24.4125 35.042C21.5329 34.4186 18.6522 33.7207 15.7715 32.9499C16.0529 32.2486 16.4261 31.584 16.8879 30.9826C18.3831 29.0431 20.4002 27.5961 22.4349 26.2727C24.1335 25.1652 26.051 24.4659 27.8063 23.4621C29.2334 22.646 30.4124 21.4233 31.2007 19.9821C32.3756 17.8409 33.113 15.5018 34.0068 13.2376C34.9827 10.6191 36.1068 8.02223 37.7425 5.74083C39.1363 3.81888 41.1335 2.32371 43.4125 1.62888C46.443 0.686979 49.7415 0.8643 52.7621 1.75466C55.3273 2.54365 57.6857 3.86871 59.9228 5.32813C60.2585 4.95598 60.619 4.6072 60.9998 4.28246C61.0145 9.86207 61.0173 13.0589 60.9998 17.722C59.5805 22.9896 53.0642 28.0737 49.3251 32.0932C47.7279 33.7385 45.9664 35.2251 44.0681 36.5124C43.3898 37.0065 42.6874 37.4708 41.9843 37.9319L39.5476 37.6405ZM34.1927 35.4042C34.0233 35.6615 34.1735 35.8711 34.39 36.0361C34.9381 35.0488 35.4845 34.0478 36.2449 33.2011C37.4243 31.8963 38.9043 30.8881 40.4809 30.1218C40.8919 29.9149 41.3634 29.7795 41.6558 29.4008C40.8912 29.5063 40.2156 29.9029 39.5218 30.217C37.2779 31.3403 35.2171 33.0667 34.1927 35.4042ZM48.3003 6.01473C46.565 6.22332 44.8379 6.82812 43.5111 7.99785C41.6283 9.64146 40.6132 12.0871 40.2562 14.5214C40.217 14.8506 40.1576 15.4884 40.6552 15.4475C40.8778 14.7204 40.9187 13.9513 41.129 13.2201C41.6981 10.9053 43.03 8.65177 45.1588 7.46898C46.31 6.78033 47.6543 6.59443 48.9058 6.17726C48.7216 6.04805 48.5182 5.9948 48.3003 6.01473ZM48.4278 9.24591C46.3863 8.71603 44.1492 10.1676 43.6204 12.1716C44.1894 11.8424 44.5856 11.3102 45.0685 10.8799C45.6767 10.3177 46.4258 9.87616 47.2488 9.73492C48.2141 9.63114 49.1787 9.82118 50.1354 9.92943C49.713 9.43184 49.0233 9.38577 48.4278 9.24591Z" fill="#212121"/>
<path d="M48.428 9.24593C46.3865 8.71604 44.1495 10.1676 43.6206 12.1717C44.1897 11.8425 44.5859 11.3102 45.0687 10.8799C45.6769 10.3178 46.426 9.87617 47.249 9.73493C48.2143 9.63116 49.1789 9.82119 50.1356 9.92944C49.7133 9.43185 49.0236 9.38578 48.428 9.24593Z" fill="#FEFEFE"/>
<path d="M48.2995 6.01508C46.5642 6.22367 44.8371 6.82847 43.5103 7.9982C41.6275 9.64181 40.6124 12.0875 40.2554 14.5218C40.2162 14.851 40.1568 15.4888 40.6543 15.4479C40.877 14.7207 40.9179 13.9517 41.1282 13.2204C41.6972 10.9057 43.0292 8.65215 45.158 7.46936C46.3092 6.78071 47.6535 6.59478 48.905 6.1776C48.7208 6.0484 48.5174 5.99515 48.2995 6.01508Z" fill="#FEFEFE"/>
<path d="M34.1927 35.4042C34.0232 35.6615 34.1734 35.8711 34.3899 36.0361C34.938 35.0488 35.4844 34.0478 36.2449 33.2011C37.4242 31.8963 38.9042 30.8881 40.4808 30.1218C40.8918 29.9149 41.3633 29.7795 41.6557 29.4008C40.8912 29.5063 40.2156 29.9029 39.5218 30.217C37.2778 31.3403 35.217 33.0667 34.1927 35.4042Z" fill="#FEFEFE"/>
<path d="M28.7693 35.9289C29.5418 34.6042 30.4469 33.3527 31.4115 32.1626C33.0936 30.017 34.9499 28.0156 36.7035 25.9287C37.6478 24.8934 38.4447 23.7274 39.4468 22.7446C39.4828 23.1962 39.2165 23.582 38.9705 23.9363C38.3499 24.8171 37.6506 25.6384 36.9471 26.4528C34.2908 29.5379 31.3923 32.5049 29.3332 36.0354L28.7693 35.9289Z" fill="#FEFEFE"/>
<path d="M24.4124 35.042C24.5735 34.5753 24.8013 34.1289 25.034 33.696C26.3415 31.3908 28.3177 29.5266 30.5015 28.0576C31.3737 27.5219 32.216 26.8943 33.205 26.594C33.006 26.9641 32.6053 27.1256 32.2675 27.3387C31.3019 27.905 30.3778 28.5397 29.5249 29.2641C27.8222 30.6482 26.2876 32.3032 25.3223 34.2914C25.1814 34.5725 25.0708 34.8653 24.9738 35.1626L24.4124 35.042Z" fill="#FEFEFE"/>
</g>
</svg>
