<svg width="379" height="241" viewBox="0 0 379 241" fill="none" xmlns="http://www.w3.org/2000/svg">
<g filter="url(#filter0_d_439_80)">
<mask id="mask0_439_80" style="mask-type:luminance" maskUnits="userSpaceOnUse" x="-4" y="-4" width="387" height="249">
<path d="M369.749 -2H9.25142C2.92858 -2 -2 3.39963 -2 9.81004V231.19C-2 237.6 2.92858 243 9.25142 243H369.749C376.071 243 381 237.6 381 231.19V9.81004C381 3.39963 376.071 -2 369.749 -2Z" fill="white" stroke="white" stroke-width="4"/>
</mask>
<g mask="url(#mask0_439_80)">
<path d="M381.101 0V-2H379.101H0H-2V0V241.19V243.19H0H379.101H381.101V241.19V0Z" fill="#212121" stroke="#0E397A" stroke-width="4"/>
<path fill-rule="evenodd" clip-rule="evenodd" d="M318.352 79.7462L324.582 75.9294L318.352 72.1123V79.7462ZM299.991 75.9297L305.453 79.2534V72.5848L299.991 75.9297ZM269.032 77.7308L271.985 75.9297L269.032 74.107V77.7308ZM279.608 93.5345L276.069 91.3472L279.608 89.1814V93.5345ZM246.121 91.3472L244.159 92.5479V90.1677L246.121 91.3472ZM268.486 109.616L273.097 106.786L268.486 103.955V109.616ZM254.533 109.187L250.61 106.786L254.533 104.384V109.187ZM242.804 125.892L248.81 122.225L242.804 118.537V125.892ZM256.595 143.861L246.464 137.642L256.595 131.445V143.861ZM223.027 137.642L217.911 140.773V134.512L223.027 137.642ZM240.923 160.222L252.591 153.081L240.923 145.941V160.222ZM222.198 153.081L230.914 158.42V147.742L222.198 153.081ZM216.536 174.181L225.777 168.52L216.536 162.859V174.181ZM232.107 191.443L219.852 183.938L232.107 176.433V191.443ZM215.849 206.281L227.132 199.377L215.849 192.472V206.281ZM196.698 199.377L205.859 204.973V193.759L196.698 199.377ZM205.07 172.658L198.296 168.52L205.07 164.36V172.658ZM191.805 188.719L199.61 183.938L191.805 179.156V188.719ZM200.217 214.815L191.501 220.155V209.455L200.217 214.815ZM219.771 214.815L232.127 222.384V207.246L219.771 214.815ZM254.937 183.937L239.751 193.244V174.653L254.937 183.937ZM196.921 153.081L193.139 155.397V150.766L196.921 153.081ZM173.14 183.938L179.833 188.055V179.842L173.14 183.938ZM205.899 235.894L196.638 230.233L205.899 224.572V235.894ZM216.071 236.752L226.708 230.233L216.071 223.714V236.752ZM254.776 214.815L239.832 223.971V205.659L254.776 214.815ZM241.995 199.376L258.82 209.669V189.062L241.995 199.376ZM258.354 177.934L242.966 168.52L258.354 159.085V177.934ZM200.965 137.642L203.735 139.336V135.969L200.965 137.642ZM178.519 154.775L175.768 153.081L178.519 151.388V154.775ZM167.659 171.351L172.29 168.52L167.659 165.668V171.351ZM173.645 199.377L166.972 203.451V195.303L173.645 199.377ZM172.533 214.815L180.137 219.447V210.162L172.533 214.815ZM179.631 249.403L173.544 245.672L179.631 241.941V249.403ZM191.926 250.218L199.347 245.672L191.926 241.126V250.218ZM231.237 251.59L221.571 245.672L231.237 239.754V251.59ZM240.903 252.855L252.652 245.672L240.903 238.488V252.855ZM258.234 239.454L243.188 230.233L258.234 221.034V239.454ZM263.693 210.999L282.681 199.377L263.693 187.733V210.999ZM284.926 195.903L265.412 183.938L284.926 171.994V195.903ZM264.138 179.328L281.792 168.52L264.138 157.713V179.328ZM229.357 124.691L225.312 122.225L229.357 119.738V124.691ZM194.231 122.547L194.757 122.225L194.231 121.903V122.547ZM169.682 137.642L168.954 138.092V137.213L169.682 137.642ZM149.642 168.52L153.767 171.029V165.989L149.642 168.52ZM147.336 183.938L142.321 187.004V180.872L147.336 183.938ZM148.874 199.376L154.152 202.614V196.139L148.874 199.376ZM173.342 230.233L167.134 234.05V226.438L173.342 230.233ZM168.064 263.169L171.462 261.111L168.064 259.031V263.169ZM204.747 264.649L198.923 261.111L204.747 257.53V264.649ZM217.385 265.185L224.059 261.111L217.385 257.016V265.185ZM256.757 267.586L246.161 261.111L256.757 254.613V267.586ZM264.219 240.89L281.63 230.233L264.219 219.576V240.89ZM284.926 226.738L265.432 214.816L284.926 202.894V226.738ZM288.465 196.353L308.746 183.938L288.465 171.522V196.353ZM283.632 162.645L268.001 153.081L283.632 143.518V162.645ZM266.1 144.847L277.869 137.642L266.1 130.438V144.847ZM219.044 107.837L220.763 106.786L219.044 105.735V107.837ZM202.987 107.129L202.442 106.786L202.987 106.443V107.129ZM152.068 137.642L152.554 137.943V137.342L152.068 137.642ZM145.355 153.081L143.313 154.346V151.816L145.355 153.081ZM124.385 183.938L128.591 186.511V181.364L124.385 183.938ZM146.609 214.816L142.686 217.217V212.393L146.609 214.816ZM149.865 230.233L153.666 232.57V227.917L149.865 230.233ZM178.276 277.772L176.234 276.528L178.276 275.284V277.772ZM193.463 278.265L196.314 276.528L193.463 274.791V278.265ZM229.518 279.294L225.009 276.528L229.518 273.762V279.294ZM242.683 280.452L249.093 276.528L242.683 272.604V280.452ZM279.183 261.111L265.432 269.516V252.684L279.183 261.111ZM266.909 245.672L284.178 256.243V235.1L266.909 245.672ZM308.888 214.816L288.405 227.36V202.25L308.888 214.816ZM289.8 199.377L310.547 212.071V186.682L289.8 199.377ZM310.224 180.635L290.427 168.52L310.224 156.383V180.635ZM289.679 163.288L306.341 153.081L289.679 142.874V163.288ZM281.246 127.393L272.793 122.225L281.246 117.036V127.393ZM227.173 91.3472L228.447 92.1405V90.5751L227.173 91.3472ZM127.782 154.175L126.003 153.081L127.782 151.987V154.175ZM117.752 170.429L120.866 168.52L117.752 166.611V170.429ZM120.866 199.377L117.752 201.285V197.468L120.866 199.377ZM125.477 214.815L128.045 216.381V213.228L125.477 214.815ZM144.991 245.672L143.494 246.594V244.749L144.991 245.672ZM151.482 261.11L152.857 261.947V260.274L151.482 261.11ZM203.129 292.546L202.158 291.967L203.129 291.366V292.546ZM219.064 292.975L220.702 291.967L219.064 290.959V292.975ZM254.998 295.248L249.639 291.967L254.998 288.686V295.248ZM267.232 297.113L275.624 291.967L267.232 286.821V297.113ZM282.702 284.376L269.881 276.528L282.702 268.68V284.376ZM288.667 257.723L308.342 245.672L288.667 233.621V257.723ZM310.486 242.841L289.901 230.233L310.486 217.625V242.841ZM313.502 212.135L334.33 199.377L313.502 186.618V212.135ZM335.844 196.825L314.815 183.938L335.844 171.05V196.825ZM313.684 180.914L333.944 168.52L313.684 156.105V180.914ZM308.342 146.305L294.209 137.642L308.342 129.001V146.305ZM292.004 128.121L301.669 122.225L292.004 116.307V128.121ZM253.785 76.98L252.066 75.9294L253.785 74.8787V76.98ZM219.468 76.1867L219.893 75.9297L219.468 75.6724V76.1867ZM119.35 230.233L118.52 230.748V229.74L119.35 230.233ZM227.638 307.385L228.204 307.749V307.063L227.638 307.385ZM246.302 307.385L244.078 308.757V306.033L246.302 307.385ZM273.704 307.385L280.781 311.738V303.053L273.704 307.385ZM306.119 276.528L289.78 286.542V266.536L306.119 276.528ZM290.326 261.111L310.285 273.312V248.888L290.326 261.111ZM334.49 230.233L313.4 243.142V217.346L334.49 230.233ZM314.732 214.815L335.887 227.745V201.863L314.732 214.815ZM359.888 183.938L338.514 197.039V170.857L359.888 183.938ZM316.471 153.081L335.017 164.425V141.738L316.471 153.081ZM330.688 137.642L315.321 147.056V128.25L330.688 137.642ZM299.162 106.786L305.875 110.903V102.69L299.162 106.786ZM298.234 91.3472L293.722 94.1133V88.5811L298.234 91.3472ZM252.106 322.825L253.785 323.852V321.795L252.106 322.825ZM272.328 322.825L268.87 324.947V320.699L272.328 322.825ZM292.024 313.282L301.629 307.385L292.024 301.51V313.282ZM308.586 301.059L293.722 291.967L308.586 282.854V301.059ZM313.258 274.277L334.792 261.111L313.258 247.924V274.277ZM336.109 259.031L314.288 245.672L336.109 232.313V259.031ZM338.616 227.702L359.666 214.815L338.616 201.928V227.702ZM361.103 212.349L339.911 199.376L361.103 186.404V212.349ZM339.708 168.52L361.202 181.665V155.354L339.708 168.52ZM358.615 153.081L339.162 164.982V141.181L358.615 153.081ZM320.215 122.225L333.155 130.137V114.291L320.215 122.225ZM326.019 106.786L317.646 111.911V101.661L326.019 106.786ZM279.163 339.613L276.959 338.263L279.163 336.912V339.613ZM294.148 340.234L297.383 338.263L294.148 336.268V340.234ZM305.915 327.027L299.06 322.825L305.915 318.62V327.027ZM314.874 302.174L331.557 291.967L314.874 281.739V302.174ZM335.643 289.008L315.238 276.528L335.643 264.048V289.008ZM338.453 258.859L360.012 245.672L338.453 232.484V258.859ZM360.98 242.991L340.173 230.233L360.98 217.496V242.991ZM363.691 212.521L385.166 199.377L363.691 186.232V212.521ZM386.643 197.532L364.458 183.938L386.643 170.364V197.532ZM363.509 182.008L385.53 168.52L363.509 155.033V182.008ZM359.95 148.471L342.255 137.642L359.95 126.813V148.471ZM340.92 130.888L355.096 122.225L340.92 113.54V130.888ZM331.153 95.6142L324.196 91.3472L331.153 87.1014V95.6142ZM304.016 354.41L302.844 353.7L304.016 352.971V354.41ZM317.93 327.413L325.43 322.822L317.93 318.234V327.413ZM333.013 315.04L320.496 307.385L333.013 299.751V315.04ZM338.9 288.922L359.12 276.528L338.9 264.156V288.922ZM361.122 274.105L339.89 261.111L361.122 248.095V274.105ZM364.095 242.627L384.358 230.233L364.095 217.839V242.627ZM386.258 227.66L365.248 214.815L386.258 201.949V227.66ZM388.663 197.49L410.808 183.938L388.663 170.386V197.49ZM386.076 165.625L365.572 153.081L386.076 140.516V165.625ZM364.804 148.771L382.961 137.642L364.804 126.535V148.771ZM357.603 113.326L346.905 106.786L357.603 100.246V113.326ZM343.146 95.9357L350.628 91.3468L343.146 86.7796V95.9357ZM321.125 353.7L320.092 354.322V353.059L321.125 353.7ZM326.361 338.263L330.083 340.535V335.967L326.361 338.263ZM354.085 307.385L341.407 315.147V299.622L354.085 307.385ZM342.782 291.967L359.666 302.303V281.632L342.782 291.967ZM384.053 261.111L364.236 273.226V248.974L384.053 261.111ZM366.219 245.672L385.774 257.637V233.685L366.219 245.672ZM410 214.815L389.089 227.617V202.014L410 214.815ZM390.14 199.377L411.616 212.521V186.232L390.14 199.377ZM411.616 181.643L390.162 168.52L411.616 155.375V181.643ZM389.311 165.475L409.534 153.081L389.311 140.687V165.475ZM384.216 131.359L369.312 122.225L384.216 113.09V131.359ZM367.249 113.39L378.027 106.786L367.249 100.181V113.39ZM355.805 79.167L350.526 75.9294L355.805 72.6914V79.167ZM344.46 340.427L348.019 338.263L344.46 336.075V340.427ZM356.511 327.37L349.11 322.825L356.511 318.299V327.37ZM365.794 301.252L380.96 291.967L365.794 282.683V301.252ZM384.904 286.928L367.937 276.528L384.904 266.15V286.928ZM389.94 256.887L408.261 245.672L389.94 234.457V256.887ZM410.888 242.07L391.577 230.233L410.888 218.397V242.07ZM414.447 211.899L434.893 199.376L414.447 186.854V211.899ZM436.046 195.646L416.914 183.938L436.046 172.23V195.646ZM414.792 180.4L434.205 168.52L414.792 156.641V180.4ZM410.383 148.535L392.589 137.642L410.383 126.749V148.535ZM391.13 131.252L405.893 122.225L391.13 113.176V131.252ZM381.487 95.4638L374.792 91.3468L381.487 87.2512V95.4638ZM369.473 78.4381L373.58 75.9294L369.473 73.4206V78.4381ZM354.208 353.982L353.742 353.7L354.208 353.403V353.982ZM368.686 326.791L375.156 322.825L368.686 318.878V326.791ZM382.597 313.56L372.529 307.385L382.597 301.23V313.56ZM391.294 285.255L405.572 276.528L391.294 267.801V285.255ZM409.695 270.738L393.964 261.111L409.695 251.461V270.738ZM415.116 241.512L433.517 230.233L415.116 218.976V241.512ZM436.188 226.802L416.59 214.816L436.188 202.808V226.802ZM440.838 194.294L457.744 183.938L440.838 173.602V194.294ZM435.216 163.288L418.552 153.081L435.216 142.874V163.288ZM415.721 147.806L432.305 137.642L415.721 127.5V147.806ZM407.937 113.176L397.501 106.786L407.937 100.396V113.176ZM394.023 95.0783L400.11 91.3472L394.023 87.6377V95.0783ZM380.09 339.783L377.583 338.263L380.09 336.719V339.783ZM393.539 312.016L401.082 307.385L393.539 302.774V312.016ZM407.653 297.842L398.069 291.967L407.653 286.092V297.842ZM416.772 269.344L430.242 261.111L416.772 252.855V269.344ZM434.812 255.149L419.341 245.672L434.812 236.194V255.149ZM440.169 226.352L459.036 214.815L440.169 203.258V226.352ZM460.837 210.334L442.941 199.377L460.837 188.419V210.334ZM445.874 168.52L459.36 176.776V160.265L445.874 168.52ZM455.277 153.081L442.072 161.166V144.998L455.277 153.081ZM420.738 122.225L434.125 130.416V114.034L420.738 122.225ZM428.037 106.786L417.867 113.004V100.567L428.037 106.786ZM402.88 75.9294L405.248 77.3662V74.4929L402.88 75.9294ZM396.996 338.263L395.58 339.119V337.406L396.996 338.263ZM402.436 322.825L405.47 324.689V320.981L402.436 322.825ZM425.61 291.967L419.079 295.955V287.957L425.61 291.967ZM423.831 276.528L432.586 281.889V271.189L423.831 276.528ZM455.881 245.672L441.748 254.335V237.009L455.881 245.672ZM443.648 230.233L460.473 240.526V219.94L443.648 230.233ZM483.284 199.377L465.873 210.034V188.719L483.284 199.377ZM470.137 183.938L485.041 193.072V174.824L470.137 183.938ZM479.259 168.52L467.874 175.49V161.551L479.259 168.52ZM447.835 137.642L458.391 144.096V131.188L447.835 137.642ZM453.679 122.225L442.858 128.829V115.599L453.679 122.225ZM425.814 91.3468L431.574 94.885V87.8303L425.814 91.3468ZM422.638 75.9297L420.575 77.1949V74.643L422.638 75.9297ZM420.92 323.466L421.95 322.825L420.92 322.2V323.466ZM430.443 308.843L428.077 307.385L430.443 305.948V308.843ZM444.274 280.538L450.827 276.528L444.274 272.518V280.538ZM458.046 266.943L448.501 261.111L458.046 255.257V266.943ZM466.298 240.097L482.414 230.233L466.298 220.369V240.097ZM486.093 225.859L468.034 214.815L486.093 203.772V225.859ZM491.857 193.158L506.921 183.938L491.857 174.717V193.158ZM482.454 157.477L475.297 153.081L482.454 148.686V157.477ZM469.431 141.781L476.166 137.642L469.431 133.525V141.781ZM457.238 111.139L450.12 106.786L457.238 102.433V111.139ZM444.739 94.5207L449.917 91.3472L444.739 88.1736V94.5207ZM447.024 307.385L446.195 307.9V306.892L447.024 307.385ZM453.152 291.967L455.721 293.554V290.38L453.152 291.967ZM476.894 261.111L469.046 265.893V256.308L476.894 261.111ZM472.364 245.672L483.931 252.748V238.596L472.364 245.672ZM508.762 214.816L490.928 225.73V203.879L508.762 214.816ZM494.891 156.727L500.855 153.081L494.891 149.436V156.727ZM481.261 124.412L477.702 122.225L481.261 120.038V124.412ZM470.301 109.295L474.405 106.786L470.301 104.277V109.295ZM455.418 76.9585L453.738 75.9294L455.418 74.9V76.9585ZM471.171 292.868L472.666 291.967L471.171 291.045V292.868ZM481.239 278.673L477.742 276.528L481.239 274.384V278.673ZM493.436 251.998L503.766 245.672L493.436 239.346V251.998ZM497.54 122.225L496.55 122.825V121.603L497.54 122.225ZM478.957 91.3468L480.635 92.3759V90.339L478.957 91.3468ZM472.324 75.9294L471.352 76.5082V75.329L472.324 75.9294ZM496.023 278.115L498.592 276.528L496.023 274.963V278.115Z" fill="#007EC9"/>
</g>
</g>
<defs>
<filter id="filter0_d_439_80" x="-54" y="-39" width="487" height="349" filterUnits="userSpaceOnUse" color-interpolation-filters="sRGB">
<feFlood flood-opacity="0" result="BackgroundImageFix"/>
<feColorMatrix in="SourceAlpha" type="matrix" values="0 0 0 0 0 0 0 0 0 0 0 0 0 0 0 0 0 0 127 0" result="hardAlpha"/>
<feOffset dy="15"/>
<feGaussianBlur stdDeviation="25"/>
<feColorMatrix type="matrix" values="0 0 0 0 0 0 0 0 0 0 0 0 0 0 0 0 0 0 0.15 0"/>
<feBlend mode="normal" in2="BackgroundImageFix" result="effect1_dropShadow_439_80"/>
<feBlend mode="normal" in="SourceGraphic" in2="effect1_dropShadow_439_80" result="shape"/>
</filter>
</defs>
</svg>
