<svg width="416" height="505" viewBox="0 0 416 505" fill="none" xmlns="http://www.w3.org/2000/svg">
<path d="M326.807 174.202C326.952 169.716 327.165 165.228 327.077 160.743C327.263 149.035 325.13 137.14 319.829 126.633C319.025 125.012 318.165 123.428 317.261 121.875C308.656 123.486 300.051 124.909 291.451 126.14C295.384 131.001 297.888 136.949 299.073 143.082C294.456 136.773 288.315 131.959 282.02 127.412L273.612 128.42C279.048 131.989 284.517 135.52 289.174 140.104C296.269 146.828 301.615 155.871 302.352 165.767C302.417 166.409 302.459 167.05 302.478 167.687C310.295 170.271 318.406 172.445 326.807 174.202Z" fill="#212121"/>
<path d="M328.199 174.49C338.948 176.675 350.173 178.192 361.868 179.037C361.354 177.49 360.94 175.907 360.645 174.293C358.823 166.603 360.495 158.716 362.067 151.139C364.036 142.005 366.656 132.836 366.265 123.401C366.343 119.256 365.594 115.078 364.049 111.23C354.11 113.888 344.171 116.296 334.236 118.446C334.572 119.42 334.825 120.418 334.949 121.448C335.201 122.403 334.186 122.809 333.627 123.331C333.166 121.851 332.779 120.34 332.299 118.864C327.934 119.793 323.567 120.674 319.204 121.508C321.126 124.801 322.81 128.23 324.159 131.808C327.532 140.529 328.854 149.937 328.752 159.251C328.809 164.337 328.472 169.414 328.199 174.49Z" fill="#212121"/>
<path d="M302.466 167.716C299.777 166.828 297.121 165.89 294.501 164.904C258.762 155.883 229.926 163.513 207.995 187.793V132.126C229.86 132.13 251.729 130.903 273.601 128.447C279.037 132.018 284.506 135.549 289.163 140.132C296.257 146.857 301.603 155.899 302.34 165.795C302.406 166.438 302.447 167.078 302.466 167.716Z" fill="#FEFEFE"/>
<path d="M226.241 159.363C226.912 159.207 227.039 158.475 227.301 157.942C228.261 155.674 228.662 153.118 230.289 151.184C230.729 153.298 230.834 155.472 231.403 157.562C232.029 156.084 232.25 154.485 232.545 152.919C232.889 150.985 233.771 149.217 234.665 147.492C234.285 150.66 233.204 154.006 234.475 157.111C236.655 152.84 237.673 147.932 240.784 144.162C241.353 143.56 242.311 141.993 240.744 142.111C238.2 142.49 236.517 144.842 235.161 146.835C235.177 144.745 234.968 142.655 235.035 140.568C231.496 142.481 231.472 146.988 229.53 150.087C229.178 147.338 229.385 144.561 229.117 141.812C226.922 143.92 226.16 147.248 226.72 150.183C226.54 153.213 224.792 156.39 226.241 159.363Z" fill="#212121"/>
<path d="M240.263 145.224C238.014 148.181 237.529 152.481 239.354 155.768C240.38 154.078 241.092 152.211 242.242 150.591C242.203 151.616 242.142 152.639 242.097 153.669C242.476 153.669 243.239 153.669 243.615 153.669C245.189 151.763 246.219 149.384 248.273 147.905C248.04 149.901 247.595 151.865 247.219 153.84C248.502 152.207 249.333 150.13 251.167 149.01C254.29 147.034 257.813 145.769 261.396 144.911C264.278 144.254 267.452 144.146 270.186 145.426C267.933 145.344 265.663 144.812 263.428 145.32C260.663 145.916 258.095 147.163 255.577 148.41C253.547 149.464 251.367 150.596 250.238 152.694C251.265 153.197 252.256 153.845 253.412 154.032C255.945 153.635 257.706 150.975 260.405 151.231C262.495 151.478 264.593 151.373 266.693 151.316C265.522 151.846 264.341 152.37 263.203 152.96C265.651 154.096 268.412 153.261 270.993 153.273L270.864 154.357C270.954 154.23 271.132 153.977 271.222 153.85C271.244 153.7 271.288 153.387 271.306 153.23C271.909 153.24 273.107 153.254 273.71 153.266C273.301 153.411 272.487 153.7 272.077 153.847C272.112 153.931 272.183 154.099 272.218 154.181C274.528 154.42 276.819 153.868 279.133 153.892C282.201 154.199 285.306 154.916 287.803 156.825C287.071 153.055 283.18 151.293 280.141 149.625C278.699 148.595 276.937 148.414 275.266 148.047C273.661 146.743 272.83 144.662 271.005 143.596C269.036 142.452 266.672 142.157 264.431 142.292C259.251 142.792 254.111 144.187 249.679 146.978C251.112 145.253 252.907 143.843 254.079 141.901C250.748 142.148 247.888 144.075 245.52 146.297C246.087 145.153 246.423 143.918 246.65 142.668C244.409 143.071 241.867 143.436 240.263 145.224Z" fill="#212121"/>
<path d="M269.06 149.883C266.004 149.121 262.83 148.941 259.707 149.435C262.664 147.37 266.667 145.996 270.018 148.017C269.699 148.637 269.383 149.265 269.06 149.883Z" fill="#212121"/>
<path d="M282.021 127.412C288.316 131.959 294.457 136.773 299.074 143.082C297.889 136.949 295.385 131.001 291.452 126.14L282.021 127.412Z" fill="#FEFEFE"/>
<path d="M89.2088 174.202C89.0642 169.716 88.8507 165.228 88.9385 160.743C88.7523 149.035 90.8863 137.14 96.1871 126.633C96.9909 125.012 97.8505 123.428 98.7551 121.875C107.36 123.486 115.965 124.909 124.565 126.14C120.632 131.001 118.128 136.949 116.943 143.082C121.56 136.773 127.701 131.959 133.995 127.412L142.404 128.42C136.968 131.989 131.499 135.52 126.842 140.104C119.747 146.828 114.401 155.871 113.664 165.767C113.599 166.409 113.557 167.05 113.538 167.687C105.72 170.271 97.6099 172.445 89.2088 174.202Z" fill="#212121"/>
<path d="M87.8148 174.49C77.0663 176.675 65.8411 178.192 54.1465 179.037C54.6598 177.49 55.0737 175.907 55.3689 174.293C57.1911 166.602 55.5194 158.716 53.9473 151.139C51.9781 142.005 49.3579 132.836 49.7492 123.401C49.6709 119.256 50.4202 115.078 51.9651 111.23C61.9038 113.888 71.8426 116.296 81.7778 118.446C81.4423 119.42 81.1885 120.418 81.0652 121.448C80.8126 122.403 81.8275 122.809 82.3871 123.331C82.8483 121.851 83.2349 120.34 83.715 118.864C88.0803 119.793 92.4469 120.674 96.8098 121.508C94.888 124.801 93.2045 128.23 91.8553 131.808C88.4823 140.529 87.1603 149.937 87.2623 159.251C87.2054 164.337 87.5421 169.414 87.8148 174.49Z" fill="#212121"/>
<path d="M113.547 167.716C116.236 166.828 118.891 165.89 121.512 164.904C157.251 155.882 186.087 163.513 208.018 187.792V132.126C186.153 132.13 164.284 130.903 142.412 128.447C136.976 132.018 131.507 135.548 126.85 140.132C119.756 146.857 114.41 155.899 113.672 165.795C113.607 166.438 113.566 167.078 113.547 167.716Z" fill="#FEFEFE"/>
<path d="M189.77 159.363C189.099 159.207 188.972 158.475 188.71 157.942C187.749 155.674 187.349 153.118 185.722 151.184C185.282 153.298 185.177 155.472 184.608 157.562C183.982 156.084 183.761 154.485 183.466 152.918C183.122 150.985 182.24 149.217 181.346 147.492C181.726 150.66 182.807 154.006 181.536 157.111C179.356 152.84 178.338 147.932 175.227 144.162C174.658 143.56 173.7 141.993 175.266 142.111C177.811 142.49 179.494 144.842 180.849 146.835C180.834 144.745 181.043 142.655 180.976 140.568C184.515 142.481 184.539 146.988 186.481 150.087C186.833 147.338 186.626 144.561 186.894 141.812C189.089 143.92 189.85 147.248 189.291 150.183C189.471 153.213 191.219 156.39 189.77 159.363Z" fill="#212121"/>
<path d="M175.751 145.224C178 148.181 178.485 152.481 176.66 155.767C175.633 154.078 174.922 152.211 173.772 150.591C173.811 151.616 173.871 152.639 173.917 153.669C173.537 153.669 172.775 153.669 172.399 153.669C170.824 151.763 169.794 149.384 167.741 147.905C167.973 149.901 168.419 151.865 168.795 153.84C167.512 152.207 166.681 150.13 164.847 149.01C161.724 147.034 158.2 145.769 154.618 144.911C151.735 144.254 148.561 144.146 145.828 145.426C148.08 145.344 150.351 144.811 152.585 145.32C155.35 145.916 157.918 147.163 160.436 148.41C162.466 149.464 164.646 150.596 165.775 152.694C164.748 153.197 163.757 153.844 162.601 154.032C160.069 153.635 158.307 150.975 155.609 151.231C153.518 151.478 151.42 151.373 149.32 151.316C150.492 151.846 151.673 152.37 152.811 152.96C150.362 154.096 147.601 153.261 145.02 153.273L145.149 154.357C145.059 154.23 144.882 153.977 144.791 153.85C144.77 153.7 144.725 153.387 144.707 153.23C144.105 153.24 142.906 153.254 142.304 153.266C142.713 153.411 143.526 153.7 143.937 153.847C143.901 153.931 143.831 154.099 143.795 154.181C141.486 154.419 139.194 153.868 136.881 153.892C133.813 154.199 130.708 154.916 128.211 156.825C128.942 153.055 132.834 151.293 135.872 149.625C137.315 148.595 139.077 148.414 140.747 148.047C142.353 146.743 143.184 144.662 145.008 143.596C146.978 142.452 149.342 142.157 151.582 142.292C156.762 142.792 161.903 144.187 166.335 146.978C164.901 145.253 163.106 143.843 161.935 141.901C165.265 142.147 168.126 144.075 170.494 146.297C169.927 145.153 169.59 143.918 169.364 142.668C171.605 143.071 174.146 143.436 175.751 145.224Z" fill="#212121"/>
<path d="M146.952 149.883C150.009 149.121 153.182 148.941 156.305 149.435C153.348 147.37 149.346 145.996 145.994 148.017C146.313 148.637 146.63 149.265 146.952 149.883Z" fill="#212121"/>
<path d="M133.994 127.412C127.699 131.959 121.558 136.773 116.941 143.082C118.126 136.949 120.63 131.001 124.564 126.14L133.994 127.412Z" fill="#FEFEFE"/>
<path d="M302.479 167.687C302.712 175.377 299.822 182.724 298.022 190.104C295.519 199.647 293.343 209.272 290.885 218.83C288.867 226.821 286.785 234.86 283.768 242.539H208.008V187.764C229.939 163.484 258.775 155.854 294.514 164.875C297.134 165.862 299.79 166.799 302.479 167.687Z" fill="#FEFEFE"/>
<path d="M258.981 228.832C257.882 229.78 258.971 231.401 259.565 232.379C260.14 233.298 261.002 232.322 261.441 231.839C260.986 230.689 260.531 228.666 258.977 228.832H258.981ZM280.232 216.34C279.928 217.689 280.555 219.18 281.705 219.942C283.834 219.487 282.09 215.677 280.232 216.34ZM259.99 213.2C262.417 213.013 261.014 209.242 258.945 209.661C258.153 210.856 259.006 212.4 259.99 213.2Z" fill="#212121" stroke="#212121" stroke-width="0.903416" stroke-miterlimit="22.9256"/>
<path d="M220.19 233.493C222.289 233.162 224.774 232.187 225.253 229.856C225.755 228.094 224.732 226.444 223.641 225.164C223.389 225.321 222.889 225.634 222.638 225.788C222.593 227.131 222.517 228.475 222.406 229.814C219.457 231.359 216.143 231.934 213.035 233.049C213.035 233.723 213.041 234.41 213.053 235.096C215.444 234.617 217.771 233.835 220.192 233.491L220.19 233.493Z" fill="#212121" stroke="#212121" stroke-width="0.903416" stroke-miterlimit="22.9256"/>
<path d="M283.768 242.539H316.49C317.011 237.334 316.969 232.085 316.166 226.859C316.853 227.293 317.23 228.015 317.293 228.807C317.965 233.37 317.907 237.975 317.394 242.539H338.166C336.622 235.525 334.448 228.65 332.016 221.899C328.893 213.546 325.229 205.419 321.949 197.13C319.574 191.086 316.848 185.075 315.843 178.604C315.649 177.059 315.352 175.399 316.075 173.942C316.918 180.562 319.812 186.639 322.293 192.754C328.103 207.164 334.79 221.293 338.729 236.374C339.276 238.412 339.786 240.469 340.242 242.539H388.598C387.182 233.42 383.502 224.792 379.011 216.786C376.945 213.006 374.488 209.453 372.521 205.622C371.623 203.933 371.388 202.003 371.455 200.114C373.553 201.68 375.249 203.716 377.37 205.273C382.315 209.016 386.867 213.298 390.849 218.056C396.52 224.919 399.665 233.688 400.173 242.539H403.345C403.065 235.593 401.315 228.72 397.949 222.608C394.245 215.836 388.584 210.436 382.724 205.54C378.062 201.832 373.367 198.026 369.781 193.217C366.415 188.961 363.58 184.193 361.869 179.037C350.175 178.192 338.95 176.675 328.201 174.489C327.943 179.312 327.741 184.134 327.991 188.964C328.187 191.183 328.684 193.369 328.955 195.585C327.534 192.947 327.26 189.887 326.892 186.964C326.593 182.712 326.671 178.457 326.808 174.202C318.407 172.445 310.296 170.271 302.479 167.687C302.712 175.377 299.822 182.724 298.022 190.104C295.519 199.647 293.343 209.272 290.885 218.83C288.867 226.821 286.785 234.86 283.768 242.539ZM345.392 207.02C351.509 216.539 354.348 228.229 352.764 239.471C352.725 240.329 351.644 240.652 351.114 239.995C351.045 238.143 351.472 236.327 351.548 234.484C352.12 225.875 349.575 217.347 345.744 209.715C344.473 207.062 342.586 204.774 341.227 202.169C343.169 203.229 344.124 205.307 345.392 207.02ZM294.492 221.761C296.131 213.296 298.347 204.954 300.028 196.501C300.742 193.507 301.103 190.435 301.962 187.484C303.904 186.771 305.88 186.074 307.882 185.542C310.024 185.057 312.258 186.295 313.17 188.252C314.64 190.941 315.823 194.025 315.341 197.14C314.886 199.555 313.712 201.753 312.688 203.958C310.707 208.101 308.399 212.173 305.054 215.38C302.193 218.434 298.393 220.37 294.492 221.761ZM308.632 202.079C307.973 200.025 307.505 197.83 306.289 196.023C305.401 194.963 304.025 196.595 304.416 197.528C304.738 199.224 306.44 200.884 305.355 202.63C303.458 206.214 300.828 209.511 300.04 213.592C302.058 211.674 303.485 209.261 305.274 207.141C306.575 205.581 307.707 203.892 308.632 202.079Z" fill="#212121" stroke="#212121" stroke-width="0.903416" stroke-miterlimit="22.9256"/>
<path d="M328.202 174.489C327.944 179.312 327.742 184.134 327.992 188.964C328.188 191.183 328.685 193.37 328.956 195.585C327.535 192.947 327.261 189.887 326.893 186.964C326.594 182.712 326.672 178.457 326.809 174.202L328.202 174.489Z" fill="#FEFEFE"/>
<path d="M340.242 242.539H338.166C336.622 235.525 334.448 228.65 332.016 221.899C328.893 213.546 325.228 205.419 321.949 197.13C319.573 191.086 316.848 185.075 315.842 178.604C315.649 177.059 315.351 175.4 316.074 173.942C316.917 180.562 319.812 186.639 322.293 192.754C328.102 207.164 334.79 221.293 338.729 236.374C339.275 238.412 339.785 240.469 340.242 242.539Z" fill="#FEFEFE"/>
<path d="M317.393 242.539H316.489C317.01 237.334 316.968 232.085 316.165 226.859C316.851 227.293 317.229 228.015 317.291 228.807C317.964 233.37 317.905 237.975 317.393 242.539Z" fill="#FEFEFE"/>
<path d="M294.495 221.754C296.134 213.289 298.35 204.947 300.031 196.493C300.745 193.5 301.106 190.428 301.964 187.477C303.906 186.763 305.883 186.067 307.885 185.535C310.026 185.05 312.261 186.288 313.173 188.245C314.643 190.934 315.826 194.018 315.344 197.133C314.888 199.548 313.715 201.746 312.69 203.951C310.709 208.094 308.402 212.166 305.056 215.373C302.196 218.427 298.396 220.363 294.495 221.754ZM308.634 202.072C307.975 200.018 307.508 197.823 306.292 196.016C305.404 194.956 304.027 196.588 304.419 197.521C304.741 199.217 306.442 200.877 305.358 202.623C303.461 206.207 300.831 209.504 300.043 213.585C302.06 211.667 303.488 209.254 305.277 207.134C306.578 205.574 307.71 203.884 308.634 202.072Z" fill="#FEFEFE" stroke="#212121" stroke-width="0.903416" stroke-miterlimit="22.9256"/>
<path d="M113.536 167.687C113.302 175.377 116.193 182.724 117.992 190.104C120.495 199.647 122.672 209.272 125.13 218.83C127.147 226.821 129.229 234.86 132.247 242.539H208.007V187.764C186.076 163.484 157.24 155.854 121.501 164.875C118.88 165.862 116.225 166.799 113.536 167.687Z" fill="#FEFEFE"/>
<path d="M157.035 228.832C158.134 229.78 157.044 231.401 156.45 232.379C155.875 233.298 155.013 232.322 154.575 231.839C155.03 230.689 155.484 228.666 157.039 228.832H157.035ZM135.783 216.34C136.088 217.689 135.461 219.18 134.311 219.942C132.182 219.487 133.925 215.677 135.783 216.34ZM156.026 213.2C153.599 213.013 155.002 209.242 157.071 209.661C157.863 210.856 157.01 212.4 156.026 213.2Z" fill="#212121" stroke="#212121" stroke-width="0.903416" stroke-miterlimit="22.9256"/>
<path d="M195.824 233.493C193.725 233.162 191.241 232.187 190.762 229.856C190.259 228.094 191.282 226.444 192.373 225.164C192.625 225.321 193.126 225.634 193.376 225.788C193.421 227.131 193.497 228.475 193.608 229.814C196.557 231.359 199.872 231.934 202.979 233.049C202.979 233.723 202.973 234.41 202.961 235.096C200.57 234.617 198.243 233.835 195.822 233.491L195.824 233.493Z" fill="#212121" stroke="#212121" stroke-width="0.903416" stroke-miterlimit="22.9256"/>
<path d="M132.248 242.539H99.5257C99.004 237.334 99.0467 232.085 99.8494 226.859C99.1629 227.293 98.7859 228.015 98.7231 228.807C98.0508 233.37 98.1089 237.975 98.6211 242.539H77.8497C79.3933 235.525 81.5676 228.65 83.9992 221.899C87.1221 213.546 90.7867 205.419 94.0661 197.13C96.442 191.086 99.1677 185.075 100.173 178.604C100.366 177.059 100.664 175.399 99.9406 173.942C99.0977 180.562 96.2038 186.639 93.7223 192.754C87.9129 207.164 81.2251 221.293 77.2866 236.374C76.74 238.412 76.2301 240.469 75.7737 242.539H27.4172C28.834 233.42 32.514 224.792 37.005 216.786C39.0703 213.006 41.5281 209.453 43.495 205.622C44.3924 203.933 44.6272 202.003 44.5608 200.114C42.4623 201.68 40.7669 203.716 38.6459 205.273C33.7008 209.016 29.1482 213.298 25.167 218.056C19.4952 224.919 16.351 233.688 15.8423 242.539H12.6709C12.9507 235.593 14.7007 228.72 18.0666 222.608C21.7704 215.836 27.4315 210.436 33.2919 205.54C37.9536 201.832 42.6485 198.026 46.2349 193.216C49.6008 188.961 52.4354 184.193 54.1462 179.037C65.8408 178.192 77.066 176.675 87.8145 174.489C88.073 179.312 88.2745 184.134 88.0243 188.964C87.8287 191.183 87.332 193.369 87.0605 195.585C88.482 192.947 88.7559 189.887 89.1234 186.964C89.4222 182.712 89.3451 178.457 89.2076 174.202C97.6087 172.445 105.719 170.271 113.537 167.687C113.303 175.377 116.194 182.724 117.994 190.104C120.496 199.647 122.673 209.272 125.131 218.83C127.149 226.821 129.23 234.86 132.248 242.539ZM70.6236 207.02C64.5071 216.539 61.6676 228.229 63.2515 239.471C63.2906 240.329 64.372 240.652 64.9019 239.995C64.9707 238.143 64.5439 236.327 64.468 234.484C63.8954 225.875 66.4407 217.347 70.2714 209.715C71.5423 207.062 73.4298 204.774 74.7885 202.169C72.8465 203.229 71.8921 205.307 70.6236 207.02ZM121.523 221.761C119.885 213.296 117.669 204.954 115.988 196.501C115.274 193.507 114.912 190.435 114.054 187.484C112.112 186.771 110.136 186.074 108.133 185.542C105.992 185.057 103.757 186.295 102.845 188.252C101.375 190.941 100.192 194.025 100.675 197.14C101.13 199.555 102.304 201.753 103.328 203.958C105.309 208.101 107.616 212.173 110.962 215.38C113.823 218.434 117.622 220.37 121.523 221.761ZM107.384 202.079C108.043 200.025 108.51 197.83 109.726 196.023C110.614 194.963 111.991 196.595 111.6 197.528C111.277 199.224 109.576 200.884 110.661 202.63C112.558 206.214 115.187 209.511 115.976 213.592C113.958 211.674 112.53 209.261 110.741 207.141C109.441 205.581 108.309 203.891 107.384 202.079Z" fill="#212121" stroke="#212121" stroke-width="0.903416" stroke-miterlimit="22.9256"/>
<path d="M87.8156 174.489C88.0741 179.312 88.2755 184.134 88.0254 188.964C87.8298 191.183 87.333 193.37 87.0615 195.585C88.483 192.947 88.757 189.887 89.1245 186.964C89.4233 182.712 89.3462 178.457 89.2087 174.202L87.8156 174.489Z" fill="#FEFEFE"/>
<path d="M75.7725 242.539H77.8485C79.3921 235.525 81.5664 228.65 83.998 221.899C87.1209 213.546 90.7855 205.419 94.0649 197.13C96.4408 191.086 99.1665 185.075 100.172 178.604C100.365 177.059 100.663 175.4 99.9394 173.942C99.0965 180.562 96.2025 186.639 93.7211 192.754C87.9117 207.164 81.2239 221.293 77.2854 236.374C76.7388 238.412 76.2289 240.469 75.7725 242.539Z" fill="#FEFEFE"/>
<path d="M98.6208 242.539H99.5254C99.0038 237.334 99.0465 232.085 99.8491 226.859C99.1627 227.293 98.7857 228.015 98.7228 228.807C98.0506 233.37 98.1087 237.975 98.6208 242.539Z" fill="#FEFEFE"/>
<path d="M121.522 221.754C119.884 213.289 117.668 204.947 115.987 196.493C115.273 193.5 114.912 190.428 114.053 187.477C112.111 186.763 110.135 186.067 108.132 185.535C105.991 185.05 103.756 186.288 102.845 188.245C101.375 190.934 100.191 194.018 100.674 197.133C101.129 199.548 102.303 201.746 103.327 203.951C105.308 208.094 107.615 212.166 110.961 215.373C113.822 218.427 117.622 220.363 121.522 221.754ZM107.383 202.072C108.042 200.018 108.509 197.823 109.726 196.016C110.614 194.956 111.99 196.588 111.599 197.521C111.277 199.217 109.575 200.877 110.66 202.623C112.557 206.207 115.187 209.504 115.975 213.585C113.957 211.667 112.53 209.254 110.741 207.134C109.44 205.574 108.308 203.884 107.383 202.072Z" fill="#FEFEFE" stroke="#212121" stroke-width="0.903416" stroke-miterlimit="22.9256"/>
<path d="M208.008 504.27C208.344 504.258 208.68 504.244 209.016 504.23C231.023 503.194 252.786 498.716 273.755 492.052C294.684 485.339 314.921 476.431 333.901 465.344C341.107 461.251 347.792 456.337 354.812 451.94C357.074 450.401 358.04 447.519 357.995 444.881C357.721 440.258 356.4 435.75 354.538 431.529C351.243 423.337 346.841 415.646 342.119 408.208C344.112 406.425 346.202 404.73 347.958 402.703C348.678 401.764 349.988 401.851 351.036 401.583C360.076 399.972 369.339 396.945 375.976 390.308C382.411 383.912 385.293 374.899 386.549 366.118C390.632 369.057 395.745 371.069 400.832 370.068C407.017 369.029 413.124 364.735 414.573 358.368C416.021 352.277 413.693 346.106 410.911 340.759C406.577 332.777 401.739 324.995 395.703 318.165C393.55 315.455 390.372 313.208 389.809 309.562C388.4 302.768 388.644 295.658 390.216 288.916C392.574 278.349 398.644 269.089 401.379 258.636C402.885 253.441 403.563 247.967 403.345 242.538H400.174C400.182 242.681 400.189 242.826 400.196 242.971C400.581 248.915 399.398 254.844 397.609 260.488C395.061 268.501 390.873 275.861 388.217 283.832C386.037 290.201 384.893 297.004 385.431 303.738C382.013 296.511 380.652 288.223 382.073 280.316C383.037 274.043 386.024 268.37 387.801 262.329C389.596 256.339 389.563 249.961 388.78 243.803C388.724 243.38 388.664 242.958 388.599 242.538H340.242C341.995 250.492 342.947 258.657 342.025 266.777C341.267 273.929 338.343 280.71 334.319 286.618C330.049 293.153 324.159 298.492 320.222 305.261C316.536 311.715 316.154 319.503 317.274 326.705C318.774 338.528 324.249 349.33 326.697 360.935C327.923 366.952 328.76 373.243 327.389 379.32C326.233 385.482 322.626 390.724 319.939 396.28C317.642 401.044 316.627 406.263 316.139 411.497C314.047 410.66 314.878 408.124 315.058 406.434C315.932 400.324 318.738 394.768 321.523 389.336C324.411 383.958 326.04 377.85 325.829 371.729C325.477 361.12 321.348 351.216 318.324 341.191C316.349 334.704 314.897 328.025 314.623 321.237C314.454 315.817 315.182 310.216 317.734 305.361C320.827 299.311 325.822 294.577 329.921 289.238C334.402 283.534 338.178 277.024 339.455 269.803C340.928 262.994 340.409 255.966 339.416 249.139C339.069 246.925 338.646 244.724 338.166 242.538H317.395C316.943 246.57 316.136 250.573 315.164 254.492C312.811 263.542 309.43 272.31 305.22 280.658C304.401 282.254 303.754 284.013 302.353 285.212C304.727 279.62 307.672 274.271 309.761 268.553C313.033 260.24 315.595 251.454 316.49 242.538H283.768C282.924 244.689 282.004 246.812 280.993 248.898C278.409 254.261 275.072 259.283 270.938 263.579C264.268 270.589 256.706 276.672 249.081 282.605C243.176 287.032 237.232 291.428 230.874 295.186C224.445 299.023 217.615 302.772 210.027 303.497C209.352 303.544 208.678 303.56 208.008 303.548V306.116C208.331 306.116 208.657 306.108 208.983 306.095C214.303 306.124 219.39 304.288 224.154 302.084C230.897 298.873 237.215 294.863 243.31 290.568C241.591 299.669 240.211 308.899 240.44 318.189C240.328 322.914 240.606 327.636 241.328 332.309C242.421 341.648 244.755 350.802 247.772 359.692C248.435 361.989 250.565 363.329 252.47 364.522C257.505 367.576 262.841 370.099 268.172 372.586C279.38 377.612 290.802 382.138 302.261 386.556C298.565 393.804 294.636 400.981 289.585 407.388C283.902 414.795 277.033 421.352 269.072 426.263C259.983 431.813 249.642 435.002 239.181 436.698C228.916 438.317 218.376 439.287 208.008 438.285V504.27ZM356.66 271.267C358.274 263.895 360.925 256.797 363.725 249.808C364.77 247.688 365.421 245.327 366.971 243.5C365.141 250.504 362.397 257.252 360.436 264.227C355.792 279.161 355.489 295.38 359.476 310.5C361.418 317.712 364.017 324.853 368.176 331.111C368.901 332.252 369.639 333.375 370.335 334.544C369.983 334.671 369.275 334.918 368.919 335.045C366.582 333.232 365.245 330.459 363.757 327.964C358.069 317.015 355.341 304.716 354.654 292.448C354.476 285.347 354.946 278.186 356.66 271.267ZM355.375 346.386C354.288 343.848 354.016 341.067 353.095 338.472C352.141 335.328 350.526 332.446 349.364 329.381C350.49 330.013 351.349 331.002 351.939 332.142C353.953 335.807 355.8 339.722 356.122 343.953C356.3 344.845 355.772 345.627 355.375 346.386ZM296.667 301.395C297.27 299.766 297.606 297.911 298.968 296.706C298.565 299.209 297.445 301.515 296.626 303.904C295.695 306.172 295.216 308.65 293.831 310.713C294.31 307.478 295.587 304.461 296.667 301.395ZM291.096 267.638C286.549 275.405 281.888 283.111 277.825 291.148C277.406 291.967 276.84 292.693 276.211 293.358C276.98 290.04 278.847 287.152 280.409 284.179C283.788 277.883 287.555 271.811 291.193 265.665C292.32 263.79 293.446 261.856 295.165 260.452C294.084 262.996 292.482 265.255 291.096 267.638ZM270.155 306.006C269.236 309.493 268.28 313.022 266.833 316.332C266.843 313.911 267.604 311.598 268.303 309.307C268.698 308.108 269.038 306.765 270.155 306.006ZM350.598 350.394C349.538 347.629 348.942 344.706 347.596 342.056C346.175 338.786 343.932 335.648 343.983 331.941C345.41 333.374 346.118 335.298 347.096 337.027C349.014 340.617 351.24 344.309 351.312 348.509C351.418 349.226 350.968 349.822 350.598 350.394ZM383.655 342.98C384.222 349.52 383.911 356.136 382.619 362.581C381.109 371.118 378.995 380.152 372.889 386.668C367.543 392.643 359.771 395.546 352.249 397.669C358.967 390.15 365.249 382.143 369.973 373.199C374.762 364.12 378.573 354.462 380.519 344.362C381.745 338.427 381.751 332.332 380.916 326.351C381.949 327.489 382.93 328.687 383.939 329.859C383.476 334.207 383.202 338.615 383.655 342.98ZM393.637 362.557C391.62 363.804 389.16 362.888 387.142 362.127C388.283 352.815 385.992 343.495 387.03 334.178C391.58 340.345 395.923 347.162 396.612 354.995C397.042 357.788 396.194 361.03 393.637 362.557ZM207.785 252.883C208.783 252.139 210.989 251.461 210.883 249.651C209.918 249.247 208.948 249.865 208.008 250.388L207.785 252.883ZM208.008 265.333C208.496 265.347 208.99 265.313 209.483 265.203C214.295 264.299 219.207 263.881 223.91 262.469C220.601 258.84 216.472 256.034 212.5 253.194C210.402 254.125 209.184 256.172 207.804 257.514L208.008 265.333ZM208.008 275.631C209.855 275.636 211.706 275.318 213.424 274.705C214.58 274.414 214.851 273.19 215.135 272.206C212.763 272.259 210.382 272.329 208.008 272.267V275.631Z" fill="#212121" stroke="#212121" stroke-width="0.903416" stroke-miterlimit="22.9256"/>
<path d="M393.637 362.557C391.619 363.804 389.159 362.888 387.141 362.127C388.283 352.815 385.991 343.495 387.03 334.178C391.58 340.345 395.923 347.162 396.612 354.995C397.042 357.788 396.193 361.03 393.637 362.557Z" fill="#FEFEFE"/>
<path d="M383.655 342.98C384.222 349.52 383.911 356.136 382.619 362.581C381.11 371.118 378.996 380.152 372.889 386.668C367.543 392.643 359.772 395.546 352.249 397.669C358.968 390.15 365.249 382.143 369.974 373.199C374.762 364.12 378.574 354.462 380.519 344.362C381.745 338.427 381.751 332.332 380.916 326.351C381.949 327.489 382.931 328.687 383.94 329.859C383.476 334.207 383.202 338.615 383.655 342.98Z" fill="#FEFEFE"/>
<path d="M350.598 350.394C349.538 347.63 348.942 344.706 347.596 342.056C346.175 338.786 343.931 335.648 343.982 331.941C345.41 333.374 346.118 335.298 347.096 337.027C349.014 340.617 351.239 344.309 351.312 348.509C351.417 349.226 350.968 349.822 350.598 350.394Z" fill="#FEFEFE"/>
<path d="M270.119 306.001C269.2 309.488 268.243 313.018 266.797 316.328C266.806 313.907 267.568 311.594 268.267 309.302C268.662 308.103 269.002 306.76 270.119 306.001Z" fill="#FEFEFE"/>
<path d="M291.096 267.638C286.549 275.405 281.887 283.111 277.824 291.148C277.406 291.967 276.839 292.693 276.211 293.358C276.979 290.04 278.847 287.152 280.409 284.179C283.788 277.883 287.555 271.811 291.193 265.665C292.319 263.79 293.446 261.856 295.165 260.452C294.084 262.996 292.482 265.255 291.096 267.638Z" fill="#FEFEFE"/>
<path d="M296.667 301.395C297.269 299.766 297.606 297.911 298.968 296.706C298.565 299.209 297.445 301.515 296.626 303.904C295.695 306.172 295.216 308.65 293.831 310.713C294.31 307.478 295.587 304.461 296.667 301.395Z" fill="#FEFEFE"/>
<path d="M355.374 346.386C354.287 343.848 354.015 341.067 353.094 338.472C352.14 335.328 350.525 332.446 349.363 329.381C350.49 330.013 351.348 331.002 351.938 332.142C353.953 335.807 355.799 339.722 356.121 343.953C356.299 344.845 355.771 345.627 355.374 346.386Z" fill="#FEFEFE"/>
<path d="M356.631 271.278C358.245 263.906 360.896 256.808 363.696 249.819C364.74 247.699 365.391 245.337 366.942 243.51C365.112 250.515 362.368 257.263 360.407 264.238C355.763 279.171 355.46 295.39 359.447 310.511C361.389 317.723 363.988 324.864 368.147 331.121C368.872 332.263 369.61 333.386 370.306 334.555C369.953 334.682 369.246 334.928 368.89 335.055C366.553 333.242 365.216 330.469 363.728 327.975C358.04 317.026 355.312 304.727 354.625 292.458C354.447 285.358 354.917 278.197 356.631 271.278Z" fill="#FEFEFE"/>
<path d="M208.009 303.548C208.679 303.56 209.353 303.544 210.028 303.497C217.616 302.772 224.446 299.023 230.875 295.186C237.232 291.428 243.177 287.032 249.082 282.605C256.707 276.672 264.268 270.589 270.938 263.579C275.073 259.283 278.41 254.261 280.993 248.898C282.005 246.812 282.925 244.689 283.769 242.538H208.009V250.388C208.949 249.865 209.919 249.247 210.884 249.651C210.982 251.336 209.077 252.039 208.009 252.729V257.31C209.308 255.973 210.507 254.079 212.501 253.194C216.473 256.034 220.602 258.84 223.911 262.469C219.208 263.881 214.296 264.299 209.484 265.203C208.99 265.313 208.497 265.347 208.009 265.333V272.267C210.382 272.329 212.764 272.259 215.135 272.206C214.852 273.19 214.58 274.414 213.425 274.705C211.707 275.318 209.856 275.636 208.009 275.631V303.548Z" fill="#FEFEFE"/>
<path d="M316.49 242.537H317.395C316.943 246.569 316.136 250.572 315.164 254.491C312.811 263.541 309.43 272.309 305.22 280.657C304.401 282.253 303.754 284.012 302.354 285.211C304.727 279.618 307.672 274.27 309.761 268.552C313.033 260.239 315.595 251.452 316.49 242.537Z" fill="#FEFEFE"/>
<path d="M338.167 242.538H340.243C341.995 250.492 342.947 258.657 342.026 266.777C341.267 273.929 338.344 280.71 334.32 286.618C330.049 293.153 324.159 298.492 320.223 305.261C316.537 311.715 316.154 319.503 317.275 326.705C318.774 338.528 324.25 349.33 326.698 360.935C327.924 366.952 328.761 373.243 327.39 379.32C326.234 385.482 322.626 390.724 319.94 396.28C317.642 401.044 316.627 406.263 316.14 411.497C314.048 410.66 314.879 408.124 315.059 406.434C315.933 400.324 318.739 394.768 321.524 389.336C324.412 383.958 326.041 377.85 325.83 371.729C325.478 361.12 321.348 351.216 318.325 341.191C316.35 334.704 314.897 328.025 314.624 321.237C314.455 315.817 315.183 310.216 317.735 305.361C320.828 299.311 325.823 294.577 329.921 289.238C334.403 283.534 338.179 277.024 339.456 269.803C340.928 262.994 340.41 255.966 339.417 249.139C339.069 246.925 338.647 244.724 338.167 242.538Z" fill="#FEFEFE"/>
<path d="M388.599 242.538H400.174C400.183 242.681 400.19 242.826 400.197 242.971C400.582 248.915 399.399 254.844 397.61 260.488C395.062 268.501 390.873 275.861 388.218 283.832C386.037 290.201 384.893 297.004 385.431 303.738C382.013 296.511 380.653 288.223 382.074 280.316C383.038 274.043 386.024 268.37 387.801 262.329C389.596 256.339 389.563 249.961 388.781 243.803C388.725 243.38 388.665 242.958 388.599 242.538Z" fill="#FEFEFE"/>
<path d="M208.009 438.285V306.116C208.331 306.116 208.657 306.108 208.983 306.095C214.304 306.125 219.39 304.288 224.155 302.084C230.898 298.873 237.216 294.863 243.311 290.568C241.592 299.669 240.212 308.899 240.44 318.189C240.329 322.914 240.606 327.636 241.328 332.309C242.422 341.648 244.756 350.802 247.773 359.692C248.436 361.989 250.565 363.329 252.471 364.522C257.506 367.576 262.842 370.099 268.172 372.586C279.381 377.612 290.803 382.138 302.262 386.556C298.566 393.804 294.637 400.981 289.585 407.388C283.903 414.795 277.034 421.352 269.072 426.263C259.984 431.813 249.643 435.002 239.181 436.698C228.917 438.317 218.377 439.287 208.009 438.285Z" fill="#FEFEFE"/>
<path d="M208.008 504.27C207.673 504.258 207.336 504.244 207.001 504.23C184.994 503.194 163.23 498.716 142.262 492.052C121.333 485.339 101.096 476.431 82.1157 465.344C74.9097 461.251 68.2242 456.337 61.2044 451.94C58.9423 450.401 57.9761 447.519 58.0211 444.881C58.295 440.258 59.6168 435.75 61.4782 431.529C64.7729 423.337 69.175 415.646 73.8972 408.208C71.9042 406.425 69.814 404.73 68.0582 402.703C67.3385 401.764 66.0285 401.851 64.9804 401.583C55.9403 399.972 46.6774 396.945 40.0405 390.308C33.6052 383.912 30.7229 374.899 29.4674 366.118C25.3842 369.057 20.2708 371.069 15.1847 370.068C8.99947 369.029 2.89259 364.735 1.44381 358.368C-0.0049758 352.277 2.3235 346.106 5.10488 340.759C9.43938 332.777 14.2777 324.995 20.3135 318.165C22.4665 315.455 25.6439 313.208 26.207 309.562C27.6167 302.768 27.3725 295.658 25.8004 288.916C23.4423 278.349 17.3721 269.089 14.6369 258.636C13.1312 253.441 12.4531 247.967 12.6712 242.538H15.8426C15.8343 242.681 15.8273 242.826 15.8202 242.971C15.4349 248.915 16.618 254.844 18.4071 260.488C20.9549 268.501 25.1436 275.861 27.7993 283.832C29.9796 290.201 31.1237 297.004 30.5855 303.738C34.0035 296.511 35.3645 288.223 33.943 280.316C32.9791 274.043 29.9926 268.37 28.2155 262.329C26.4205 256.339 26.4537 249.961 27.2362 243.803C27.2919 243.38 27.3523 242.958 27.4175 242.538H75.774C74.0217 250.492 73.0697 258.657 73.9909 266.777C74.7496 273.929 77.6733 280.71 81.6972 286.618C85.9676 293.153 91.8577 298.492 95.7938 305.261C99.4798 311.715 99.8628 319.503 98.7424 326.705C97.2426 338.528 91.7675 349.33 89.3193 360.935C88.0934 366.952 87.2564 373.243 88.6269 379.32C89.7829 385.482 93.3906 390.724 96.0771 396.28C98.3748 401.044 99.3897 406.263 99.877 411.497C101.97 410.66 101.138 408.124 100.958 406.434C100.084 400.324 97.2782 394.768 94.4933 389.336C91.6052 383.958 89.9761 377.85 90.1872 371.729C90.5393 361.12 94.6687 351.216 97.6919 341.191C99.6671 334.704 101.119 328.025 101.393 321.237C101.562 315.817 100.834 310.216 98.2824 305.361C95.1892 299.311 90.1943 294.577 86.0958 289.238C81.6142 283.534 77.8382 277.024 76.5613 269.803C75.0888 262.994 75.6069 255.966 76.6004 249.139C76.9478 246.925 77.3699 244.724 77.85 242.538H98.6214C99.0731 246.57 99.8805 250.573 100.853 254.492C103.205 263.542 106.586 272.31 110.796 280.658C111.615 282.254 112.263 284.013 113.663 285.212C111.289 279.62 108.344 274.271 106.255 268.553C102.983 260.24 100.421 251.454 99.526 242.538H132.248C133.092 244.689 134.012 246.812 135.024 248.898C137.607 254.261 140.944 259.283 145.079 263.579C151.749 270.589 159.31 276.672 166.935 282.605C172.84 287.032 178.785 291.428 185.142 295.186C191.571 299.023 198.401 302.772 205.989 303.497C206.664 303.544 207.338 303.56 208.008 303.548V306.116C207.686 306.116 207.36 306.108 207.034 306.095C201.713 306.124 196.627 304.288 191.862 302.084C185.119 298.873 178.801 294.863 172.706 290.568C174.425 299.669 175.805 308.899 175.577 318.189C175.688 322.914 175.411 327.636 174.689 332.309C173.595 341.648 171.261 350.802 168.244 359.692C167.581 361.989 165.452 363.329 163.546 364.522C158.511 367.576 153.175 370.099 147.845 372.586C136.636 377.612 125.214 382.138 113.755 386.556C117.451 393.804 121.38 400.981 126.432 407.388C132.114 414.795 138.984 421.352 146.945 426.263C156.033 431.813 166.374 435.002 176.836 436.698C187.1 438.317 197.64 439.287 208.008 438.285V504.27ZM59.3561 271.267C57.7425 263.895 55.0915 256.797 52.2912 249.808C51.2467 247.688 50.5958 245.327 49.0451 243.5C50.8756 250.504 53.6189 257.252 55.5799 264.227C60.2238 279.161 60.5274 295.38 56.5403 310.5C54.5983 317.712 51.9995 324.853 47.8405 331.111C47.1149 332.252 46.3775 333.375 45.6815 334.544C46.0337 334.671 46.7414 334.918 47.0971 335.045C49.4338 333.232 50.7712 330.459 52.2591 327.964C57.9475 317.015 60.6756 304.716 61.3621 292.448C61.5399 285.347 61.0704 278.186 59.3561 271.267ZM60.6412 346.386C61.7284 343.848 61.9998 341.067 62.921 338.472C63.8754 335.328 65.4903 332.446 66.6522 329.381C65.5258 330.013 64.6674 331.002 64.077 332.142C62.0627 335.807 60.2168 339.722 59.8943 343.953C59.7165 344.845 60.244 345.627 60.6412 346.386ZM119.349 301.395C118.747 299.766 118.41 297.911 117.048 296.706C117.451 299.209 118.571 301.515 119.391 303.904C120.321 306.172 120.8 308.65 122.185 310.713C121.706 307.478 120.429 304.461 119.349 301.395ZM124.92 267.638C129.467 275.405 134.129 283.111 138.192 291.148C138.61 291.967 139.177 292.693 139.805 293.358C139.037 290.04 137.17 287.152 135.607 284.179C132.228 277.883 128.461 271.811 124.823 265.665C123.697 263.79 122.57 261.856 120.851 260.452C121.932 262.996 123.534 265.255 124.92 267.638ZM145.861 306.006C146.78 309.493 147.737 313.022 149.183 316.332C149.174 313.911 148.412 311.598 147.713 309.307C147.318 308.108 146.978 306.765 145.861 306.006ZM65.4179 350.394C66.4779 347.629 67.0742 344.706 68.4199 342.056C69.8414 338.786 72.0845 335.648 72.0335 331.941C70.606 333.374 69.8983 335.298 68.9202 337.027C67.0019 340.617 64.7765 344.309 64.7042 348.509C64.5986 349.226 65.048 349.822 65.4179 350.394ZM32.3614 342.98C31.7947 349.52 32.1054 356.136 33.3976 362.581C34.9069 371.118 37.0208 380.152 43.1278 386.668C48.4736 392.643 56.2451 395.546 63.7676 397.669C57.0489 390.15 50.7677 382.143 46.0431 373.199C41.2545 364.12 37.4429 354.462 35.4973 344.362C34.2714 338.427 34.2655 332.332 35.1002 326.351C34.0675 327.489 33.0859 328.687 32.0769 329.859C32.5405 334.207 32.8143 338.615 32.3614 342.98ZM22.3788 362.557C24.3966 363.804 26.8567 362.888 28.8746 362.127C27.7329 352.815 30.0247 343.495 28.9861 334.178C24.4358 340.345 20.093 347.162 19.4042 354.995C18.9738 357.788 19.8226 361.03 22.3788 362.557ZM208.231 252.883C207.233 252.139 205.028 251.461 205.133 249.651C206.098 249.247 207.068 249.865 208.008 250.388L208.231 252.883ZM208.008 265.333C207.52 265.347 207.027 265.313 206.533 265.203C201.721 264.299 196.809 263.881 192.106 262.469C195.415 258.84 199.544 256.034 203.516 253.194C205.615 254.125 206.832 256.172 208.212 257.514L208.008 265.333ZM208.008 275.631C206.161 275.636 204.31 275.318 202.592 274.705C201.437 274.414 201.165 273.19 200.882 272.206C203.253 272.259 205.635 272.329 208.008 272.267V275.631Z" fill="#212121" stroke="#212121" stroke-width="0.903416" stroke-miterlimit="22.9256"/>
<path d="M22.3781 362.557C24.396 363.804 26.8561 362.888 28.874 362.127C27.7322 352.815 30.024 343.495 28.9854 334.178C24.4352 340.345 20.0923 347.162 19.4035 354.995C18.9731 357.788 19.822 361.03 22.3781 362.557Z" fill="#FEFEFE"/>
<path d="M32.3616 342.98C31.7949 349.52 32.1056 356.136 33.3978 362.581C34.9071 371.118 37.021 380.152 43.128 386.668C48.4738 392.643 56.2453 395.546 63.7678 397.669C57.0491 390.15 50.7679 382.143 46.0433 373.199C41.2547 364.12 37.4431 354.462 35.4975 344.362C34.2716 338.427 34.2657 332.332 35.1004 326.351C34.0677 327.489 33.0861 328.687 32.0771 329.859C32.5407 334.207 32.8145 338.615 32.3616 342.98Z" fill="#FEFEFE"/>
<path d="M65.4159 350.394C66.4759 347.63 67.0722 344.706 68.4179 342.056C69.8394 338.786 72.0825 335.648 72.0315 331.941C70.604 333.374 69.8963 335.298 68.9182 337.027C66.9999 340.617 64.7745 344.309 64.7022 348.509C64.5966 349.226 65.046 349.822 65.4159 350.394Z" fill="#FEFEFE"/>
<path d="M145.896 306.001C146.815 309.488 147.772 313.018 149.219 316.328C149.209 313.907 148.448 311.594 147.748 309.302C147.354 308.103 147.013 306.76 145.896 306.001Z" fill="#FEFEFE"/>
<path d="M124.92 267.638C129.466 275.405 134.128 283.111 138.191 291.148C138.61 291.967 139.176 292.693 139.805 293.358C139.036 290.04 137.169 287.152 135.606 284.179C132.227 277.883 128.461 271.811 124.822 265.665C123.696 263.79 122.57 261.856 120.851 260.452C121.932 262.996 123.534 265.255 124.92 267.638Z" fill="#FEFEFE"/>
<path d="M119.35 301.395C118.748 299.766 118.411 297.911 117.049 296.706C117.452 299.209 118.572 301.515 119.392 303.904C120.322 306.172 120.801 308.65 122.186 310.713C121.707 307.478 120.43 304.461 119.35 301.395Z" fill="#FEFEFE"/>
<path d="M60.6418 346.386C61.729 343.848 62.0004 341.067 62.9216 338.472C63.876 335.328 65.4909 332.446 66.6527 329.381C65.5264 330.013 64.668 331.002 64.0776 332.142C62.0632 335.807 60.2174 339.722 59.8949 343.953C59.7171 344.845 60.2446 345.627 60.6418 346.386Z" fill="#FEFEFE"/>
<path d="M59.3874 271.278C57.7738 263.906 55.1229 256.808 52.3225 249.819C51.278 247.699 50.6272 245.337 49.0764 243.51C50.907 250.515 53.6503 257.263 55.6113 264.238C60.2552 279.171 60.5588 295.39 56.5716 310.511C54.6297 317.723 52.0309 324.864 47.8718 331.121C47.1463 332.263 46.4088 333.386 45.7129 334.555C46.065 334.682 46.7727 334.928 47.1284 335.055C49.4652 333.242 50.8025 330.469 52.2905 327.975C57.9789 317.026 60.707 304.727 61.3934 292.458C61.5713 285.358 61.1018 278.197 59.3874 271.278Z" fill="#FEFEFE"/>
<path d="M208.009 303.548C207.339 303.56 206.665 303.544 205.99 303.497C198.402 302.772 191.572 299.023 185.143 295.186C178.786 291.428 172.841 287.032 166.936 282.605C159.311 276.672 151.75 270.589 145.08 263.579C140.945 259.283 137.608 254.261 135.024 248.898C134.013 246.812 133.093 244.689 132.249 242.538H208.009V250.388C207.069 249.865 206.099 249.247 205.134 249.651C205.036 251.336 206.941 252.039 208.009 252.729V257.31C206.71 255.973 205.511 254.079 203.517 253.194C199.545 256.034 195.416 258.84 192.107 262.469C196.81 263.881 201.722 264.299 206.534 265.203C207.027 265.313 207.521 265.347 208.009 265.333V272.267C205.636 272.329 203.254 272.259 200.883 272.206C201.166 273.19 201.437 274.414 202.593 274.705C204.311 275.318 206.162 275.636 208.009 275.631V303.548Z" fill="#FEFEFE"/>
<path d="M99.5267 242.537H98.6221C99.0738 246.569 99.8812 250.572 100.853 254.491C103.206 263.541 106.587 272.309 110.797 280.657C111.616 282.253 112.263 284.012 113.664 285.211C111.29 279.618 108.345 274.27 106.256 268.552C102.984 260.239 100.422 251.452 99.5267 242.537Z" fill="#FEFEFE"/>
<path d="M77.8487 242.538H75.7726C74.0204 250.492 73.0683 258.657 73.9895 266.777C74.7483 273.929 77.6719 280.71 81.6958 286.618C85.9663 293.153 91.8563 298.492 95.7925 305.261C99.4785 311.715 99.8614 319.503 98.741 326.705C97.2413 338.528 91.7662 349.33 89.318 360.935C88.0921 366.952 87.2551 373.243 88.6256 379.32C89.7815 385.482 93.3893 390.724 96.0758 396.28C98.3735 401.044 99.3884 406.263 99.8757 411.497C101.968 410.66 101.137 408.124 100.957 406.434C100.083 400.324 97.2769 394.768 94.4919 389.336C91.6038 383.958 89.9748 377.85 90.1858 371.729C90.538 361.12 94.6673 351.216 97.6906 341.191C99.6658 334.704 101.118 328.025 101.392 321.237C101.56 315.817 100.832 310.216 98.2811 305.361C95.1879 299.311 90.193 294.577 86.0944 289.238C81.6129 283.534 77.8368 277.024 76.5599 269.803C75.0875 262.994 75.6056 255.966 76.5991 249.139C76.9465 246.925 77.3685 244.724 77.8487 242.538Z" fill="#FEFEFE"/>
<path d="M27.4173 242.538H15.8424C15.8341 242.681 15.8271 242.826 15.82 242.971C15.4346 248.915 16.6178 254.844 18.4068 260.488C20.9546 268.501 25.1434 275.861 27.7991 283.832C29.9794 290.201 31.1235 297.004 30.5852 303.738C34.0033 296.511 35.3643 288.223 33.9427 280.316C32.9789 274.043 29.9924 268.37 28.2152 262.329C26.4203 256.339 26.4535 249.961 27.236 243.803C27.2917 243.38 27.3521 242.958 27.4173 242.538Z" fill="#FEFEFE"/>
<path d="M208.009 438.285V306.116C207.686 306.116 207.36 306.108 207.034 306.095C201.713 306.125 196.627 304.288 191.862 302.084C185.12 298.873 178.802 294.863 172.707 290.568C174.426 299.669 175.806 308.899 175.577 318.189C175.689 322.914 175.411 327.636 174.689 332.309C173.596 341.648 171.261 350.802 168.244 359.692C167.581 361.989 165.452 363.329 163.547 364.522C158.512 367.576 153.175 370.099 147.845 372.586C136.637 377.612 125.215 382.138 113.756 386.556C117.451 393.804 121.38 400.981 126.432 407.388C132.115 414.795 138.984 421.352 146.945 426.263C156.034 431.813 166.374 435.002 176.836 436.698C187.101 438.317 197.641 439.287 208.009 438.285Z" fill="#FEFEFE"/>
<path d="M275.34 129.885C272.914 128.294 268.764 125.242 266.423 123.537C259.874 119.096 253.797 113.967 248.286 108.29C235.386 94.4225 212.904 76.8817 208.007 58.7079C207.941 40.31 207.897 128.257 207.897 133.022L275.34 129.885Z" fill="#FEFEFE"/>
<path d="M291.455 126.14C290.647 125.141 289.777 124.186 288.846 123.286C283.134 117.841 276.415 113.574 269.528 109.792C262.099 105.613 254.291 102.013 247.516 96.7861C255.035 107.594 265.541 115.791 276.226 123.274C278.145 124.652 280.091 126.02 282.02 127.413L291.455 126.14Z" fill="#FEFEFE" stroke="#212121" stroke-width="0.903416" stroke-miterlimit="22.9256"/>
<path d="M282.023 127.414C280.094 126.021 278.149 124.653 276.229 123.275C265.545 115.792 255.038 107.595 247.519 96.7871C254.295 102.014 262.103 105.614 269.532 109.793C276.419 113.575 283.138 117.842 288.85 123.287C289.781 124.187 290.651 125.142 291.458 126.141C300.058 124.912 308.662 123.489 317.265 121.876C310.161 109.696 300.16 99.4594 290.996 88.8152C288.569 86.0054 286.156 83.1719 284.015 80.1332C283.166 78.9109 282.247 77.5794 282.372 76.0215C285.829 79.4123 288.578 83.435 291.836 87.0072C297.886 94.2072 304.291 101.112 310.094 108.515C313.422 112.621 316.545 116.938 319.21 121.509C323.574 120.677 327.94 119.795 332.304 118.865C331.969 117.84 331.588 116.829 331.102 115.86C327.771 109 322.477 103.29 316.602 98.5145C313.659 96.0153 310.471 93.8255 307.14 91.8717C305.974 91.1366 304.592 90.5794 303.906 89.3025C307.318 90.3387 310.224 92.5036 313.233 94.3519C320.767 99.4203 327.585 105.852 332.096 113.805C332.899 115.299 333.685 116.839 334.241 118.449C344.176 116.298 354.115 113.89 364.054 111.231C363.083 108.811 361.795 106.518 360.202 104.444C355.043 97.7522 348.084 92.7596 341.064 88.1939C335.204 84.3728 328.588 81.9601 322.532 78.497C317.609 75.6812 313.541 71.463 310.821 66.4907C306.768 59.1033 304.223 51.0329 301.14 43.2211C297.773 34.1869 293.894 25.2276 288.251 17.3565C283.442 10.7255 276.552 5.56699 268.689 3.16974C258.233 -0.0799518 246.853 0.531829 236.431 3.60368C227.581 6.32578 219.444 10.8973 211.726 15.9325C210.568 14.6485 209.324 13.4452 208.011 12.3248C207.96 31.5751 207.95 42.6046 208.011 58.693C212.907 76.8668 235.389 94.4076 248.29 108.275C253.8 113.952 259.878 119.081 266.427 123.522C268.767 125.227 271.19 126.829 273.616 128.42L282.023 127.414ZM300.498 119.699C301.083 120.587 300.565 121.31 299.818 121.879C297.927 118.473 296.041 115.019 293.418 112.098C289.349 107.596 284.243 104.118 278.803 101.474C277.385 100.76 275.759 100.293 274.75 98.9863C277.388 99.3503 279.718 100.718 282.112 101.802C289.854 105.678 296.964 111.634 300.498 119.699ZM251.825 18.3013C257.812 19.021 263.771 21.1076 268.349 25.1434C274.845 30.814 278.347 39.2518 279.578 47.6505C279.714 48.7863 279.919 50.9868 278.202 50.8457C277.434 48.337 277.293 45.6836 276.567 43.1607C274.604 35.1746 270.008 27.3996 262.664 23.3188C258.692 20.9429 254.054 20.3014 249.736 18.8621C250.372 18.4163 251.073 18.2326 251.825 18.3013ZM251.385 29.4494C258.429 27.6213 266.147 32.6291 267.971 39.5435C266.008 38.4077 264.641 36.5712 262.976 35.0869C260.877 33.1473 258.292 31.6237 255.453 31.1365C252.123 30.7784 248.795 31.4341 245.494 31.8075C246.951 30.0908 249.331 29.932 251.385 29.4494Z" fill="#212121"/>
<path d="M282.023 127.414C280.094 126.021 278.149 124.653 276.229 123.275C265.545 115.792 255.038 107.595 247.519 96.7871C254.295 102.014 262.103 105.614 269.532 109.793C276.419 113.575 283.138 117.842 288.85 123.287C289.78 124.187 290.651 125.142 291.458 126.141C300.058 124.912 308.662 123.489 317.265 121.876C310.161 109.696 300.16 99.4594 290.996 88.8152C288.569 86.0054 286.156 83.1719 284.015 80.1332C283.166 78.9109 282.247 77.5794 282.372 76.0215C285.829 79.4123 288.578 83.435 291.836 87.0072C297.886 94.2072 304.291 101.112 310.094 108.515C313.422 112.621 316.545 116.938 319.21 121.509C323.574 120.677 327.94 119.795 332.304 118.865C331.969 117.84 331.588 116.829 331.102 115.86C327.771 109 322.477 103.29 316.602 98.5145C313.659 96.0153 310.471 93.8255 307.14 91.8717C305.974 91.1366 304.592 90.5794 303.906 89.3025C307.318 90.3387 310.224 92.5036 313.233 94.3519C320.767 99.4203 327.585 105.852 332.096 113.805C332.899 115.299 333.685 116.839 334.241 118.449C344.176 116.298 354.115 113.89 364.054 111.231C363.083 108.811 361.795 106.518 360.202 104.444C355.043 97.7522 348.084 92.7596 341.064 88.1939C335.204 84.3728 328.588 81.9601 322.532 78.497C317.609 75.6813 313.541 71.463 310.821 66.4906C306.768 59.1033 304.223 51.0329 301.14 43.2211C297.773 34.1869 293.894 25.2276 288.251 17.3565C283.442 10.7255 276.552 5.56699 268.689 3.16974C258.233 -0.0799517 246.853 0.531829 236.431 3.60368C227.581 6.32578 219.444 10.8973 211.726 15.9325C210.568 14.6485 209.324 13.4452 208.011 12.3248C207.96 31.5751 207.95 42.6046 208.011 58.693C212.907 76.8668 235.389 94.4076 248.29 108.275C253.8 113.952 259.878 119.081 266.427 123.522C268.767 125.227 271.19 126.829 273.616 128.42M300.498 119.699C301.083 120.587 300.565 121.31 299.818 121.879C297.927 118.473 296.041 115.019 293.418 112.098C289.349 107.596 284.243 104.118 278.803 101.474C277.385 100.76 275.759 100.293 274.75 98.9863C277.388 99.3503 279.718 100.718 282.112 101.802C289.854 105.678 296.964 111.634 300.498 119.699ZM251.825 18.3013C257.812 19.021 263.771 21.1076 268.349 25.1434C274.845 30.814 278.347 39.2518 279.578 47.6505C279.714 48.7863 279.919 50.9867 278.202 50.8457C277.434 48.337 277.293 45.6836 276.567 43.1607C274.604 35.1746 270.008 27.3996 262.664 23.3188C258.692 20.9429 254.054 20.3014 249.736 18.8621C250.372 18.4163 251.073 18.2326 251.825 18.3013ZM251.385 29.4494C258.429 27.6213 266.147 32.6291 267.971 39.5435C266.008 38.4077 264.641 36.5712 262.976 35.0869C260.877 33.1473 258.292 31.6237 255.453 31.1365C252.123 30.7784 248.795 31.4341 245.494 31.8075C246.951 30.0908 249.331 29.932 251.385 29.4494Z" stroke="#212121" stroke-width="0.903416" stroke-miterlimit="22.9256"/>
<path d="M251.382 29.4488C258.426 27.6206 266.144 32.6286 267.969 39.543C266.005 38.4072 264.638 36.5707 262.973 35.0864C260.874 33.1467 258.29 31.6232 255.45 31.1359C252.12 30.7779 248.792 31.4335 245.491 31.807C246.948 30.0903 249.328 29.9313 251.382 29.4488Z" fill="#FEFEFE" stroke="#212121" stroke-width="0.903416" stroke-miterlimit="22.9256"/>
<path d="M251.822 18.302C257.81 19.0216 263.768 21.1083 268.346 25.144C274.842 30.8147 278.344 39.2524 279.576 47.6511C279.711 48.7869 279.916 50.9874 278.199 50.8463C277.431 48.3376 277.29 45.6842 276.564 43.1613C274.601 35.1752 270.006 27.4002 262.661 23.3194C258.689 20.9435 254.051 20.302 249.733 18.8627C250.369 18.4169 251.071 18.2332 251.822 18.302Z" fill="#FEFEFE" stroke="#212121" stroke-width="0.903416" stroke-miterlimit="22.9256"/>
<path d="M300.495 119.698C301.079 120.586 300.561 121.309 299.814 121.878C297.923 118.472 296.038 115.018 293.414 112.097C289.346 107.595 284.239 104.117 278.8 101.473C277.382 100.759 275.755 100.292 274.746 98.9856C277.384 99.3495 279.715 100.718 282.109 101.801C289.851 105.677 296.961 111.633 300.495 119.698Z" fill="#FEFEFE" stroke="#212121" stroke-width="0.903416" stroke-miterlimit="22.9256"/>
<path d="M292.593 126.749C291.785 125.749 289.777 124.186 288.846 123.286C283.134 117.841 276.415 113.574 269.528 109.792C262.1 105.613 254.291 102.013 247.516 96.7861C255.035 107.594 265.541 115.791 276.226 123.274C278.145 124.652 281.253 126.924 283.182 128.317L292.593 126.749Z" fill="#FEFEFE"/>
<path d="M319.208 121.509C316.543 116.938 313.42 112.62 310.092 108.515C304.289 101.112 297.884 94.2069 291.834 87.0069C288.576 83.4347 285.827 79.412 282.37 76.0212C282.245 77.5791 283.164 78.9105 284.013 80.1328C286.154 83.1715 288.567 86.0051 290.994 88.8149C300.158 99.4591 310.159 109.695 317.263 121.876L319.208 121.509Z" fill="#FEFEFE" stroke="#212121" stroke-width="0.903416" stroke-miterlimit="22.9256"/>
<path d="M334.239 118.449C333.683 116.839 332.897 115.299 332.094 113.805C327.583 105.852 320.765 99.4202 313.23 94.3518C310.221 92.5035 307.315 90.3385 303.903 89.3023C304.59 90.5792 305.972 91.1365 307.138 91.8716C310.469 93.8255 313.657 96.0151 316.6 98.5144C322.475 103.29 327.769 109 331.1 115.859C331.586 116.829 331.967 117.839 332.302 118.865L334.239 118.449Z" fill="#FEFEFE" stroke="#212121" stroke-width="0.903416" stroke-miterlimit="22.9256"/>
<path d="M140.455 129.885C142.881 128.294 147.173 125.239 149.513 123.534C156.062 119.093 162.14 113.964 167.65 108.287C180.551 94.4194 203.033 76.8787 207.929 58.7048C207.996 40.3069 207.898 128.257 207.898 133.022C197.074 132.925 185.861 132.067 174.961 131.454C169.344 131.112 163.307 131.681 157.708 131.208L140.455 129.885Z" fill="#FEFEFE"/>
<path d="M124.56 126.141C125.367 125.142 126.237 124.187 127.168 123.287C132.88 117.842 139.599 113.575 146.486 109.793C153.915 105.614 161.723 102.015 168.499 96.7873C160.98 107.595 150.473 115.792 139.788 123.276C137.869 124.653 135.923 126.021 133.994 127.415L124.56 126.141Z" fill="#FEFEFE"/>
<path d="M133.994 127.414C135.923 126.021 137.869 124.653 139.788 123.276C150.473 115.792 160.98 107.595 168.499 96.7873C161.723 102.015 153.915 105.614 146.486 109.793C139.599 113.575 132.88 117.842 127.168 123.287C126.237 124.187 125.367 125.142 124.56 126.141C115.959 124.912 107.356 123.489 98.7529 121.877C105.857 109.696 115.857 99.4595 125.022 88.8154C127.449 86.0055 129.862 83.1719 132.003 80.1333C132.852 78.9109 133.77 77.5795 133.646 76.0217C130.189 79.4125 127.439 83.4352 124.181 87.0073C118.131 94.2074 111.727 101.112 105.923 108.515C102.595 112.621 99.4725 116.939 96.8074 121.509C92.4432 120.677 88.078 119.795 83.7138 118.865C84.0481 117.84 84.4299 116.829 84.916 115.86C88.2463 109 93.5411 103.29 99.4156 98.5146C102.358 96.0154 105.546 93.8257 108.878 91.8718C110.043 91.1368 111.426 90.5794 112.112 89.3026C108.7 90.3388 105.794 92.5037 102.785 94.3521C95.2507 99.4204 88.4324 105.852 83.9213 113.805C83.1187 115.299 82.3326 116.839 81.7766 118.449C71.8414 116.298 61.9026 113.891 51.9639 111.231C52.9349 108.811 54.2223 106.519 55.8157 104.444C60.9742 97.7523 67.9336 92.7598 74.9535 88.1941C80.8138 84.3729 87.4294 81.9603 93.4854 78.4972C98.4091 75.6814 102.477 71.4632 105.197 66.4908C109.25 59.1034 111.794 51.0331 114.878 43.2213C118.245 34.1871 122.123 25.2276 127.767 17.3565C132.575 10.7255 139.466 5.56704 147.329 3.16979C157.784 -0.0799021 169.165 0.531878 179.586 3.60373C188.436 6.32583 196.573 10.8975 204.291 15.9327C205.45 14.6487 206.693 13.4453 208.007 12.325C208.058 31.5753 208.067 42.6048 208.007 58.6932C203.111 76.867 180.628 94.4077 167.728 108.276C162.217 113.952 156.14 119.081 149.591 123.522C147.25 125.227 144.827 126.829 142.401 128.42L133.994 127.414ZM115.519 119.699C114.935 120.587 115.453 121.31 116.2 121.879C118.091 118.473 119.976 115.019 122.6 112.098C126.669 107.596 131.775 104.118 137.215 101.474C138.632 100.76 140.259 100.293 141.268 98.9865C138.63 99.3505 136.299 100.719 133.906 101.802C126.164 105.678 119.054 111.634 115.519 119.699ZM164.192 18.3015C158.205 19.0212 152.247 21.1078 147.669 25.1435C141.173 30.8142 137.671 39.252 136.439 47.6507C136.304 48.7864 136.099 50.9869 137.816 50.8458C138.584 48.3371 138.725 45.6838 139.451 43.1608C141.414 35.1747 146.009 27.3996 153.354 23.3188C157.326 20.9429 161.964 20.3015 166.281 18.8622C165.646 18.4165 164.944 18.2327 164.192 18.3015ZM164.632 29.4495C157.589 27.6213 149.871 32.6293 148.046 39.5436C150.009 38.4078 151.376 36.5714 153.042 35.087C155.141 33.1474 157.725 31.6239 160.565 31.1366C163.895 30.7786 167.223 31.4342 170.524 31.8077C169.066 30.091 166.687 29.932 164.632 29.4495Z" fill="#212121"/>
<path d="M164.632 29.4495C157.589 27.6213 149.871 32.6293 148.046 39.5437C150.009 38.4079 151.376 36.5714 153.042 35.0871C155.14 33.1475 157.725 31.6239 160.564 31.1367C163.895 30.7786 167.223 31.4343 170.523 31.8077C169.066 30.091 166.687 29.9321 164.632 29.4495Z" fill="#FEFEFE"/>
<path d="M164.19 18.3027C158.202 19.0224 152.244 21.109 147.666 25.1447C141.17 30.8154 137.668 39.2532 136.436 47.6518C136.301 48.7876 136.096 50.9881 137.813 50.847C138.581 48.3383 138.722 45.685 139.448 43.162C141.411 35.1759 146.006 27.4009 153.351 23.3201C157.323 20.9442 161.961 20.3027 166.279 18.8634C165.643 18.4177 164.941 18.2339 164.19 18.3027Z" fill="#FEFEFE"/>
<path d="M115.52 119.699C114.936 120.587 115.454 121.31 116.201 121.879C118.092 118.473 119.977 115.019 122.601 112.098C126.67 107.596 131.776 104.118 137.216 101.474C138.633 100.76 140.26 100.293 141.269 98.9865C138.631 99.3505 136.3 100.719 133.907 101.802C126.165 105.678 119.055 111.634 115.52 119.699Z" fill="#FEFEFE"/>
<path d="M96.8086 121.509C99.4738 116.939 102.597 112.621 105.925 108.515C111.728 101.112 118.133 94.2074 124.183 87.0073C127.441 83.4352 130.19 79.4124 133.647 76.0217C133.772 77.5795 132.853 78.9109 132.004 80.1332C129.863 83.1719 127.45 86.0055 125.023 88.8153C115.859 99.4595 105.858 109.696 98.7542 121.876L96.8086 121.509Z" fill="#FEFEFE"/>
<path d="M81.7764 118.449C82.3324 116.839 83.1184 115.299 83.9211 113.805C88.4322 105.852 95.2505 99.4205 102.785 94.3521C105.794 92.5038 108.7 90.3388 112.112 89.3026C111.425 90.5795 110.043 91.1368 108.878 91.8719C105.546 93.8257 102.358 96.0154 99.4154 98.5146C93.5408 103.29 88.246 109 84.9157 115.86C84.4296 116.83 84.0479 117.84 83.7136 118.865L81.7764 118.449Z" fill="#FEFEFE"/>
<path fill-rule="evenodd" clip-rule="evenodd" d="M190.018 183.951C190.59 184.277 190.508 185.257 189.855 185.339C189.528 185.421 189.201 185.502 188.793 185.584C188.303 185.911 187.732 186.237 187.16 186.564C187.16 187.625 186.18 189.258 186.017 189.912C185.527 190.81 184.71 192.851 183.404 191.953C182.832 192.77 181.281 194.403 180.546 192.933C179.893 193.831 177.688 196.771 177.28 194.239C176.627 195.219 174.422 197.342 174.014 195.138C173.279 195.872 171.319 197.587 170.911 195.709C169.931 196.526 168.788 198.159 167.4 197.914C166.583 197.587 166.828 196.689 167.073 196.036C166.256 196.852 164.542 199.629 163.317 198.812C162.664 198.322 163.235 197.506 163.317 196.852C163.48 196.281 163.48 195.709 163.562 195.138C162.174 197.097 159.806 199.057 158.989 198.24C158.418 197.669 158.663 196.771 159.071 195.872C157.846 197.097 156.295 198.24 154.498 198.404C152.62 197.669 154.825 196.036 155.396 195.138C155.805 194.566 156.213 193.913 156.539 193.259C154.172 195.627 150.987 197.261 147.721 197.016C146.823 196.934 146.578 195.709 147.394 195.383C147.884 195.138 148.374 194.893 148.782 194.648C149.68 194.076 150.415 193.423 151.15 192.606C149.027 193.913 146.414 194.484 143.883 194.403C142.821 194.484 140.862 193.668 142.25 192.525C143.475 192.116 144.7 191.79 145.843 191.3C146.904 190.81 147.884 190.157 148.782 189.34C148.456 189.503 148.211 189.667 148.047 189.748C144.455 191.218 140.209 192.035 136.534 190.483C135.799 190.238 134.901 189.422 135.718 188.687C137.106 188.034 138.902 188.524 140.372 188.197C140.862 188.115 141.352 188.034 141.76 187.952C141.433 187.952 141.188 187.952 141.025 187.952C138.167 187.707 135.228 186.727 132.941 185.094C131.471 184.359 131.798 182.481 133.594 183.134C137.514 184.604 140.617 184.441 142.903 183.869C138.739 183.134 134.248 180.93 132.125 177.174C131.798 175.785 133.186 175.704 133.921 176.52C137.677 179.541 143.475 181.256 147.966 178.97C147.884 178.807 147.802 178.725 147.721 178.562C146.904 177.337 146.169 176.03 145.353 174.806C145.271 174.642 145.189 174.479 145.189 174.316C145.108 174.152 145.108 173.907 145.271 173.662C146.333 172.356 147.476 174.724 148.211 175.377C149.191 176.52 150.252 177.663 151.395 178.643C156.295 182.971 162.745 185.012 169.114 185.911C173.605 186.4 178.178 186.074 182.587 185.339C184.547 185.012 186.425 184.277 188.385 183.951L188.467 183.869C188.711 183.706 188.956 183.706 189.12 183.869C189.365 183.951 189.691 183.951 190.018 183.951Z" fill="black"/>
<path fill-rule="evenodd" clip-rule="evenodd" d="M225.946 183.951C225.374 184.277 225.456 185.257 226.109 185.339C226.436 185.421 226.762 185.502 227.171 185.584C227.66 185.911 228.232 186.237 228.804 186.564C228.804 187.625 229.783 189.258 229.947 189.912C230.437 190.81 231.253 192.851 232.56 191.953C233.131 192.77 234.683 194.403 235.418 192.933C236.071 193.831 238.276 196.771 238.684 194.239C239.337 195.219 241.542 197.342 241.95 195.138C242.685 195.872 244.645 197.587 245.053 195.709C246.033 196.526 247.176 198.159 248.564 197.914C249.381 197.587 249.136 196.689 248.891 196.036C249.707 196.852 251.422 199.629 252.647 198.812C253.3 198.322 252.728 197.506 252.647 196.852C252.484 196.281 252.484 195.709 252.402 195.138C253.79 197.097 256.158 199.057 256.975 198.24C257.546 197.669 257.301 196.771 256.893 195.872C258.118 197.097 259.669 198.24 261.466 198.404C263.344 197.669 261.139 196.036 260.567 195.138C260.159 194.566 259.751 193.913 259.424 193.259C261.792 195.627 264.977 197.261 268.243 197.016C269.141 196.934 269.386 195.709 268.57 195.383C268.08 195.138 267.59 194.893 267.181 194.648C266.283 194.076 265.548 193.423 264.813 192.606C266.936 193.913 269.549 194.484 272.081 194.403C273.142 194.484 275.102 193.668 273.714 192.525C272.489 192.116 271.264 191.79 270.121 191.3C269.059 190.81 268.08 190.157 267.181 189.34C267.508 189.503 267.753 189.667 267.916 189.748C271.509 191.218 275.755 192.035 279.43 190.483C280.165 190.238 281.063 189.422 280.246 188.687C278.858 188.034 277.062 188.524 275.592 188.197C275.102 188.115 274.612 188.034 274.204 187.952C274.53 187.952 274.775 187.952 274.939 187.952C277.797 187.707 280.736 186.727 283.022 185.094C284.492 184.359 284.166 182.481 282.369 183.134C278.45 184.604 275.347 184.441 273.061 183.869C277.225 183.134 281.716 180.93 283.839 177.174C284.166 175.785 282.777 175.704 282.043 176.52C278.286 179.541 272.489 181.256 267.998 178.97C268.08 178.807 268.161 178.725 268.243 178.562C269.059 177.337 269.794 176.03 270.611 174.806C270.693 174.642 270.774 174.479 270.774 174.316C270.856 174.152 270.856 173.907 270.693 173.662C269.631 172.356 268.488 174.724 267.753 175.377C266.773 176.52 265.712 177.663 264.568 178.643C259.669 182.971 253.218 185.012 246.849 185.911C242.358 186.4 237.786 186.074 233.376 185.339C231.417 185.012 229.539 184.277 227.579 183.951L227.497 183.869C227.252 183.706 227.007 183.706 226.844 183.869C226.599 183.951 226.272 183.951 225.946 183.951Z" fill="black"/>
<path fill-rule="evenodd" clip-rule="evenodd" d="M169.604 181.91C165.521 181.665 161.683 180.031 157.927 178.48C155.559 177.337 153.11 176.112 151.231 174.316C151.803 174.724 152.456 175.051 153.11 175.377C156.702 177.092 160.458 178.398 164.215 179.623C167.644 180.603 171.237 181.256 174.748 181.42C173.115 181.828 171.4 181.991 169.604 181.91Z" fill="black"/>
<path fill-rule="evenodd" clip-rule="evenodd" d="M246.359 182.154C249.952 181.011 253.463 179.542 256.811 177.745C259.996 175.949 262.935 173.826 265.385 171.131C265.875 170.559 266.446 170.07 266.855 169.416C266.855 169.58 266.773 169.743 266.691 169.825C266.283 170.559 265.793 171.213 265.303 171.866C262.935 175.132 259.751 177.582 256.158 179.378C253.055 181.093 249.707 181.828 246.359 182.154Z" fill="black"/>
</svg>
